<svg xmlns="http://www.w3.org/2000/svg">
<defs>
<font id="Ames'Roman-Regular" horiz-adv-x="592" >
  <font-face 
    font-family="Ames' Roman"
    font-weight="400"
    font-stretch="normal"
    units-per-em="1000"
    panose-1="0 0 5 0 0 0 0 0 0 0"
    ascent="800"
    descent="-200"
    x-height="500"
    cap-height="700"
    bbox="-146 -215 1532 1012"
    underline-thickness="50"
    underline-position="-100"
    unicode-range="U+000D-FB02"
  />
<missing-glyph horiz-adv-x="806" 
d="M776 0h-746v737h746v-737zM68 696v-657h667v657h-667zM333 656l2 3q3 3 3 6q0 1 1 2v0l9 10l1 3q1 2 2 3l5 2h6q3 -1 5 -1t4 -1v-14v-1q-1 -1 -2 -1l10 -5q4 -2 5.5 -3l4.5 -3q6 0 12 -4q2 0 5 -1.5t5 -1.5h11h2q2 1 2 3q1 0 2 1v1h5v-9q-3 -1 -4 -2.5t-3 -1.5
q-3 -2 -5 -1t-4 1q-5 0 -7 1.5t-7 2.5q-3 0 -6 2t-8 2q-3 2 -4.5 3.5t-6.5 3.5t-6.5 4t-5.5 3l-5 -9v-2l1 -3l39 -26q0 -2 -2 -5v-3l-1 -1l-3 -2zM366 667v10h-16l-11 -14l16 -9zM300 610q0 2 1 2v2l3 1q0 4 4 8q2 2 2 7q5 3 6 4.5t2 3.5v2q1 1 3 1q0 2 0.5 2.5t0.5 1.5
l7 -7l-2 -3q0 2 -1 3h-1l-3 -3q-1 -1 -4 -1l-1 -4v-1q0 -1 -3 -4l-4 -2v-2l-2 -3v-3l13 -9q1 3 2 5q1 0 2 1q4 4 4 9l1 2h9l-1 -2v-3q-3 0 -4 -3h-1q0 -1 -1 -1h-2l-3 -2q0 -2 -1 -4t-1 -3l41 -26l5 3q0 2 6 7l1 3q1 2 1 4l1 3v2q0 1 -1 1v10l6 -13v-2q-1 -2 -1 -3
q-4 -4 -5.5 -7t-6.5 -5q-1 -2 -2.5 -6t-3.5 -5l-4 -4zM252 542v2q0 2 3 6l1.5 3t3.5 2q0 4 2 5t5 4q0 3 2 3q0 3 1 4q0 1 1 1h2q1 1 1 2q0 4 2 4.5t2 2.5t2 3.5t4 4.5q0 3 4 7l2 3h1q1 1 1 3l6 -8h-6q-2 0 -2 -1t-2 -1q0 -2 -1 -3h-1v-4q-2 0 -2 -3v0q-1 -1 -2 -1
q0 -2 -4 -2v-5l60 -41l-3 -3q0 -2 -1 -2l-1 -4v-1l-64 41q-1 0 -1 -2t-1 -2q0 -4 -7 -6v-4l-4 -4v-5zM436 594q-2 -1 -1 -3q0 -1 1 -2v-4l52 -33q4 0 5 -1l-1 -1q-3 -6 -4 -7t-5 -1l-64 -1q-2 0 -6 -3v-2q4 0 5 -2l43 -30h-3v-3l-57 40q-2 -3 -6 -3q-1 0 -2 -1t-4 -1h-1
q1 0 1 1v1l5 4l1 2q3 2 6 2q2 0 2.5 2t2.5 2h11l60 2l-48 33q-1 0 -1 4h-2v7l2 3q1 0 5 -3v-2h3zM413 504q5 -2 7.5 -5t5.5 -5q2 -3 3 -5t4 -6v-10q0 -3 -0.5 -6t-3.5 -4q-2 -8 -10 -9q-1 -1 -3.5 -2.5t-4.5 -1.5q-6 0 -8.5 0.5t-7.5 2.5q-11 2 -15 6q-2 3 -5.5 5t-3.5 6

<glyph glyph-name="fi" unicode="fi" horiz-adv-x="711" 
d="M603 131q0 -37 8.5 -61t20.5 -38t25.5 -19.5t23.5 -5.5v-7h-274v7q10 0 23.5 5t26 19t21.5 38t9 61v242q0 36 -8.5 59t-20.5 37t-25.5 19.5t-23.5 5.5h-188v-362q0 -32 8.5 -55.5t20.5 -38.5t25.5 -22.5t23.5 -7.5h66v-7h-335v7q10 0 23.5 7t26 21.5t21.5 38t9 56.5v363
h-50v7h50v90q0 61 14.5 103t40.5 68t62 38t78 12q50 0 82 -11.5t50.5 -29.5t25.5 -38t7 -37q0 -24 -20 -41t-47 -17q-28 0 -47.5 17t-19.5 41q0 23 19.5 40t47.5 17q33 0 53 -23q-11 24 -37.5 42.5t-71.5 18.5q-35 0 -59 -14t-39 -39.5t-21.5 -59.5t-6.5 -75v-102h382v-369z
" />
    <glyph glyph-name="fl" unicode="fl" horiz-adv-x="775" 
d="M305 811q50 0 82 -11.5t50.5 -29.5t25.5 -38t7 -37h-1q0 -24 -19.5 -41t-47.5 -17t-47.5 17t-19.5 41q0 23 19.5 40t47.5 17q17 0 31.5 -7t23.5 -18q-11 25 -38 44t-72 19q-35 0 -59 -14t-39 -39.5t-21.5 -59.5t-6.5 -75v-102h135v-7h-135v-362q0 -32 8.5 -55.5
t20.5 -38.5t25.5 -22.5t23.5 -7.5h66v-7h-335v7q10 0 23.5 7t26 21.5t21.5 38t9 56.5v363h-50v7h50v90q0 61 14.5 103t40.5 68t62 38t78 12zM667 131q0 -37 8.5 -61t20.5 -38t25.5 -19.5t23.5 -5.5v-7h-270v7q10 0 23.5 5t26 18.5t21.5 37.5t9 62v542q0 37 -8.5 60.5
t-20.5 37t-25.5 18.5t-23.5 5v7h190v-669z" />
    <glyph glyph-name="uni0066006A.liga" unicode="fj" horiz-adv-x="665" 
d="M610 -26q0 -84 -43 -135t-141 -52q-50 0 -82 11.5t-50.5 29.5t-25.5 38t-7 37q0 23 20 39.5t48 16.5q27 0 47 -16.5t20 -39.5q0 -24 -20 -41.5t-47 -17.5q-35 0 -56 26q9 -25 33 -43.5t69 -18.5q39 0 62.5 16t35.5 39.5t15.5 50t3.5 48.5v410q0 37 -8.5 60.5t-20.5 37
t-25.5 18.5t-23.5 5h-193v-362q0 -32 8.5 -55.5t20.5 -38.5t25.5 -22.5t23.5 -7.5h66v-7h-335v7q10 0 23.5 7t26 21.5t21.5 38t9 56.5v363h-50v7h50v90q0 61 14.5 103t40.5 68t62 38t78 12q50 0 82 -11.5t50.5 -29.5t25.5 -38t7 -37q0 -24 -20 -41t-47 -17q-28 0 -47.5 17
t-19.5 41q0 23 19.5 40t47.5 17q17 0 30.5 -6.5t23.5 -16.5q-11 24 -38 42.5t-72 18.5q-35 0 -59 -14t-39 -39.5t-21.5 -59.5t-6.5 -75v-102h389v-526z" />
    <glyph glyph-name=".notdef" horiz-adv-x="806" 
d="M776 0h-746v737h746v-737zM68 696v-657h667v657h-667zM333 656l2 3q3 3 3 6q0 1 1 2v0l9 10l1 3q1 2 2 3l5 2h6q3 -1 5 -1t4 -1v-14v-1q-1 -1 -2 -1l10 -5q4 -2 5.5 -3l4.5 -3q6 0 12 -4q2 0 5 -1.5t5 -1.5h11h2q2 1 2 3q1 0 2 1v1h5v-9q-3 -1 -4 -2.5t-3 -1.5
q-3 -2 -5 -1t-4 1q-5 0 -7 1.5t-7 2.5q-3 0 -6 2t-8 2q-3 2 -4.5 3.5t-6.5 3.5t-6.5 4t-5.5 3l-5 -9v-2l1 -3l39 -26q0 -2 -2 -5v-3l-1 -1l-3 -2zM366 667v10h-16l-11 -14l16 -9zM300 610q0 2 1 2v2l3 1q0 4 4 8q2 2 2 7q5 3 6 4.5t2 3.5v2q1 1 3 1q0 2 0.5 2.5t0.5 1.5
l7 -7l-2 -3q0 2 -1 3h-1l-3 -3q-1 -1 -4 -1l-1 -4v-1q0 -1 -3 -4l-4 -2v-2l-2 -3v-3l13 -9q1 3 2 5q1 0 2 1q4 4 4 9l1 2h9l-1 -2v-3q-3 0 -4 -3h-1q0 -1 -1 -1h-2l-3 -2q0 -2 -1 -4t-1 -3l41 -26l5 3q0 2 6 7l1 3q1 2 1 4l1 3v2q0 1 -1 1v10l6 -13v-2q-1 -2 -1 -3
q-4 -4 -5.5 -7t-6.5 -5q-1 -2 -2.5 -6t-3.5 -5l-4 -4zM252 542v2q0 2 3 6l1.5 3t3.5 2q0 4 2 5t5 4q0 3 2 3q0 3 1 4q0 1 1 1h2q1 1 1 2q0 4 2 4.5t2 2.5t2 3.5t4 4.5q0 3 4 7l2 3h1q1 1 1 3l6 -8h-6q-2 0 -2 -1t-2 -1q0 -2 -1 -3h-1v-4q-2 0 -2 -3v0q-1 -1 -2 -1
q0 -2 -4 -2v-5l60 -41l-3 -3q0 -2 -1 -2l-1 -4v-1l-64 41q-1 0 -1 -2t-1 -2q0 -4 -7 -6v-4l-4 -4v-5zM436 594q-2 -1 -1 -3q0 -1 1 -2v-4l52 -33q4 0 5 -1l-1 -1q-3 -6 -4 -7t-5 -1l-64 -1q-2 0 -6 -3v-2q4 0 5 -2l43 -30h-3v-3l-57 40q-2 -3 -6 -3q-1 0 -2 -1t-4 -1h-1
q1 0 1 1v1l5 4l1 2q3 2 6 2q2 0 2.5 2t2.5 2h11l60 2l-48 33q-1 0 -1 4h-2v7l2 3q1 0 5 -3v-2h3zM413 504q5 -2 7.5 -5t5.5 -5q2 -3 3 -5t4 -6v-10q0 -3 -0.5 -6t-3.5 -4q-2 -8 -10 -9q-1 -1 -3.5 -2.5t-4.5 -1.5q-6 0 -8.5 0.5t-7.5 2.5q-11 2 -15 6q-2 3 -5.5 5t-3.5 6
q-4 2 -5 5t-4 4v15q0 2 0.5 5t3.5 5q4 6 11 7q2 0 4.5 2t3.5 2q6 0 8.5 -0.5t7.5 -3.5q2 0 6 -1t6 -6zM268 436q-1 0 -1 -1v-1l-50 62q2 0 2.5 2.5t1.5 2.5l2 3h1v6l82 -22h-2q0 -2 -1.5 -2.5t-1.5 -2.5l-1 -4h-2l-20 7q-3 -2 -4 -4.5t-3 -2.5q-2 -1 -2 -3t-1 -3
q-4 -3 -6.5 -7.5t-5.5 -10.5l13 -18zM641 473q-3 0 -3 6v2q1 3 3 5q0 2 1 3.5l3 4.5q3 0 3 7q4 0 4.5 1.5t1.5 1.5q5 0 7 2t4 2t4.5 -0.5t5.5 -3.5h-12q-2 -2 -5 -2.5t-4 -0.5t-1 -2v-3q-5 -2 -5 -6v-1q-1 -1 -3 -1v-5v-2q1 -2 3 -2v-1h5l1 1h6q2 4 3 4q3 4 6 7.5t6 3.5
q2 2 5.5 2.5t6.5 4.5h11q3 -4 6.5 -4.5t4.5 -2.5q4 0 6 -3t2 -5q1 -3 1 -12q0 -1 -0.5 -3.5t-0.5 -6.5q-2 -4 -4.5 -6.5l-3.5 -3.5q-2 -6 -7 -10q-3 0 -4.5 -1.5t-4.5 -3.5q-2 -2 -4 -2t-4 -1h-7q-1 0 -2.5 0.5t-4.5 0.5q0 2 -1.5 3.5t-1.5 3.5v3q2 0 3 1.5t4 1.5
q2 0 2.5 -1.5t2.5 -2.5v-1q1 -1 3 -1v-5q4 0 8 2q2 0 2.5 1.5t3.5 1.5q1 0 3 1t2 2q6 6 6 8q1 2 2 5t4 3q0 2 1.5 5t1.5 5q0 1 -0.5 4t-2.5 6q0 2 -2.5 3.5t-3.5 1.5q-2 2 -4.5 4t-5.5 2q-1 0 -3 -2l-4 -4q-3 0 -5 -1.5t-6 -3.5q-2 0 -3 -2.5t-6 -6.5q0 -1 -4 -4
q-2 -1 -3.5 -3t-3.5 -3q-4 0 -5 -0.5t-2 -0.5q-4 0 -5 0.5l-3 1.5q-4 0 -4 8zM428 483q-2 2 -6 5t-9 8q-2 0 -6 2.5t-6 2.5q-3 3 -13 3q-3 0 -6 -0.5t-5 -2.5q-5 0 -7 -2.5t-4 -4.5v-15q5 0 6 -6q4 0 6 -1.5t6 -2.5q0 -3 9 -5q2 -1 8 -1h18q2 1 4.5 2t4.5 5q2 5 0 13z
M255 459q1 4 5 6q0 8 7 8q0 4 2 6q0 3 1.5 4t3.5 3l-42 8q-3 2 -3 0v-4zM512 446l31 42l3 -5l-32 -39zM339 469q0 1 2 2l2 2l63 -46h-1q-2 0 -2 -1q0 -2 -1 -3h-1l-2 -4l-61 45zM234 391v-2q-1 -2 -2 -2l-62 43q0 2 0.5 2.5t0.5 1.5l4 2v3q1 1 1 3q1 2 2 2q5 3 5 9
q2 2 4 3.5t2 6.5h4v2l6 -2l-1 -4h-1l-4 -2v-1q-2 -1 -4 -1v-2v-3q-3 0 -3.5 -1.5t-2.5 -1.5v-3l-5 -5l15 -12q0 2 2 4.5t3 4.5q0 1 0.5 2t0.5 3q1 0 1 2v1v2q1 -2 3 -2h4h5l-3 -3v0q-1 -1 -1 -2h-1q-2 0 -2.5 -1t-3.5 -1l-1 -1q1 0 -2 -3q0 -2 -0.5 -4t-0.5 -3l41 -27v1l2 4
q5 1 5 9h1q1 1 1 2q3 0 4 1q1 0 1 1v16l8 -10q-3 -3 -3.5 -4.5t-1.5 -3.5q-2 -2 -5 -4.5t-5 -6.5l-10 -10q0 -3 -1 -3zM458 427l14 -8q1 3 2 4t1 3q3 0 3 7q2 0 3 1v0v2q1 0 2 -1t5 -1h4l-3 -1l-1 -3q-4 -2 -4.5 -2.5t-1.5 -0.5l-1 -1q-3 0 -4 -3q-1 -1 -1 -2q-1 -3 -1 -4
l43 -26l3 3q0 2 2.5 3.5t3.5 1.5q0 2 0.5 3.5t0.5 2.5v4q3 0 4 2v2v2l-4 2v6l10 -10l-3 -8q-5 -3 -6 -5l-3 -6q-4 -2 -5.5 -5t-6.5 -6h-1q-1 -1 -1 -2v-1q0 -1 -1 -1l-61 44v3h5v1q0 2 1.5 4.5t1.5 4.5q4 1 7 8q2 0 6 9q0 1 1 1q0 1 0.5 1t0.5 2l5 -7h-3q-1 0 -2 -1v-2
l-2 -3h-3l-1 -3v-1q-1 -2 -2 -3l-2 -1q0 -2 -1 -2t-1 -1l-3 -3v-3zM654 376q-1 0 -1 -1v-1l-65 43q4 0 4 6q1 0 5 3q1 0 1 0.5t1 0.5l3 9q4 3 6 8h3t3 2h7q1 -1 2 -1q4 -1 8 -1v-14q-3 0 -3 -4q2 0 3 -1.5t5 -1.5q2 0 5 -2t7 -4q4 0 5.5 -1t6.5 -3h8q2 -3 4.5 -3.5t4.5 -0.5
q3 0 3 4q2 0 2.5 1t2.5 1h1q1 1 1 2v-2h2q2 -1 2 -2v-4l-4 -4q0 -4 -4 -4h-12q-2 0 -4.5 1.5t-4.5 2.5l-8 4t-6 4q-8 0 -12 4q-4 2 -7 4t-8 2l-4 -8q-1 0 -1 -1t1 -1l4 -4l39 -26l-5 -2q-1 -2 -1 -5zM330 441q2 0 3.5 -1l4.5 -3v-10q1 2 4.5 3t5.5 3h8q5 -2 6 -3t4 -3
q4 0 4.5 -0.5t1.5 -0.5h5l1.5 -3t1.5 -4q0 -2 2 -3t2 -3v-9q0 -4 -0.5 -5t-3.5 -5l-18 -24v-1l-62 44l1 4h2q1 1 1 2l4 7l6 4q0 3 1.5 3.5t1.5 2.5q3 3 5 3q2 2 4.5 2h3.5zM621 426v4v4v2v1q0 1 -2 2h-2h-8q-1 -2 -2 -2l-9 -14l15 -8zM333 423v2q0 1 1 1q0 1 -1 1v6
q-3 0 -3 1h-12l-1 -1l-9 -14l13 -10zM343 426q-4 0 -5 -1.5t-3 -1.5l-10 -14l41 -30l13 15q0 2 0.5 3.5t-0.5 3.5q0 4 -1 8q0 1 -1 2q-2 2 -5 2q-2 4 -3 4q-7 0 -7 6q-5 0 -7 1.5t-4 1.5h-8zM197 337q0 -1 -4 -2l-60 44l2 4q0 1 1.5 2t1.5 2q1 0 1 2t2 2l5 8q5 0 5 5
q2 1 5 3l2 2h4q4 0 5 -2t3 -3q1 0 1 -1v-2v-4v-1q0 -2 -1 -2q0 -2 -1 -3h-1q2 -3 5 -4t5 -3q4 -1 6 -2t5 -3q6 0 11 -5h9h15h2q1 1 1 2h2q2 0 3 -1v-1v-5q-2 -4 -3 -4.5t-5 -0.5h-7h-16q-2 5 -12 10q-5 0 -12 5l-9 7l-10 -10v-2h3l39 -30v0q-1 -1 -1 -2l-1 -4q0 -1 -1 -1z
M450 409h3q2 -2 2 -4q3 -1 3 -4v-4v-6q-3 -4 -3 -8q-5 -2 -5 -7v-6l38 -25v-3q-5 0 -5 -4l-1 -1q0 -1 -0.5 -1t-0.5 -1l-62 44q0 4 3 4q0 1 2 2t2 2l2 4l5 8l2 3q1 2 1 3q3 4 8 4h6zM556 370q0 4 3 4l1 2q0 3 5 8q1 2 2.5 3t3.5 4l4 8l2 2l1 4l6 -6h-2l-4 -2q-1 -3 -3 -3
l-1 -3q-2 0 -2 -2t-1 -3v-1q-1 -1 -2 -1q0 -1 -3 -3v-1q0 -1 -1 -1v-3l12 -7l5 5v-10l39 -27q2 1 3 3t4 4q3 1 3 8h2q2 1 2 2q1 0 1 2q2 0 2 2v4v2h-2v6l2 4l7 -12l-7 -8q0 -2 -2 -5t-5 -5q-2 -5 -5 -7t-5 -7v-2zM167 391l1 3v3q-1 0 -1 1v1h-5q-1 0 -1.5 1t-2.5 1
q-4 0 -7 -2l-10 -13l13 -12zM450 394q0 5 -2 5l-3 2h-6l-3 -2l-8 -13l19 -12l1 1v4q2 4 2 8v7zM582 374q1 1 2 3q2 3 4 4v3h1q1 -1 3 -1h6l-1 -2v-1q-2 -1 -4 -1h-1q-3 -3 -4 -3v-2h-6zM111 320q-2 6 -4.5 8.5t-6.5 7.5q0 5 -1 8t-1 8q0 2 1 5.5t1 6.5q1 0 3 1q3 1 5 4
q0 1 2 1.5t4 3.5l4 -10h-7q0 -2 -1.5 -3.5t-1.5 -4.5q0 -1 -1 -2h-2v-2q-4 0 -4.5 -2.5t-0.5 -3.5q0 -2 5 -4q0 -5 3 -7q0 -3 6 -7h3l1 -4l10 -4q1 -1 4 -3t6 -3q6 -4 8 -4h21q1 2 4 5t3.5 4.5t0.5 4.5l-29 20l5 2v6l27 -20h3q-2 -1 -3 -3v-1v-14q0 -4 -3 -4v-4
q0 -2 -2.5 -2.5t-4.5 -2.5q-4 -1 -7 -2h-3q-12 0 -15 2q-4 2 -7.5 2.5t-7.5 2.5q-7 5 -9.5 7.5t-7.5 6.5zM268 370q1 3 2 4h1l62 -42q1 4 5 5q0 1 0.5 3.5t0.5 4.5q3 0 3.5 0.5t2.5 1.5l3 5v10q0 1 -1 2h-2h3l6 -10h-1q-2 -1 -2 -2q-1 0 -1 -5q-2 -2 -5 -4t-6 -6
q-1 -2 -3 -5t-3 -8h-3l-1 -4l-62 44zM428 332q1 0 5 -1t6 -3q-6 8 -6 10q-5 8 -5 14q-2 2 -4.5 2.5t-4.5 5.5q0 4 -2 4h-4h-2l-2 5h-3q0 1 2 1h1h2h2q2 0 4 -1h1q1 -4 3 -4.5t5 -2.5l3 -10q3 0 4 -3t3 -5q0 -2 0.5 -4.5t2.5 -3.5q2 -8 6 -8q2 -3 4 -5.5t6 -2.5l10 -8
q0 -1 -1 -2h-1h-1q-1 -2 -1 -4l-3 -1v-2l-22 12q0 5 -7 5q-1 0 -4.5 2t-5.5 2h-40q1 3 3 4h2q0 4 1 7zM538 342q0 2 3.5 2.5t5.5 0.5q8 1 12 0q7 0 12 -1q4 0 11 -6l7 -3l3.5 -3.5t5.5 -3.5q4 0 4 -8v-10q0 -4 -1.5 -6.5t-2.5 -7.5l-10 -14q-4 -2 -6 -6l-61 44v4l6 6
q1 0 1 5q3 2 6 3t4 4zM317 305v-1q-1 -1 -3 -1h-4l-22 7q-2 0 -3 -2t-1 -3q0 -2 -1.5 -2.5t-4.5 -3.5q-3 -5 -5.5 -8.5t-4.5 -8.5l16 -23v-1l-63 72l2 2q0 2 0.5 2.5t0.5 1.5l3 1q0 1 1 1.5t1 3.5l93 -30q-1 0 -1 -1v-1h-3l-1 -4v-1zM547 342q-2 0 -6 -2q-1 -1 -3 -2
q-1 -1 -6 -3l-4 -7l60 -40l5 8q3 4 3.5 5.5t0.5 3.5q0 7 -4 10q-1 4 -2.5 5t-2.5 4q0 3 -2 3.5t-4 2.5q0 5 -7 5q-2 2 -9 2q-1 1 -3.5 1.5t-4.5 3.5h-11zM282 305q2 1 2 3v4l-46 16h-6v-4h1q1 -2 1 -4l33 -37q1 6 4 9q2 1 3 3t4 6q0 2 4 4zM417 243q-3 0 -3.5 -1.5
t-2.5 -4.5l-73 53q0 -2 -1.5 -3.5t-1.5 -3.5l-5 -3v-4l-1 -2q-1 0 -2 -1v-1v-8h-10q0 2 1 5v3h2q1 1 1 2q1 0 3 3t5 3l5 8q1 3 2 4h2v4h1q0 1 1 2q1 2 3 3q0 1 5 4q0 5 2 7q1 2 2.5 4.5t2.5 3.5q1 0 1 2v2q5 0 6 4l4 -8v-1h-5q0 -3 -2.5 -3.5t-2.5 -1.5l-2 -4h-1
q-2 -2 -2 -4l-1 -1q0 -1 -1 -2h-1v-4l71 -50q-2 -4 -2 -6zM577 272q-2 -5 -2 -8h-1l-3 -5h-5l-62 -5h-9q3 -2 3 -5l40 -29v-3l-56 37h-5q-2 0 -3 -1t-3 -1l1 2q1 0 1 4l2 1h2q1 4 4 4q1 1 7 1h10l61 3l-48 36h-3q0 2 -1 2t-1 1v8h5q1 -2 3 -2q0 -2 4 -2q-5 -5 0 -5
q0 -1 2 -2h1l48 -36zM463 241q0 2 1 2.5t1 2.5l62 -45v-2q0 -2 -1 -2h-1q-1 -1 -4 -1v-4l-3 2q0 -2 -2 -4.5t-2 -4.5l-3 -7q0 -2 -2.5 -3.5t-2.5 -3.5q-2 -1 -5.5 -3.5t-5.5 -2.5h-7l-3 3t-3 2l-46 34l3 3q0 2 0.5 3t0.5 3l48 -35q1 0 3 -0.5t4 -0.5h3q8 0 8 1q5 0 5 5
q0 2 0.5 2.5t0.5 3.5q0 5 -1 7l-53 40v1h3zM472 163q1 -4 3 -6.5t2 -4.5q1 -5 1 -7v-6q0 -3 -0.5 -4.5t-2.5 -6.5q-2 -2 -3.5 -4t-4.5 -4q-3 0 -6.5 -0.5t-5.5 -0.5q-10 0 -15 1q-4 0 -12 6q-7 7 -11 9q-5 4 -5.5 6.5t-2.5 4.5q0 6 -1 8.5t1 4.5q0 4 1 5.5t1 6.5
q2 3 4.5 4.5t3.5 2.5q5 2 7.5 3.5t6.5 1.5q2 0 6.5 -0.5t5.5 -2.5q4 -2 7.5 -3t8.5 -3q3 -3 5.5 -6t5.5 -5zM473 135q6 7 0 13q-1 7 -15 16q-2 1 -5.5 1.5t-7.5 4.5q-1 1 -12 1q-6 0 -14 -6q-1 0 -3.5 -1t-4.5 -5v-13q5 0 8 -6q2 -1 4.5 -3t4.5 -2q5 -1 8 -1q3 -2 6 -2.5
t6 -3.5h10q5 0 9 4q1 2 3 2t3 1zM380 110l53 -40h-4l-1 -7l-77 52q2 0 2.5 2t1.5 3l1 2l6 6q0 3 2 4.5t2 2.5q2 3 3.5 4.5t1.5 4.5l1 2l5 2l7 -4l-4 -4l-1 4q-1 -4 -2 -4q0 -1 -2 -1h-3l-1 -4v-1q-2 0 -2 -2q-2 0 -3 -2v-2v-2q-2 0 -3 -2q-1 -1 -1 -2v-2l16 -10q1 3 1.5 3.5
t0.5 1.5q3 3 3.5 4t0.5 3l1 4h8q1 0 2 -2t4 -2l-1 -2h-10q0 -1 -3 -1v-4l-1 -1z" />
    <glyph glyph-name=".null" horiz-adv-x="0" 
 />
    <glyph glyph-name=".null" horiz-adv-x="0" 
 />
    <glyph glyph-name="nonmarkingreturn" unicode="&#xd;" horiz-adv-x="250" 
 />
    <glyph glyph-name="space" unicode=" " horiz-adv-x="300" 
 />
    <glyph glyph-name="exclam" unicode="!" horiz-adv-x="240" 
d="M116 183q0 27 -12 81t-26 116.5t-26 123t-12 101.5q0 48 23.5 77.5t57.5 29.5q32 0 55.5 -29.5t23.5 -77.5q0 -40 -11 -100.5t-24.5 -123t-24.5 -117t-11 -81.5q-3 0 -8 -1t-5 1zM121 -16q-38 0 -64.5 22.5t-26.5 54.5t26.5 53.5t64.5 21.5q36 0 62.5 -21.5t26.5 -53.5
t-26.5 -54.5t-62.5 -22.5z" />
    <glyph glyph-name="quotedbl" unicode="&#x22;" horiz-adv-x="323" 
d="M137 779q0 -21 -1.5 -45t-5 -47t-8.5 -44t-11 -37h-54q-14 32 -20.5 81t-6.5 92v21h107v-21zM293 779q0 -21 -2 -45t-5.5 -47t-8.5 -44t-11 -37h-54q-14 32 -20 81t-6 92v21h107v-21z" />
    <glyph glyph-name="numbersign" unicode="#" horiz-adv-x="585" 
d="M411 157h120l-2 -18h-120l-15 -139h-53l15 139l-151 -1l-14 -138h-53l14 138h-122l2 18h122l22 206h-122l2 18h122l12 118h53l-12 -118l151 1l12 117h53l-12 -117h120l-2 -18h-120zM229 362l-22 -206l151 1l22 206z" />
    <glyph glyph-name="dollar" unicode="$" horiz-adv-x="598" 
d="M568 203q0 -41 -18.5 -76t-51 -61.5t-77 -44t-96.5 -24.5v-100h-13v99q-9 -2 -18 -2t-18 -1v-96h-13v96h-5q-48 0 -89.5 11t-72 29.5t-48.5 42t-18 48.5q0 27 22.5 46.5t53.5 19.5q32 0 54 -19.5t22 -46.5q0 -26 -22 -45t-54 -19q-15 0 -26 4q8 -12 27.5 -22.5t45.5 -19
t55 -13.5t55 -6v320q-40 17 -79 35t-70 42t-50 56t-19 77q0 73 59 119.5t159 54.5v93h13v-92l29 1h7v91h13v-91q86 -5 131 -41t45 -84q0 -27 -22.5 -46.5t-53.5 -19.5q-32 0 -54 19.5t-22 46.5q0 26 22 45t54 19q15 0 26 -4q-30 45 -126 54v-278q43 -17 86 -34.5t78 -42
t57 -58t22 -82.5zM276 699v-259l36 -15v274l-24 1zM155 572q0 -47 30.5 -76t77.5 -51v252q-19 -4 -38 -14t-34.5 -26t-25.5 -37t-10 -48zM276 3q15 0 36 3v296l-36 15v-314zM325 9q21 5 43.5 15.5t40.5 28.5t29.5 44.5t11.5 63.5q0 25 -9.5 44.5t-26.5 35.5t-40 29.5
t-49 25.5v-287z" />
    <glyph glyph-name="percent" unicode="%" horiz-adv-x="1297" 
d="M563 -104h-66l222 812q-30 -5 -66 0.5t-74.5 17t-78.5 26t-79 26.5q27 -15 51.5 -36t42.5 -49.5t28.5 -64.5t10.5 -79q0 -68 -25 -116.5t-63.5 -80t-85 -46t-89.5 -14.5q-44 0 -90 14.5t-84 46t-62.5 80t-24.5 116.5t24.5 117t62.5 81.5t84 48t90 15.5q42 1 89.5 -8
t95 -20t92 -21.5t81 -12t61.5 9t34 40.5v1h66zM434 549q0 66 -14 114.5t-35 79.5t-46 46t-48 15t-47.5 -15t-45 -46t-33.5 -79.5t-13 -114.5q0 -67 13 -114.5t33.5 -77.5t45 -44t47.5 -14t48 14t46 44t35 77.5t14 114.5zM1004 507q43 0 89.5 -15.5t85 -48t63.5 -81.5
t25 -117t-25 -116.5t-63.5 -80t-85 -46t-89.5 -14.5q-44 0 -90 14.5t-84 46t-62.5 80t-24.5 116.5t24.5 117t62.5 81.5t84 48t90 15.5zM1004 -5q23 0 48 14t46 44t34.5 77.5t13.5 114.5q0 66 -13.5 114.5t-34.5 79.5t-46 46t-48 15t-48 -15t-46 -46t-34.5 -79.5
t-13.5 -114.5q0 -67 13.5 -114.5t34.5 -77.5t46 -44t48 -14z" />
    <glyph glyph-name="ampersand" unicode="&#x26;" horiz-adv-x="722" 
d="M537 283q23 -43 41 -91.5t45 -87.5t71.5 -61.5t119.5 -15.5v-8q-75 -22 -129.5 -21.5t-92.5 15.5t-63 41.5t-41 57.5q-13 -24 -35 -45t-53 -37.5t-70.5 -26t-89.5 -9.5q-27 1 -63.5 13t-69 36.5t-55 63.5t-22.5 94q0 36 14.5 66t39 54t58 41t71.5 26q-33 23 -54.5 54.5
t-21.5 82.5q0 43 20 77t55.5 58t83.5 36.5t105 12.5q48 0 88 -9t68.5 -29.5t44.5 -54t16 -83.5q0 -26 -12.5 -51t-32.5 -46.5t-45.5 -40t-52.5 -31.5q16 -15 30 -32.5t26 -38.5q17 32 43.5 57t58.5 38.5t67 14t67 -16.5q18 -8 29.5 -23t11.5 -33q0 -27 -22.5 -46.5
t-53.5 -19.5q-32 0 -54 19.5t-22 46.5q0 17 9.5 31t25.5 23q-44 3 -86.5 -23t-68.5 -77zM399 700q-32 0 -61 -8t-51 -24.5t-35 -41.5t-13 -59q0 -37 21.5 -59.5t55.5 -42t74.5 -41t78.5 -55.5q54 27 81 73t27 92q0 81 -44 123.5t-134 42.5zM251 4q85 0 144.5 30t87.5 86
q-7 14 -12.5 28t-10.5 28q-16 45 -43.5 75.5t-60.5 52.5t-67.5 39.5t-64.5 36.5q-75 -18 -114.5 -67.5t-39.5 -124.5q0 -45 17.5 -79t44.5 -57t59 -35t60 -13z" />
    <glyph glyph-name="quotesingle" unicode="'" horiz-adv-x="167" 
d="M137 779q0 -21 -1.5 -45t-5 -47t-8.5 -44t-11 -37h-54q-14 33 -20.5 81.5t-6.5 91.5v21h107v-21z" />
    <glyph glyph-name="parenleft" unicode="(" horiz-adv-x="336" 
d="M371 781q-50 0 -87 -23t-63 -61t-42.5 -87t-26 -101t-13 -102.5t-3.5 -92.5q0 -43 3 -92.5t12 -99t25.5 -95t42.5 -81t63.5 -56.5t88.5 -21v-21q-96 0 -161 38t-105 102.5t-57.5 150t-17.5 179.5q0 97 18.5 184.5t59 153.5t105.5 105t158 39v-19z" />
    <glyph glyph-name="parenright" unicode=")" horiz-adv-x="341" 
d="M-30 800q93 0 158 -39t105.5 -105t59 -153.5t18.5 -184.5q0 -94 -17.5 -179.5t-57.5 -150t-105 -102.5t-161 -38v21q51 0 88.5 21t63.5 56.5t42.5 81t25.5 95t12 99t3 92.5q0 42 -3.5 92.5t-13 102.5t-26 101t-42.5 87t-63 61t-87 23v19z" />
    <glyph glyph-name="asterisk" unicode="*" horiz-adv-x="340" 
d="M297 675q-21 -7 -45.5 -12.5t-44.5 -8.5q17 -14 33.5 -33.5t29.5 -38.5l9 -12l-51 -37l-8 12q-13 17 -26 38t-21 40q-9 -19 -22 -40t-26 -38l-8 -12l-51 37l9 12q13 19 29.5 38t33.5 33q-22 3 -47 9t-47 13l-14 4l19 60l14 -4q21 -7 43.5 -16.5t41.5 -19.5q-3 20 -5 43.5
t-2 43.5v14h63v-14q0 -20 -2 -42.5t-5 -42.5q18 10 39 18.5t41 15.5l14 4l19 -60z" />
    <glyph glyph-name="plus" unicode="+" horiz-adv-x="353" 
d="M205 214v-118h-57v118h-118v57h118v118h57v-118h118v-57h-118z" />
    <glyph glyph-name="comma" unicode="," horiz-adv-x="240" 
d="M121 136q16 0 32 -6.5t28.5 -19.5t20.5 -33t8 -48q0 -18 -5.5 -36.5t-16 -34.5t-26 -28t-34.5 -17l-1 4q16 5 22 17.5t6 31.5q0 9 -2.5 15.5t-10.5 4.5q-5 -1 -10.5 -1.5t-10.5 -0.5q-38 0 -64.5 22.5t-26.5 54.5t26.5 53.5t64.5 21.5z" />
    <glyph glyph-name="hyphen" unicode="-" horiz-adv-x="298" 
d="M268 421h-238v32h238v-32z" />
    <glyph glyph-name="period" unicode="." horiz-adv-x="240" 
d="M121 -16q-38 0 -64.5 22.5t-26.5 54.5t26.5 53.5t64.5 21.5q36 0 62.5 -21.5t26.5 -53.5t-26.5 -54.5t-62.5 -22.5z" />
    <glyph glyph-name="slash" unicode="/" horiz-adv-x="399" 
d="M96 -200h-66l273 1000h66z" />
    <glyph glyph-name="zero" unicode="0" horiz-adv-x="690" 
d="M344 -10q-64 0 -121 25.5t-100 72.5t-68 113.5t-25 148.5t25 148t68 113t100 72.5t121 25.5q65 0 122 -25.5t100.5 -72.5t68.5 -113t25 -148t-25 -148.5t-68.5 -113.5t-100.5 -72.5t-122 -25.5zM344 -3q53 0 91 25t63 71t37 111t12 146q0 80 -12 145t-37 111t-63 71
t-91 25q-52 0 -90 -25t-63 -71t-37 -111t-12 -145q0 -81 12 -146t37 -111t63 -71t90 -25z" />
    <glyph glyph-name="one" unicode="1" horiz-adv-x="389" 
d="M253 131q0 -35 3.5 -59t14.5 -38.5t32 -20.5t56 -6v-7h-329v7q36 0 58 5.5t33.5 20t15.5 38t4 59.5v404q0 70 -27 84.5t-82 -9.5v7l221 110v-595z" />
    <glyph glyph-name="two" unicode="2" horiz-adv-x="597" 
d="M502 -30h-7q-3 9 -9 14.5t-18.5 9t-33.5 5t-53 1.5h-351q0 88 22.5 146.5t58 98t80 64.5t89.5 45q33 15 66 31.5t59.5 38.5t43 50.5t16.5 67.5q0 42 -19.5 72t-48 49t-60.5 28t-56 9q-46 -1 -89 -17t-70 -42h6q28 0 47.5 -17t19.5 -40q0 -24 -19.5 -41t-47.5 -17
q-27 0 -47 17t-20 41q0 25 18 47.5t48 40t70.5 27.5t85.5 10q61 0 112.5 -12t89 -36t58.5 -59.5t21 -82.5q0 -50 -15.5 -86.5t-42 -63.5t-60.5 -45.5t-72 -32.5q-39 -14 -91.5 -27.5t-101.5 -34.5t-86 -55t-44 -89h367q33 0 57 3.5t42 13.5t31.5 29t24.5 49h7z" />
    <glyph glyph-name="three" unicode="3" horiz-adv-x="594" 
d="M318 380q46 0 89 -11.5t76.5 -34.5t53.5 -56t20 -77q0 -58 -22 -98.5t-62.5 -65.5t-96.5 -36t-124 -11h-22q-39 0 -75.5 13t-64.5 36.5t-44.5 56.5t-15.5 73q1 17 5 36.5t12 40.5h8q-18 -43 -18 -80q0 -36 15 -66.5t41 -53t61.5 -35.5t75.5 -13h22q39 0 74 10.5
t60.5 34.5t40.5 63t15 95q0 48 -19 81t-49 54t-66.5 30t-71.5 9h-24v10h26q35 0 67.5 7.5t58 26t41 51.5t15.5 84q0 72 -37.5 109.5t-118.5 37.5h-17q-35 0 -64 -7t-50 -18t-32.5 -24.5t-11.5 -26.5q9 3 19 3q28 0 47.5 -16.5t19.5 -39.5q0 -24 -19.5 -41.5t-47.5 -17.5
q-27 0 -47 18t-20 46q0 21 10.5 44.5t34.5 43t63.5 32t97.5 12.5h17q131 0 194 -44t63 -116q0 -37 -15 -66t-42 -50t-64.5 -34t-81.5 -19z" />
    <glyph glyph-name="four" unicode="4" horiz-adv-x="665" 
d="M571 162h-7q-3 9 -9 14.5t-18.5 9t-33 5t-52.5 1.5v-61q0 -40 8.5 -64.5t20.5 -37.5t25.5 -17.5t23.5 -4.5v-7h-336v7q34 0 61 4t45.5 16.5t28.5 37t10 65.5v63l-308 1l308 505l113 1v-443h36q33 0 55.5 2t39 11t28.5 26.5t23 47.5h7zM338 674l-255 -416l255 -1v417z" />
    <glyph glyph-name="five" unicode="5" horiz-adv-x="611" 
d="M575 201q0 -58 -25.5 -98.5t-70 -65.5t-104 -36t-127.5 -11h-12q-58 0 -97.5 12.5t-63.5 32t-34.5 42t-10.5 41.5q0 33 20 50t47 17q28 0 47.5 -17t19.5 -40q0 -24 -19.5 -41t-47.5 -17q-10 0 -19 3q0 -13 12 -26.5t32.5 -24t49.5 -17.5t64 -7h12q41 0 80 10.5t69 34.5
t48.5 63t18.5 95q0 48 -21.5 84.5t-61 61t-95 37t-124.5 12.5h-70l75 304h277q32 0 54 1.5t36.5 5t23.5 9t16 14.5h7l-46 -226h-7q8 36 6 58t-14.5 33.5t-35 15.5t-55.5 4h-272l-52 -209h59q75 0 148.5 -8t132 -30t94.5 -62t36 -105z" />
    <glyph glyph-name="six" unicode="6" horiz-adv-x="598" 
d="M296 436q59 0 108.5 -11t85 -35.5t55.5 -64.5t20 -99q0 -60 -25 -104.5t-63.5 -73.5t-85 -43.5t-89.5 -14.5q-54 0 -103 25.5t-86.5 72.5t-60 113.5t-22.5 148.5q0 81 23 147.5t64.5 113.5t100 72.5t129.5 25.5q51 0 87.5 -10t59.5 -27.5t34 -40t11 -47.5
q0 -24 -19.5 -41t-47.5 -17t-47.5 17t-19.5 41q0 23 19.5 40t47.5 17q6 0 12 -1t11 -3q-18 32 -55.5 48t-89.5 17h-9q-40 0 -73 -21t-56.5 -60t-37.5 -95t-18 -125q26 19 62.5 27t77.5 8zM302 -3q66 0 102 55t36 171q0 38 -4.5 74.5t-19.5 65t-43.5 46t-76.5 17.5
q-33 0 -73 -8t-68 -34q-1 -10 -1 -19.5v-19.5q0 -79 8.5 -142.5t26.5 -109t46 -70.5t67 -26z" />
    <glyph glyph-name="seven" unicode="7" horiz-adv-x="610" 
d="M578 700q9 -53 -9 -106.5t-50 -108t-72 -109.5t-74.5 -110.5t-58.5 -111.5t-24 -111q0 -32 -23.5 -54.5t-55.5 -22.5q-33 0 -56.5 22.5t-23.5 54.5q0 58 28.5 105t73 88.5t97 81.5t101 84t85 96t48.5 117h-372q-33 0 -57 -3.5t-42 -13.5t-31.5 -28.5t-24.5 -48.5h-7
l78 209h7q3 -9 9 -14.5t18.5 -9t33.5 -5t53 -1.5h349z" />
    <glyph glyph-name="eight" unicode="8" horiz-adv-x="606" 
d="M431 388q30 -13 57.5 -29t48.5 -38t33 -51t12 -69q0 -46 -22.5 -84t-62.5 -66t-94.5 -43t-118.5 -15q-50 0 -96 12t-81 36.5t-56 64t-21 95.5q0 68 37.5 111t96.5 60q-43 27 -71.5 64.5t-28.5 94.5q0 43 19 76.5t54 56t84 34t109 11.5q45 0 84 -8.5t68.5 -27.5t46 -49
t16.5 -72q0 -27 -10.5 -51.5t-27 -45t-36.5 -37.5t-40 -30zM313 700q-23 0 -46 -7t-41 -21.5t-29 -37.5t-11 -55q0 -45 21.5 -73.5t56 -48.5t77 -34.5t83.5 -31.5q20 13 40 30t36 38t25.5 45t9.5 49q0 67 -51.5 107t-170.5 40zM301 3q20 0 47 7t51 24t41 46t17 73
q0 45 -27.5 74.5t-69.5 52t-91.5 42t-93.5 44.5q-62 -19 -98.5 -62.5t-36.5 -115.5q0 -46 21 -81t57 -58.5t83.5 -35t99.5 -10.5z" />
    <glyph glyph-name="nine" unicode="9" horiz-adv-x="598" 
d="M293 709q63 0 113.5 -25.5t86 -72.5t54 -113.5t18.5 -148.5q0 -81 -23 -147.5t-65.5 -113.5t-102.5 -72.5t-135 -25.5q-48 0 -82.5 10t-57 27.5t-33 40t-10.5 47.5q0 24 20 41t47 17q28 0 47.5 -17t19.5 -41q0 -23 -19.5 -40t-47.5 -17q-12 0 -24 3q21 -30 56.5 -46.5
t80.5 -17.5h1q54 0 91 19.5t60.5 55.5t35.5 88t15 116q-29 -20 -65 -30t-75 -10q-59 0 -108.5 15t-85 45.5t-55.5 76.5t-20 107q0 57 22.5 100t59.5 71.5t84.5 43t96.5 14.5zM299 246q32 0 70.5 11.5t70.5 37.5q1 13 1 26.5v27.5q0 81 -5 145.5t-20.5 110.5t-44.5 71t-78 26
q-25 0 -50 -13.5t-45.5 -41t-33.5 -68.5t-13 -96q0 -41 4.5 -83t19.5 -76.5t44.5 -56t79.5 -21.5z" />
    <glyph glyph-name="colon" unicode=":" horiz-adv-x="240" 
d="M121 271q-38 0 -64.5 22.5t-26.5 54.5t26.5 53.5t64.5 21.5q36 0 62.5 -21.5t26.5 -53.5t-26.5 -54.5t-62.5 -22.5zM121 -16q-38 0 -64.5 22.5t-26.5 54.5t26.5 53.5t64.5 21.5q36 0 62.5 -21.5t26.5 -53.5t-26.5 -54.5t-62.5 -22.5z" />
    <glyph glyph-name="semicolon" unicode=";" horiz-adv-x="240" 
d="M121 271q-38 0 -64.5 22.5t-26.5 54.5t26.5 53.5t64.5 21.5q36 0 62.5 -21.5t26.5 -53.5t-26.5 -54.5t-62.5 -22.5zM121 136q16 0 32 -6.5t28.5 -19.5t20.5 -33t8 -48q0 -18 -5.5 -36.5t-16 -34.5t-26 -28t-34.5 -17l-1 4q16 5 22 17.5t6 31.5q0 9 -2.5 15.5t-10.5 4.5
q-5 -1 -10.5 -1.5t-10.5 -0.5q-38 0 -64.5 22.5t-26.5 54.5t26.5 53.5t64.5 21.5z" />
    <glyph glyph-name="less" unicode="&#x3c;" horiz-adv-x="353" 
d="M94 243l229 -103v-57l-293 131v57l293 131v-57z" />
    <glyph glyph-name="equal" unicode="=" horiz-adv-x="353" 
d="M323 283h-293v57h293v-57zM323 143h-293v57h293v-57z" />
    <glyph glyph-name="greater" unicode="&#x3e;" horiz-adv-x="353" 
d="M323 214l-293 -131v57l229 103l-229 102v57l293 -131v-57z" />
    <glyph glyph-name="question" unicode="?" horiz-adv-x="563" 
d="M252 711q61 0 112.5 -12t89 -37t58.5 -62.5t21 -87.5q0 -65 -24 -106t-59.5 -68t-77 -44.5t-77 -35t-59 -40.5t-23.5 -60h-13q0 38 17.5 66.5t43.5 53.5t56 49t56 53.5t43.5 66.5t17.5 88q0 46 -19.5 77.5t-48 51.5t-60.5 29t-56 9q-46 -1 -89 -17t-70 -42h6
q28 0 47.5 -17t19.5 -40q0 -24 -19.5 -41t-47.5 -17q-27 0 -47 17t-20 41q0 25 18 47.5t48 40t70.5 27.5t85.5 10zM203 136q37 0 63.5 -21.5t26.5 -53.5t-26.5 -54.5t-63.5 -22.5t-63.5 22.5t-26.5 54.5t26.5 53.5t63.5 21.5z" />
    <glyph glyph-name="at" unicode="@" horiz-adv-x="1062" 
d="M1032 348q0 -142 -41 -242t-109.5 -163.5t-159 -92t-189.5 -28.5q-132 0 -227 42t-156.5 111.5t-90.5 159t-29 183.5q0 97 30 184.5t89.5 153.5t148.5 105t207 39t207 -39t148.5 -105t89.5 -153.5t30 -184.5q0 -99 -22.5 -161t-56 -97t-74 -47.5t-76.5 -12.5
q-34 0 -60.5 15.5t-45.5 43t-30.5 65t-15.5 80.5q-6 -33 -18 -63.5t-29.5 -54t-40 -37.5t-49.5 -14q-89 0 -134.5 39t-45.5 114q0 47 16.5 79t44 52.5t63 32.5t74.5 20q12 3 27.5 6t31.5 9t29.5 16.5t22.5 28.5q-9 51 -38.5 83.5t-83.5 32.5q-41 0 -65.5 -12.5t-38.5 -29.5
h3q24 0 41 -14.5t17 -35.5q0 -20 -17 -35t-41 -15q-23 0 -40.5 15t-17.5 35q0 23 14 41.5t36.5 31.5t51.5 20t59 7q113 -2 166.5 -49t53.5 -138v-211q0 -18 3 -43.5t9.5 -48.5t18 -39t27.5 -16q21 0 41.5 16.5t36 52.5t25.5 94t10 140q0 92 -23 176t-68.5 149t-112 103.5
t-153.5 38.5t-153.5 -39t-112 -104.5t-68.5 -149.5t-23 -174q0 -111 22.5 -198.5t70 -148t120 -92.5t172.5 -32q99 0 186 28t152 89t102.5 156.5t37.5 231.5h21zM462 41q30 0 54.5 19.5t42.5 50t27.5 69t9.5 76.5v123q0 21 -3 40q-9 -13 -22 -22t-27 -14t-27 -8t-22 -5
q-14 -3 -34.5 -14t-39 -32t-31.5 -54t-13 -81q0 -40 8.5 -68.5t21.5 -46t27.5 -25.5t27.5 -8z" />
    <glyph glyph-name="A" unicode="A" horiz-adv-x="792" 
d="M584 228q27 -72 50 -116t44.5 -67t42 -30.5t41.5 -7.5v-7h-339v7q29 0 49 8t27.5 30t2.5 60.5t-25 99.5h-265q-22 -66 -27 -105.5t3.5 -60t26.5 -26.5t41 -6v-7h-226v7q17 0 37 7.5t42.5 31.5t47.5 68.5t52 118.5l173 467h28zM345 567l-124 -337l-6 -17h259l-5 15z" />
    <glyph glyph-name="B" unicode="B" horiz-adv-x="653" 
d="M384 380q46 0 89 -11.5t76.5 -34.5t53.5 -56t20 -77q0 -58 -25.5 -97t-70 -62t-104 -32.5t-127.5 -9.5h-266v7q10 0 23.5 5t26 19t21.5 38t9 61l1 442q0 35 -8.5 58.5t-20.5 37.5t-25.5 19.5t-23.5 5.5v7h297q58 0 105.5 -10t81 -29.5t52 -47.5t18.5 -64q0 -37 -15 -66
t-42 -50t-64.5 -34t-81.5 -19zM304 385q34 0 66 7.5t57 26t40 51.5t15 84q0 36 -16.5 62t-43 43t-59.5 25t-65 8h-74v-307h80zM296 8q32 0 68 9t66.5 31t50.5 59.5t20 93.5q0 48 -18.5 81t-47.5 54t-64 30t-69 9h-78l-2 -367h74z" />
    <glyph glyph-name="C" unicode="C" horiz-adv-x="593" 
d="M545 251q5 -13 8 -31.5t3 -47.5q0 -36 -14 -69t-40 -58t-63 -40t-83 -15q-76 0 -136.5 25.5t-102.5 72.5t-64.5 113.5t-22.5 148.5t22 148.5t64 113.5t101.5 72.5t134.5 24.5q51 -1 89 -9t63 -9q26 0 26 15h7v-198h-7v13q0 36 -13.5 68.5t-37.5 57.5t-56.5 40t-70.5 15
q-43 1 -80 -24t-64 -71t-42.5 -111.5t-15.5 -145.5q0 -81 17.5 -146t46.5 -111t66 -71t76 -25q41 0 76.5 14.5t61.5 38.5t41 56t15 66q0 24 -3.5 42.5t-8.5 32.5z" />
    <glyph glyph-name="D" unicode="D" horiz-adv-x="681" 
d="M305 700q75 0 138.5 -24t109.5 -69.5t72 -110.5t26 -147t-27.5 -147t-74.5 -110t-110 -68.5t-134 -23.5h-275v7q10 0 23.5 7t26 21.5t21.5 38t9 56.5v442q0 31 -8.5 54t-20.5 38t-25.5 22t-23.5 7v7h273zM305 8q42 0 82 23.5t71.5 67.5t50.5 107t19 143t-19 143.5
t-50.5 107.5t-71.5 68t-82 24h-81v-684h81z" />
    <glyph glyph-name="E" unicode="E" horiz-adv-x="596" 
d="M30 0v7q10 0 23.5 5.5t26 19.5t21.5 38t9 60v442q0 36 -8.5 59.5t-20.5 37t-25.5 19t-23.5 5.5v7h501v-204h-8q-6 39 -19 74.5t-38.5 62.5t-65.5 43t-100 16h-79v-318h42q18 0 40.5 7t42.5 20.5t34 33.5t14 46h8v-222h-8q0 26 -13.5 46t-34 33.5t-43.5 20.5t-41 7h-41
v-358h127q53 0 89 16t60 43t36.5 62.5t18.5 74.5h8v-204h-532z" />
    <glyph glyph-name="F" unicode="F" horiz-adv-x="596" 
d="M558 496q-6 39 -19.5 74.5t-39 62.5t-65.5 43t-99 16h-110v-318h61q18 0 40.5 7t42.5 20.5t34 33.5t14 46h8v-222h-8q0 26 -10.5 46t-28.5 33.5t-41.5 20.5t-49.5 7h-62l-1 -173q0 -60 13.5 -96.5t34 -56.5t46 -26.5t49.5 -6.5v-7h-337v7q10 0 23.5 5.5t26 19t21.5 37.5
t9 61l1 442q0 36 -8.5 59t-20.5 37t-25.5 19.5t-23.5 5.5v7h533v-204h-8z" />
    <glyph glyph-name="G" unicode="G" horiz-adv-x="723" 
d="M693 352q-10 0 -23.5 -6.5t-26 -21t-21.5 -37.5t-9 -55v-49q0 -15 3.5 -34.5t9.5 -36.5t14.5 -29t18.5 -12v-7q-28 0 -56.5 -11.5t-62.5 -25.5t-77 -25.5t-101 -11.5q-76 0 -137.5 25.5t-105 72.5t-66.5 113.5t-23 148.5t23 148.5t66 113.5t103.5 72.5t135.5 24.5
q25 0 50 -3t47.5 -6t41.5 -6t31 -3q26 0 26 15h7v-189h-7v13q0 33 -16.5 63.5t-43.5 54.5t-62.5 39t-73.5 15q-41 0 -78 -24.5t-65.5 -70.5t-45.5 -111.5t-17 -145.5q0 -81 18.5 -146t48 -111t67 -71t76.5 -25q63 2 101 33t38 91v110q0 32 -8.5 54.5t-20.5 37.5t-25.5 22
t-23.5 7v7h270v-7z" />
    <glyph glyph-name="H" unicode="H" horiz-adv-x="731" 
d="M701 693q-10 0 -23.5 -5.5t-26 -19t-21.5 -37t-9 -58.5v-442q0 -36 8.5 -60t20.5 -38t25.5 -20t23.5 -6v-7h-271v7q10 0 23.5 5.5t26 19.5t21.5 37.5t9 60.5v236h-285v-235q0 -36 8.5 -60t20.5 -38t25.5 -20t23.5 -6v-7h-271v7q10 0 23.5 5.5t26 19.5t21.5 37.5t9 60.5
v442q0 35 -8.5 58t-20.5 37t-25.5 20t-23.5 6v7h271v-7q-10 0 -23.5 -5.5t-26 -19t-21.5 -37t-9 -58.5v-199h285v198q0 35 -8.5 58t-20.5 37t-25.5 20t-23.5 6v7h271v-7z" />
    <glyph glyph-name="I" unicode="I" horiz-adv-x="333" 
d="M223 131q0 -35 8.5 -59t20.5 -38.5t25.5 -20.5t23.5 -6v-7h-271v7q10 0 23.5 5.5t26 20t21.5 38t9 59.5v442q0 36 -8.5 59t-20.5 37t-25.5 19.5t-23.5 5.5v7h271v-7q-10 0 -23.5 -5t-26 -18.5t-21.5 -37t-9 -59.5v-442z" />
    <glyph glyph-name="J" unicode="J" horiz-adv-x="574" 
d="M544 693q-10 0 -23.5 -5.5t-25.5 -19.5t-20.5 -37t-8.5 -59v-399q0 -32 -13.5 -64.5t-43 -59t-75 -43.5t-110.5 -17q-40 0 -75 9t-61.5 28t-42 48.5t-15.5 69.5q0 36 25.5 61.5t62.5 25.5q35 0 60.5 -25.5t25.5 -61.5q0 -35 -25.5 -60t-60.5 -25q-19 0 -37 8
q20 -38 55.5 -52.5t75.5 -14.5q25 0 50 9.5t45.5 27.5t33 44t12.5 59v433q0 36 -9 59.5t-21.5 37t-26 18.5t-23.5 5v7h271v-7z" />
    <glyph glyph-name="K" unicode="K" horiz-adv-x="788" 
d="M591 131q23 -37 41.5 -61t37 -38t39.5 -19.5t49 -5.5v-7h-360v7q28 0 48.5 5.5t29.5 19t4 37.5t-28 61l-162 263l-66 -76v-186q0 -36 8.5 -60t20.5 -38t25.5 -20t23.5 -6v-7h-272v7q10 0 23.5 5.5t26 19.5t21.5 37.5t9 60.5v442q0 35 -8.5 58.5t-20.5 37.5t-25.5 19.5
t-23.5 5.5v7h272v-7q-10 0 -23.5 -5t-26 -18.5t-21.5 -37t-9 -59.5v-242l207 241q29 34 40 57t8 37.5t-18 20.5t-37 6v7h229l1 -7q-40 0 -94.5 -25.5t-114.5 -94.5l-73 -85z" />
    <glyph glyph-name="L" unicode="L" horiz-adv-x="565" 
d="M30 7q10 0 23.5 5.5t26 19.5t21.5 38t9 60v442q0 36 -8.5 59.5t-20.5 37t-25.5 19t-23.5 5.5v7h272v-7q-10 0 -23.5 -5t-26 -18.5t-21.5 -36.5t-9 -60v-565h100q53 0 89 16t59.5 43t36 62.5t18.5 74.5h8v-204h-505v7z" />
    <glyph glyph-name="M" unicode="M" horiz-adv-x="914" 
d="M884 693q-10 0 -23.5 -7t-26 -21.5t-21.5 -37t-9 -54.5v-442q0 -37 8.5 -61t20.5 -38t25.5 -19.5t23.5 -5.5v-7h-272v7q10 0 23.5 5t26 18.5t21.5 37.5t9 62l2 529l-236 -659h-37l-224 572q-11 26 -28 49v-490q0 -37 9 -61t23.5 -38t33.5 -19.5t40 -5.5v-7h-230v7
q22 0 42 5t35.5 18.5t25 37.5t9.5 62v505q-23 25 -55 41.5t-70 16.5v7h238l225 -556l199 556h192v-7z" />
    <glyph glyph-name="N" unicode="N" horiz-adv-x="757" 
d="M727 693q-20 0 -39 -5t-34 -18.5t-24.5 -37t-9.5 -59.5v-573h-42l-382 572q-7 11 -14 20.5t-14 17.5v-479q0 -37 9 -61t23.5 -38t33.5 -19.5t40 -5.5v-7h-230v7q22 0 42 5t35.5 19t25 38t9.5 61v494q-33 35 -62 52t-64 17v7h214l364 -533v405q0 35 -9 58.5t-23 37.5
t-32.5 19.5t-37.5 5.5v7h221v-7z" />
    <glyph glyph-name="O" unicode="O" horiz-adv-x="743" 
d="M373 -10q-75 0 -137.5 25.5t-108.5 72.5t-71.5 113.5t-25.5 148.5t25.5 148t71.5 113t108.5 72.5t137.5 25.5q74 0 136 -25.5t107.5 -72.5t71 -113t25.5 -148t-25.5 -148.5t-71 -113.5t-107.5 -72.5t-136 -25.5zM373 -3q56 0 97 25t67.5 71t39.5 111t13 146q0 80 -13 145
t-39.5 111t-67.5 71t-97 25q-57 0 -98.5 -25t-68.5 -71t-40 -111t-13 -145q0 -81 13 -146t40 -111t68.5 -71t98.5 -25z" />
    <glyph glyph-name="P" unicode="P" horiz-adv-x="619" 
d="M225 128q0 -35 11 -58.5t27.5 -37.5t35.5 -19.5t35 -5.5v-7h-304v7q10 0 23.5 5.5t26 19t21.5 37.5t9 61l1 442q0 37 -8.5 60.5t-20.5 37t-25.5 18.5t-23.5 5v7h248q68 0 124.5 -9.5t97.5 -32.5t63.5 -61.5t22.5 -96.5q0 -52 -24 -88t-66 -58.5t-98 -33t-120 -10.5h-55z
M281 318q21 0 53 10t61.5 31.5t51 56.5t21.5 84q0 56 -21.5 93t-51 59t-61.5 31t-53 9h-55v-374h55z" />
    <glyph glyph-name="Q" unicode="Q" horiz-adv-x="743" 
d="M525 20q43 -54 90 -54.5t102 41.5l6 -7q-60 -51 -102 -70t-81 -19q-38 0 -71 14.5t-58 49.5l-5 7l-5 6h-2q-88 -1 -157 24.5t-116 73t-71.5 115t-24.5 149.5t25.5 148t71.5 113t108.5 72.5t137.5 25.5q74 0 136 -25.5t107.5 -72.5t71 -113t25.5 -148q0 -112 -48.5 -198
t-139.5 -132zM373 702q-57 0 -98.5 -25t-69 -71t-40.5 -111t-13 -145q0 -89 23 -163.5t61 -117.5q33 21 68 34t71 12q30 0 64.5 -15.5t57.5 -44.5q21 24 38.5 57t29.5 71.5t19 81t7 85.5q0 80 -13 145t-40 111t-68 71t-97 25zM239 63q40 -43 81 -55t76 -13q-35 46 -75 62.5
t-82 5.5z" />
    <glyph glyph-name="R" unicode="R" horiz-adv-x="700" 
d="M683 -7q-17 -4 -55 -4q-78 0 -126 43.5t-48 128.5v62q0 39 -18 66t-44 44t-56.5 25t-55.5 8h-54l-1 -235q0 -37 8.5 -61t20.5 -38t25.5 -19.5t23.5 -5.5v-7h-273v7q10 0 23.5 5t26 18.5t21.5 37.5t9 62l1 442q0 36 -8.5 59t-20.5 37t-25.5 19.5t-23.5 5.5v7h247
q62 0 118.5 -9t99 -28t68 -49.5t25.5 -74.5q0 -37 -20.5 -66.5t-55 -51t-78.5 -34.5t-92 -18q52 0 95 -12t73.5 -35t47 -56t16.5 -75v-62q0 -39 8.5 -64t20.5 -39.5t24.5 -20t20.5 -5.5q15 0 28 4zM280 374q28 0 60.5 10.5t60.5 31.5t46.5 52t18.5 71q0 41 -18.5 70
t-46.5 47.5t-60.5 27t-60.5 8.5h-54v-318h54z" />
    <glyph glyph-name="S" unicode="S" horiz-adv-x="594" 
d="M562 211q0 -45 -24.5 -85t-66.5 -69.5t-98.5 -46.5t-120.5 -17q-43 0 -74 3t-53.5 6t-38.5 6t-28 3q-26 0 -26 -15h-7v223h7v-13q0 -58 23 -97.5t58 -62.5t76.5 -33t79.5 -10q20 0 49 9t56 27.5t46.5 48t19.5 70.5q0 46 -30.5 75t-76.5 51t-99 41t-99 44.5t-76.5 62
t-30.5 93.5q0 43 20.5 77t57.5 58t89.5 36.5t116.5 12.5q36 0 61 -2.5t43 -6t31.5 -6.5t25.5 -3q26 0 26 15h7v-191h-7v13q0 81 -52 126.5t-152 45.5q-20 0 -45.5 -7.5t-48.5 -22t-38.5 -36t-15.5 -50.5q0 -49 30.5 -79t77 -51.5t100 -39t100 -43t77 -63t30.5 -97.5z" />
    <glyph glyph-name="T" unicode="T" horiz-adv-x="672" 
d="M634 509q-6 39 -19.5 72.5t-41.5 58t-71.5 38.5t-109.5 14l-1 -561q0 -37 8.5 -61.5t20.5 -38t25.5 -19t23.5 -5.5v-7h-271v7q10 0 23.5 5t26 18.5t21.5 37.5t9 62l1 562q-66 0 -110 -14t-71 -38.5t-40.5 -58t-19.5 -72.5h-8v191h612v-191h-8z" />
    <glyph glyph-name="U" unicode="U" horiz-adv-x="686" 
d="M656 693q-10 0 -23.5 -5t-26 -18.5t-21.5 -36.5t-9 -60v-411q0 -40 -16.5 -72t-44 -54t-64 -33.5t-76.5 -11.5q-64 0 -114 16.5t-84 42.5t-51.5 58.5t-17.5 64.5v399q0 36 -8.5 59.5t-20.5 37t-25.5 19t-23.5 5.5v7h271v-7q-10 0 -23.5 -5t-26 -18.5t-21.5 -36.5t-9 -60
v-432q0 -39 14.5 -65.5t37 -43.5t49.5 -24.5t52 -7.5q28 0 61.5 9.5t62.5 30t48.5 52t19.5 74.5v406q0 36 -8.5 59.5t-20.5 37t-25.5 19t-23.5 5.5v7h168v-7z" />
    <glyph glyph-name="V" unicode="V" horiz-adv-x="792" 
d="M762 693q-17 0 -36.5 -6t-39.5 -22.5t-39.5 -46t-36.5 -76.5l-200 -542h-28l-200 544q-16 44 -35.5 72.5t-39.5 45.5t-40 24t-37 7v7h329v-7q-49 0 -70.5 -36t6.5 -113l151 -413l152 414q17 47 18.5 75.5t-8.5 45t-29 22t-43 5.5v7h226v-7z" />
    <glyph glyph-name="W" unicode="W" horiz-adv-x="1030" 
d="M387 700v-7q-18 0 -42.5 -5t-43 -22.5t-25 -51t9.5 -90.5l114 -390l140 504l35 -1l139 -487l112 361q27 87 7.5 134.5t-92.5 47.5v7h259v-7q-17 0 -38 -7.5t-42 -25t-40 -46.5t-32 -72l-167 -542h-28l-145 480l-135 -480h-28l-168 544q-14 45 -30.5 74t-35 45.5t-39 23
t-42.5 6.5v7h357z" />
    <glyph glyph-name="X" unicode="X" horiz-adv-x="781" 
d="M597 131q26 -43 51.5 -68t46.5 -37.5t36 -15.5t20 -3v-7h-319v7q23 0 40.5 5.5t25 19.5t3 38t-26.5 60l-122 205l-123 -205q-22 -37 -27 -60.5t3 -37.5t25.5 -19.5t40.5 -5.5v-7h-241v7q17 0 40 5.5t48.5 19t51.5 38t48 61.5l127 215l-135 226q-21 36 -37 59t-32 37
t-32.5 19.5t-39.5 5.5v7h297v-7q-19 0 -34.5 -5t-22 -18.5t-2 -37t26.5 -59.5l79 -133q42 72 66 113.5t33 58.5q10 24 10 40t-8 25.5t-22 13t-31 3.5v7h246v-7q-30 0 -57.5 -6t-54.5 -22.5t-53.5 -45.5t-53.5 -75l-69 -115z" />
    <glyph glyph-name="Y" unicode="Y" horiz-adv-x="741" 
d="M711 693q-27 0 -48 -5t-39 -18.5t-35 -37t-36 -60.5l-114 -217v-224q0 -37 8.5 -61t20.5 -38t25.5 -19.5t23.5 -5.5v-7h-273v7q10 0 23.5 5t26 18.5t21.5 37.5t9 62v183l-136 259q-17 33 -33.5 56.5t-35 37.5t-40.5 20.5t-49 6.5v7h355v-7q-26 0 -45.5 -6t-29 -20.5
t-7 -37.5t20.5 -56l110 -207l110 207q20 37 22 60.5t-8.5 36.5t-31 18t-47.5 5v7h232v-7z" />
    <glyph glyph-name="Z" unicode="Z" horiz-adv-x="626" 
d="M31 0l-1 7q5 0 13.5 4.5t20.5 17.5t28 37.5t36 64.5l282 561h-90q-103 0 -157.5 -47.5t-65.5 -125.5h-8v181h472l1 -7q-16 0 -35 -25.5t-54 -95.5l-280 -564h192q88 0 140 46.5t63 124.5h8v-179h-565z" />
    <glyph glyph-name="bracketleft" unicode="[" horiz-adv-x="336" 
d="M153 782q-16 0 -16 -16l5 -882q0 -15 15 -15h214v-21h-326q-15 0 -15 15l3 922q0 15 15 15h323v-19z" />
    <glyph glyph-name="backslash" unicode="\" horiz-adv-x="399" 
d="M303 -200l-273 1000h66l273 -1000h-66z" />
    <glyph glyph-name="bracketright" unicode="]" horiz-adv-x="341" 
d="M293 800q15 0 15 -15l3 -922q0 -15 -15 -15h-326v21h215q15 0 15 15l5 882q0 16 -16 16l-219 -1v19h323z" />
    <glyph glyph-name="asciicircum" unicode="^" horiz-adv-x="368" 
d="M269 784q23 -33 43 -70.5t26 -62.5h-42q-27 24 -57.5 62t-52.5 71l-2 2l-1 -2q-22 -33 -53 -71t-58 -62h-42q6 25 26.5 62.5t42.5 70.5l12 16h147z" />
    <glyph glyph-name="underscore" unicode="_" horiz-adv-x="290" 
d="M297 -46h-307v27h307v-27z" />
    <glyph glyph-name="grave" unicode="`" horiz-adv-x="223" 
d="M124 784q23 -33 43 -70.5t26 -62.5h-42q-27 24 -57.5 62t-52.5 71l-11 16h83z" />
    <glyph glyph-name="a" unicode="a" horiz-adv-x="634" 
d="M524 130q0 -36 9 -59.5t21.5 -38t26 -20t23.5 -5.5v-7h-122q-32 0 -50 24t-21 65q-15 -57 -56.5 -79t-97.5 -22q-227 0 -227 154q0 38 20 62.5t53 41t76 27t89 19.5q14 3 33 6.5t38.5 10.5t37 18.5t28.5 30.5q-11 65 -46.5 104t-92.5 39q-50 0 -82.5 -16t-50.5 -36
q27 -1 46 -17.5t19 -39.5q0 -24 -19.5 -41t-47.5 -17q-27 0 -47 17t-20 41q0 28 18 50t47.5 37t66 23t72.5 8q63 -1 110.5 -13t80 -38.5t49 -68.5t16.5 -103v-157zM257 -5q32 0 60 7t48.5 25t32.5 48t12 76v148q0 23 -3 44q-12 -15 -28.5 -25t-33.5 -15.5t-33 -8.5t-26 -5
q-17 -4 -41.5 -14t-47 -28t-38.5 -43.5t-16 -60.5q0 -42 13.5 -70.5t32 -45.5t37.5 -24.5t31 -7.5z" />
    <glyph glyph-name="b" unicode="b" horiz-adv-x="604" 
d="M338 509q48 0 91 -17.5t75 -51.5t51 -82.5t19 -110.5q0 -63 -19 -111.5t-51 -80.5t-75 -48.5t-91 -16.5q-28 0 -58.5 11.5t-57.5 34.5v-36h-192v7q10 0 23.5 4.5t26 18t21.5 37.5t9 63v542q0 37 -8.5 60.5t-20.5 37t-25.5 18.5t-23.5 5v7h191v-339q27 24 57 36t58 12z
M338 -3q23 0 44 14t36.5 44t25 77.5t9.5 114.5q0 66 -9.5 114.5t-25 79.5t-36.5 46t-44 15q-26 0 -56.5 -14t-58.5 -43l-1 -393q28 -28 59 -41.5t57 -13.5z" />
    <glyph glyph-name="c" unicode="c" horiz-adv-x="530" 
d="M500 164q0 -39 -16.5 -71t-43.5 -55t-61.5 -35.5t-70.5 -12.5q-54 0 -104 14.5t-89 46t-62 80t-23 116.5t23 117t60.5 81.5t84.5 48t96 15.5q53 0 90.5 -10t61 -27.5t34.5 -40t11 -47.5q0 -24 -19.5 -41t-47.5 -17t-47.5 17t-19.5 41q0 23 19.5 40t47.5 17q11 0 20 -3
q-17 29 -52.5 46t-93.5 18q-78 1 -111.5 -60t-33.5 -195q0 -133 38.5 -191.5t116.5 -58.5q32 0 65 11.5t59 32.5t43 51.5t18 69.5z" />
    <glyph glyph-name="d" unicode="d" horiz-adv-x="623" 
d="M513 130q0 -38 9 -62t21.5 -37.5t26 -18.5t23.5 -5v-7h-192v36q-29 -23 -60.5 -34.5t-58.5 -11.5q-49 0 -94.5 14.5t-80.5 46t-56 80t-21 116.5t21 117t56 81.5t80.5 48t94.5 15.5q27 0 58 -12t60 -36v134v76q0 36 -8.5 59t-20.5 37t-25.5 19.5t-23.5 5.5v7h191v-669z
M282 -4q25 0 57.5 13.5t61.5 41.5l-1 395q-29 29 -61 42.5t-57 13.5q-23 0 -46.5 -15t-42 -46.5t-30.5 -79.5t-12 -114q0 -67 12 -114.5t30.5 -78t42 -44.5t46.5 -14z" />
    <glyph glyph-name="e" unicode="e" 
d="M330 -3q23 0 59 10t70 32.5t58.5 58.5t24.5 88h6q0 -53 -23.5 -90.5t-57 -61t-71 -34t-66.5 -10.5q-58 0 -112.5 14.5t-96 46t-66.5 80t-25 116.5t24.5 117t62.5 81.5t84 48t90 15.5q48 0 95 -16t84 -48t60.5 -81.5t23.5 -116.5h-400q0 -67 14.5 -114.5t39 -77.5
t56.5 -44t66 -14zM291 502q-23 0 -47 -14.5t-44 -45t-32.5 -77t-13.5 -111.5h278q-1 65 -14.5 111.5t-34 77t-45 45t-47.5 14.5z" />
    <glyph glyph-name="f" unicode="f" horiz-adv-x="500" 
d="M305 811q50 0 82 -11.5t50.5 -29.5t25.5 -38t7 -37q0 -24 -20 -41t-47 -17q-28 0 -47.5 17t-19.5 41q0 23 19.5 40t47.5 17q33 0 53 -23q-11 24 -37.5 42.5t-71.5 18.5q-35 0 -59 -14t-39 -39.5t-21.5 -59.5t-6.5 -75v-102h135v-7h-135v-362q0 -32 8.5 -55.5t20.5 -38.5
t25.5 -22.5t23.5 -7.5h66v-7h-335v7q10 0 23.5 7t26 21.5t21.5 38t9 56.5v363h-50v7h50v90q0 61 14.5 103t40.5 68t62 38t78 12z" />
    <glyph glyph-name="g" unicode="g" horiz-adv-x="613" 
d="M84 145q0 -36 38 -52t95 -23t123 -10.5t123 -14.5t95 -35.5t38 -72.5q0 -39 -24 -66.5t-65 -45t-94 -25t-112 -7.5q-63 0 -112.5 12.5t-83 33.5t-50.5 48t-17 56q0 21 12 45t35 42q-25 14 -40 34.5t-15 50.5q0 20 15 45t45 43q-26 21 -41 50.5t-15 69.5q0 50 24 85
t61 57.5t83 33t89 10.5q1 45 22.5 78.5t53.5 55t69 30t68.5 3.5t53 -24t21.5 -53q0 -24 -19.5 -41t-47.5 -17t-47.5 17t-19.5 41q0 20 14 35t35 20q-27 6 -60.5 0.5t-62.5 -23t-49 -48t-21 -74.5q43 -1 88.5 -11.5t83 -32.5t61.5 -57t24 -85q0 -51 -25 -85t-63.5 -55
t-85 -29.5t-89.5 -8.5q-51 0 -103.5 11.5t-91.5 39.5q-16 -21 -16 -51zM295 502q-66 0 -101 -39.5t-35 -139.5q0 -50 9 -83t26 -52.5t42.5 -27.5t58.5 -8q34 0 60 8t44 27.5t27.5 52.5t9.5 83q0 100 -36.5 139.5t-104.5 39.5zM318 -197q20 0 47 4.5t52 14.5t42 27t17 41
q0 26 -19.5 42t-51.5 26.5t-72.5 16.5t-83 12t-82.5 14.5t-71 23.5q-23 -19 -35.5 -41t-12.5 -39q0 -36 21.5 -62.5t58.5 -44t86.5 -26.5t103.5 -9z" />
    <glyph glyph-name="h" unicode="h" horiz-adv-x="723" 
d="M615 131q0 -37 8.5 -61t20.5 -38t25.5 -19.5t23.5 -5.5v-7h-273v7q10 0 23.5 5t26 19t21.5 38t9 61v209q0 32 -8.5 59.5t-24.5 48t-38.5 32t-51.5 11.5q-49 0 -84 -26.5t-60 -64.5v-268q0 -37 8.5 -61t20.5 -38t25.5 -19.5t23.5 -5.5v-7h-271v7q10 0 23.5 5t26 19
t21.5 38t9 61v542q0 37 -8.5 60.5t-20.5 37t-25.5 18.5t-23.5 5v7h191v-383q28 38 71 66t108 28q97 -1 150 -43.5t53 -127.5v-209z" />
    <glyph glyph-name="i" unicode="i" horiz-adv-x="334" 
d="M161 621q-37 0 -63.5 22.5t-26.5 54.5t26.5 53.5t63.5 21.5t63.5 -21.5t26.5 -53.5t-26.5 -54.5t-63.5 -22.5zM226 131q0 -37 8.5 -61t20.5 -38t25.5 -19.5t23.5 -5.5v-7h-274v7q10 0 23.5 5t26 19t21.5 38t9 61v242q0 36 -8.5 59t-20.5 37t-25.5 19.5t-23.5 5.5v7h194
v-369z" />
    <glyph glyph-name="j" unicode="j" horiz-adv-x="314" 
d="M169 773q36 0 62.5 -21.5t26.5 -53.5t-26.5 -54.5t-62.5 -22.5q-38 0 -64.5 22.5t-26.5 54.5t26.5 53.5t64.5 21.5zM234 500v-526q0 -84 -43 -135t-141 -52q-50 0 -82 11.5t-50.5 29.5t-25.5 38t-7 37q0 23 19.5 39.5t47.5 16.5q27 0 47.5 -16.5t20.5 -39.5
q0 -24 -20.5 -41.5t-47.5 -17.5q-36 0 -55 26q9 -25 33 -43.5t69 -18.5q39 0 62.5 16t35.5 39.5t15.5 50t3.5 48.5v410q0 37 -8.5 60.5t-20.5 37t-25.5 18.5t-23.5 5v7h196z" />
    <glyph glyph-name="k" unicode="k" horiz-adv-x="676" 
d="M519 117q21 -35 40.5 -56.5t36 -33.5t30.5 -16t25 -4v-7h-266v7q11 0 20.5 3t14 12t2 24t-15.5 39l-112 207l-71 -80v-81q0 -36 8.5 -60t20.5 -38.5t25.5 -20t23.5 -5.5v-7h-271v7q10 0 23.5 5.5t26 19t21.5 37.5t9 61v542q0 35 -8.5 58t-20.5 37t-25.5 20t-23.5 6v7h191
v-574l150 175q35 41 24 66.5t-56 25.5v7h229l1 -7q-20 0 -44.5 -6t-49.5 -17.5t-48.5 -28.5t-41.5 -39l-24 -30z" />
    <glyph glyph-name="l" unicode="l" horiz-adv-x="330" 
d="M222 131q0 -37 8.5 -61t20.5 -38t25.5 -19.5t23.5 -5.5v-7h-270v7q10 0 23.5 5t26 18.5t21.5 37.5t9 62v542q0 37 -8.5 60.5t-20.5 37t-25.5 18.5t-23.5 5v7h190v-669z" />
    <glyph glyph-name="m" unicode="m" horiz-adv-x="1015" 
d="M907 131q0 -36 8.5 -59.5t20.5 -38t25.5 -20.5t23.5 -6v-7h-273v7q10 0 23.5 5.5t26 19.5t21.5 38t9 60v222q0 22 -5.5 46t-18 44.5t-32 34t-48.5 13.5q-41 0 -72.5 -22.5t-55.5 -56.5q13 -29 13 -71v-209q0 -36 8.5 -59.5t20.5 -38t25.5 -20.5t23.5 -6v-7h-277v7
q10 0 23.5 5.5t26 19.5t21.5 38t9 60v222q0 22 -5.5 46t-18 44.5t-32 34t-48.5 13.5q-40 0 -71.5 -22t-56.5 -55v-282q0 -36 8.5 -59.5t20.5 -38t25.5 -20.5t23.5 -6v-7h-270v7q10 0 23.5 5.5t26 19.5t21.5 38t9 60v242q0 36 -8.5 59.5t-20.5 37t-25.5 19t-23.5 5.5v7h190
v-73q29 36 69 60.5t94 23.5q60 -1 104.5 -23t66.5 -67q28 38 69 64.5t98 25.5q40 0 74 -11t58.5 -32.5t38 -53.5t13.5 -74v-209z" />
    <glyph glyph-name="n" unicode="n" horiz-adv-x="701" 
d="M593 131q0 -32 8.5 -55.5t20.5 -38.5t25.5 -22.5t23.5 -7.5v-7h-270v7q10 0 23.5 7t26 21.5t21.5 38t9 56.5v208q0 67 -30 109.5t-87 42.5q-45 0 -80 -23t-62 -58v-278q0 -32 8.5 -55.5t20.5 -38.5t25.5 -22.5t23.5 -7.5v-7h-270v7q10 0 23.5 7t26 21.5t21.5 38t9 56.5
v242q0 31 -8.5 54t-20.5 38t-25.5 22t-23.5 7v7h190v-78q31 37 74 63t103 26q89 -1 141.5 -45.5t52.5 -139.5v-195z" />
    <glyph glyph-name="o" unicode="o" 
d="M291 -10q-46 0 -92.5 14.5t-84 46t-61 80t-23.5 116.5t23.5 117t61 81.5t84 48t92.5 15.5q45 0 91.5 -15.5t85 -48t62.5 -81.5t24 -117t-24 -116.5t-62.5 -80t-85 -46t-91.5 -14.5zM291 -3q68 0 104.5 58.5t36.5 191.5q0 134 -36.5 194.5t-104.5 60.5t-103 -60.5
t-35 -194.5q0 -133 35.5 -191.5t102.5 -58.5z" />
    <glyph glyph-name="p" unicode="p" horiz-adv-x="596" 
d="M330 509q48 0 90.5 -17.5t75 -51.5t51.5 -82.5t19 -110.5q0 -63 -19 -111.5t-51.5 -80.5t-75 -48.5t-90.5 -16.5q-26 0 -53 9.5t-53 29.5v-98q0 -36 8.5 -60t20.5 -38t25.5 -20t23.5 -6v-7h-272v7q10 0 23.5 5.5t26 19.5t21.5 37.5t9 60.5v442q0 36 -8.5 59.5t-20.5 37
t-25.5 19t-23.5 5.5v7h192v-32q26 20 53 30.5t53 10.5zM330 -3q23 0 43.5 14t36 44t25 77.5t9.5 114.5q0 66 -9.5 114.5t-25 79.5t-36 46t-43.5 15q-24 0 -52 -12t-54 -37v-409q26 -24 54 -35.5t52 -11.5z" />
    <glyph glyph-name="q" unicode="q" horiz-adv-x="626" 
d="M516 -70q0 -37 9 -60.5t21.5 -37.5t26 -19.5t23.5 -5.5v-7h-271v7q10 0 23.5 6t25.5 20t20.5 38t8.5 60v108q-29 -25 -60.5 -37t-60.5 -12q-49 0 -94.5 14.5t-80.5 46t-56 80t-21 116.5t21 117t56 81.5t80.5 48t94.5 15.5q29 0 60.5 -13t60.5 -39v43h191v-7
q-10 0 -23.5 -5.5t-25.5 -19.5t-20.5 -37.5t-8.5 -58.5v-442zM282 -4q26 0 59 14.5t62 44.5v387q-29 30 -62 45t-59 15q-23 0 -46.5 -15t-42 -46.5t-30.5 -79.5t-12 -114q0 -67 12 -114.5t30.5 -78t42 -44.5t46.5 -14z" />
    <glyph glyph-name="r" unicode="r" horiz-adv-x="556" 
d="M389 511q58 -1 97.5 -29t39.5 -80q0 -32 -26.5 -54.5t-62.5 -22.5q-38 0 -64.5 22.5t-26.5 54.5q0 26 19.5 46t48.5 27q-22 15 -59 15q-35 0 -68.5 -25.5t-62.5 -66.5v-267q0 -36 8.5 -60t20.5 -38t25.5 -20t23.5 -6h30v-7h-302v7q10 0 23.5 5.5t26 19.5t21.5 37.5
t9 60.5v242q0 35 -8.5 58t-20.5 37t-25.5 20t-23.5 6v7h192v-76q32 39 73 63.5t92 23.5z" />
    <glyph glyph-name="s" unicode="s" horiz-adv-x="532" 
d="M502 153q0 -40 -21.5 -70t-59 -50t-88 -30t-108.5 -9q-39 0 -64.5 2.5t-43 6l-30 6t-24.5 2.5q-26 0 -26 -15h-7v184h7v-13q0 -46 18.5 -77t48 -50.5t66 -28t72.5 -8.5q23 0 48.5 5t48 17t37 33t14.5 52q0 34 -26.5 53t-66 32t-86 24.5t-86 29.5t-66 47t-26.5 77
q0 27 13 52t42 45t76 32t115 12q35 0 59 -2.5t41.5 -6t31 -6.5t25.5 -3q26 0 26 15h7v-176h-7v13q0 32 -13 60t-37.5 50t-60.5 34.5t-81 12.5q-24 0 -46 -6t-39.5 -17.5t-28 -28.5t-10.5 -39q0 -38 26.5 -57.5t66 -31t85.5 -19.5t85.5 -24.5t66 -46t26.5 -82.5z" />
    <glyph glyph-name="t" unicode="t" horiz-adv-x="412" 
d="M382 34q-17 -20 -49 -31t-82 -11q-34 0 -65 11t-55 32.5t-38 53.5t-14 74v330h-49v7h49v172l134 66v-7q-7 -4 -11 -10t-6 -17.5t-2.5 -31t-0.5 -50.5v-122h115v-7h-115v-342q0 -62 27 -100t79 -38q17 0 38.5 7.5t35.5 21.5z" />
    <glyph glyph-name="u" unicode="u" horiz-adv-x="688" 
d="M580 128q0 -34 8.5 -57.5t20.5 -37.5t25.5 -20t23.5 -6v-7h-190v68q-26 -34 -64.5 -56.5t-92.5 -22.5q-44 0 -81.5 11t-64.5 32.5t-42 53.5t-15 74v209q0 36 -8.5 60t-20.5 38.5t-25.5 20t-23.5 5.5v7h190l1 -352q0 -29 8.5 -54t24 -44t37 -29.5t46.5 -10.5
q45 0 76.5 20.5t54.5 52.5v286q0 36 -8.5 60t-20.5 38.5t-25.5 20t-23.5 5.5v7h190v-372z" />
    <glyph glyph-name="v" unicode="v" horiz-adv-x="671" 
d="M641 493q-11 0 -26.5 -6.5t-33.5 -23.5t-37.5 -46t-39.5 -75l-149 -342h-28l-167 344q-22 46 -42 75t-36.5 45.5t-29.5 22.5t-22 6v7h283v-7q-17 0 -31 -9.5t-20 -28t-1.5 -46.5t23.5 -65l114 -214l94 215q20 45 22 74t-7 45.5t-26 22.5t-35 6v7h195v-7z" />
    <glyph glyph-name="w" unicode="w" horiz-adv-x="986" 
d="M956 493q-11 0 -26.5 -6t-33 -23t-37.5 -46t-40 -76l-149 -342h-28l-142 329l-145 -329h-28l-167 344q-22 45 -41.5 74t-36 45.5t-30 23t-22.5 6.5v7h281v-7q-17 0 -31.5 -8.5t-21 -26.5t-2 -46t25.5 -68l115 -215l142 320h22l150 -323l96 219q20 46 22 75t-7 45t-26 22
t-35 6v7h195v-7z" />
    <glyph glyph-name="x" unicode="x" horiz-adv-x="686" 
d="M482 131q24 -37 50 -61t50 -38t43.5 -19.5t29.5 -5.5v-7h-295v7q10 0 20 5t13.5 19t-3 38t-30.5 61l-42 65l-41 -65q-23 -36 -29 -60t1 -38t25 -19.5t42 -5.5v-7h-286v7q68 0 129 26.5t107 97.5l47 73l-108 168q-44 69 -80.5 95t-68.5 26v7h273v-7q-10 0 -19.5 -5.5
t-13 -19.5t3 -37t28.5 -58l50 -79l50 79q23 35 28.5 58.5t-1.5 37t-24.5 19t-41.5 5.5v7h252v-7q-60 0 -108.5 -26t-92.5 -95l-56 -87z" />
    <glyph glyph-name="y" unicode="y" horiz-adv-x="676" 
d="M646 493q-11 0 -26.5 -6t-33 -23t-37.5 -46t-40 -76l-170 -390q-15 -34 -35.5 -56t-44.5 -35t-50.5 -18.5t-53.5 -5.5q-28 0 -47.5 17t-19.5 41q0 23 19.5 40t47.5 17t47.5 -17t19.5 -40q0 -14 -6 -24q30 2 59.5 18t50.5 65l13 32l-174 358q-22 46 -42 75t-36.5 45.5
t-29.5 22.5t-22 6v7h284v-7q-17 0 -31 -9t-20 -27.5t-2 -46.5t24 -66l112 -215l95 216q20 46 22 75t-7 45t-26 22t-35 6v7h195v-7z" />
    <glyph glyph-name="z" unicode="z" horiz-adv-x="515" 
d="M31 0l-1 7q5 0 12 4.5t17 18t25 38t37 63.5l200 361h-131q-31 0 -53.5 -4.5t-39 -17.5t-26.5 -37t-16 -63h-8v130h422l1 -7q-16 0 -34.5 -27t-54.5 -94l-197 -364h135q38 0 65 3.5t46 15t30 34.5t17 62h8v-123h-454z" />
    <glyph glyph-name="braceleft" unicode="{" horiz-adv-x="387" 
d="M230 227q-47 -28 -67.5 -74t-19.5 -89q2 -97 70 -146t191 -49h13v-21h-78q-80 0 -138 18t-96 49.5t-56.5 74.5t-18.5 92q0 18 7 43.5t23 50t40.5 44.5t58.5 28l-96 63v39l97 66q-38 14 -63 37.5t-39.5 49.5t-20 53t-5.5 48q0 41 18 77t50 62.5t78.5 41.5t103.5 15h135
v-19h-7q-140 0 -204.5 -45t-64.5 -128q0 -42 19 -87t69 -79v-48l-69 -52v-31l70 -46v-38z" />
    <glyph glyph-name="bar" unicode="|" horiz-adv-x="187" 
d="M123 -200h-59v1015h59v-1015z" />
    <glyph glyph-name="braceright" unicode="}" horiz-adv-x="387" 
d="M227 311v31l-69 52v48q50 34 69 79t19 87q0 83 -64.5 128t-204.5 45h-7v19h135q57 0 103.5 -15t78.5 -41.5t50 -62.5t18 -77q0 -21 -5.5 -48t-20 -53t-39.5 -49.5t-63 -37.5l97 -66v-39l-96 -63q35 -8 59 -28t40 -44.5t23 -50t7 -43.5q0 -49 -18.5 -92t-56.5 -74.5
t-96 -49.5t-138 -18h-78v21h13q123 0 191 49t70 146q1 43 -19.5 89t-67.5 74v38z" />
    <glyph glyph-name="asciitilde" unicode="~" horiz-adv-x="391" 
d="M30 212q0 47 24.5 64t55.5 18q24 0 46.5 -6t42.5 -13.5t37.5 -13.5t32.5 -6q11 0 23 4.5t12 15.5v17h57v-22q0 -22 -6.5 -36.5t-16.5 -23.5t-23 -13t-26 -4q-22 0 -44 7.5t-43.5 16.5t-41 16.5t-36.5 7.5q-13 0 -25 -6.5t-12 -23.5v-17h-57v18z" />
    <glyph glyph-name="exclamdown" unicode="&#xa1;" horiz-adv-x="240" 
d="M121 513q36 0 62.5 -22.5t26.5 -54.5q0 -31 -26.5 -53t-62.5 -22q-38 0 -64.5 22t-26.5 53q0 32 26.5 54.5t64.5 22.5zM116 314q0 2 5 1t8 -1q0 -27 11 -81.5t24.5 -117t24.5 -123t11 -100.5q0 -48 -23.5 -77.5t-55.5 -29.5q-34 0 -57.5 29.5t-23.5 77.5q0 41 12 101.5
t26 123t26 116.5t12 81z" />
    <glyph glyph-name="cent" unicode="&#xa2;" horiz-adv-x="530" 
d="M500 164q0 -39 -16.5 -71t-43.5 -55t-61.5 -35.5t-70.5 -12.5h-6v-93h-13v93q-51 3 -98 19t-83 47.5t-57 78.5t-21 112q0 67 22.5 116t59 81t83 48t94.5 17v107h13v-107q51 -1 86.5 -11t58.5 -27.5t33.5 -39.5t10.5 -47q0 -24 -19.5 -41t-47.5 -17t-47.5 17t-19.5 41
q0 23 19.5 40t47.5 17q11 0 20 -3q-17 28 -51 45t-91 19v-505h6q32 0 65 11.5t59 32.5t43 51.5t18 69.5zM153 247q0 -126 33.5 -184.5t102.5 -64.5v504q-73 -3 -104.5 -64t-31.5 -191z" />
    <glyph glyph-name="sterling" unicode="&#xa3;" horiz-adv-x="616" 
d="M522 -30h-7q-3 9 -9 14.5t-18.5 9t-33.5 5t-53 1.5h-360l1 15q57 36 83 69t31 66t-8 66t-34 69q-16 26 -30 50.5t-24.5 50t-17 53.5t-6.5 61q0 27 10.5 63.5t40.5 69.5t83.5 56t138.5 23q70 0 117.5 -10.5t77 -28.5t42.5 -41t13 -48q0 -27 -22.5 -46.5t-53.5 -19.5
q-32 0 -54 19.5t-22 46.5q0 26 22 45t54 19q-18 23 -59 37.5t-92 14.5q-64 0 -103 -19.5t-60.5 -47t-29 -56.5t-7.5 -47q-1 -35 13.5 -77.5t30.5 -78.5h123q18 0 39.5 7t40 20.5t29.5 33.5t7 46h8l32 -222h-8q-4 26 -17.5 46t-33 33.5t-44 20.5t-50.5 7h-123q8 -18 14 -32.5
t9 -23.5q10 -34 8.5 -65t-10.5 -59.5t-24.5 -54t-33.5 -46.5l287 3q33 0 57 2.5t41.5 11t30 25.5t21.5 47h7z" />
    <glyph glyph-name="currency" unicode="&#xa4;" 
d="M554 247q0 -54 -16 -96t-42 -73l72 -71l-9 -9l-72 71q-39 -41 -92 -60t-104 -19q-46 0 -92.5 14.5t-84.5 46.5l-54 -53l-9 9l53 53q-33 31 -53.5 77.5t-20.5 109.5q0 67 23 115.5t59 80.5l-61 63l9 9l62 -63q37 29 81 43t88 14q48 0 98 -18t89 -55l81 79l9 -9l-81 -79
q30 -32 48.5 -76.5t18.5 -103.5zM291 -3q67 0 103.5 58.5t36.5 191.5q0 134 -36.5 194.5t-103.5 60.5q-69 0 -104 -60.5t-35 -194.5q0 -133 35.5 -191.5t103.5 -58.5z" />
    <glyph glyph-name="yen" unicode="&#xa5;" horiz-adv-x="741" 
d="M711 693q-27 0 -48 -5t-39 -18.5t-35 -37t-36 -60.5l-114 -217v-56h66v-12h-66v-56h66v-12h-66v-88q0 -37 8.5 -61t20.5 -38t25.5 -19.5t23.5 -5.5v-7h-273v7q10 0 23.5 5t26 18.5t21.5 37.5t9 62v89h-64v12h64v56h-64v12h64v14l-136 259q-17 33 -33.5 56.5t-35 37.5
t-40.5 20.5t-49 6.5v7h355v-7q-26 0 -45.5 -6t-29 -20.5t-7 -37.5t20.5 -56l110 -207l110 207q20 37 22 60.5t-8.5 36.5t-31 18t-47.5 5v7h232v-7z" />
    <glyph glyph-name="brokenbar" unicode="&#xa6;" horiz-adv-x="187" 
d="M124 815v-430h-61v430h61zM63 -200v471l61 1v-472h-61z" />
    <glyph glyph-name="section" unicode="&#xa7;" horiz-adv-x="583" 
d="M553 448q0 -32 -13 -57.5t-36 -45t-54.5 -32.5t-69.5 -21q25 -8 47.5 -19t39 -27t26 -38.5t9.5 -54.5q0 -40 -21.5 -70t-59 -50t-88 -30t-108.5 -9q-39 0 -64.5 2.5t-43 6l-30 6t-24.5 2.5q-26 0 -26 -15h-7v184h7v-13q0 -46 18.5 -77t48 -50.5t66 -28t72.5 -8.5
q23 0 48.5 5t48 17t37 33t14.5 52q0 34 -26.5 53t-66 32.5t-86 25.5t-86 31t-66 49.5t-26.5 81.5q0 24 10.5 46.5t35 41.5t64 32t96.5 19q-30 9 -58 20.5t-49.5 28.5t-34.5 40.5t-13 56.5q0 27 13 52t42 45t76 32t115 12q35 0 59 -2.5t41.5 -6t31 -6.5t25.5 -3q26 0 26 15h7
v-176h-7v13q0 32 -13 60t-37.5 50t-60.5 34.5t-81 12.5q-32 0 -55.5 -8.5t-38.5 -22t-22.5 -29.5t-7.5 -31q0 -38 26.5 -57.5t66 -31t85.5 -19.5t85.5 -24.5t66 -46t26.5 -82.5zM351 301q35 9 62.5 33t27.5 71q0 25 -15 41.5t-39 28.5t-55 20.5t-64 17.5q-59 -8 -90.5 -35
t-31.5 -54q0 -34 18.5 -54t47.5 -32t66 -20t73 -17z" />
    <glyph glyph-name="dieresis" unicode="&#xa8;" horiz-adv-x="253" 
d="M92 700h-62v64h62v-64zM223 700h-62v64h62v-64z" />
    <glyph glyph-name="copyright" unicode="&#xa9;" horiz-adv-x="773" 
d="M387 -17q-74 0 -139 29t-113.5 78.5t-76.5 116.5t-28 143t28 143t76.5 116.5t113.5 78.5t139 29t138.5 -29t113 -78.5t76.5 -116.5t28 -143t-28 -143t-76.5 -116.5t-113 -78.5t-138.5 -29zM387 17q67 0 125.5 26t102.5 71.5t69.5 106t25.5 129.5t-25.5 129.5t-69.5 106
t-102.5 71.5t-125.5 26t-126 -26t-103 -71.5t-69.5 -106t-25.5 -129.5t25.5 -129.5t69.5 -106t103 -71.5t126 -26zM520 294q3 -8 4.5 -18t1.5 -27q0 -20 -8 -38.5t-22.5 -32.5t-35 -22.5t-46.5 -8.5q-88 0 -136 54.5t-48 148.5q0 46 12.5 83.5t35.5 64t57 41t76 13.5
q29 0 50.5 -4.5t35.5 -5.5q15 0 15 9h4v-112h-4v7q0 20 -8 38.5t-21.5 32.5t-32 22.5t-39.5 8.5q-24 0 -45 -13.5t-36 -39.5t-24 -63t-9 -82q0 -46 10 -82.5t26.5 -62.5t37.5 -40t43 -14q23 0 43 8t34.5 21.5t23 31.5t8.5 37q0 14 -2 24.5t-5 18.5z" />
    <glyph glyph-name="ordfeminine" unicode="&#xaa;" horiz-adv-x="452" 
d="M368 541q0 -25 6 -41t14.5 -25.5t18 -13.5t15.5 -4v-5h-83q-22 0 -34.5 17t-14.5 45q-10 -39 -38.5 -54.5t-66.5 -15.5q-155 0 -155 105q0 26 13.5 42.5t36 27.5t52 18.5t61.5 13.5q9 2 22 4.5t26.5 7t25.5 13t20 21.5q-8 44 -32.5 70.5t-63.5 26.5q-35 0 -57 -11
t-34 -25q19 0 32 -11t13 -27q0 -17 -13 -28.5t-33 -11.5q-19 0 -32.5 11.5t-13.5 28.5q0 19 12.5 34t32.5 25.5t44.5 15.5t49.5 5q86 -1 131 -35t45 -117v-107zM185 449q22 0 41 5t33.5 17t22.5 32.5t8 51.5v101q0 8 -0.5 15.5t-1.5 15.5q-8 -11 -19 -17.5t-23 -10.5t-23 -6
t-18 -4q-12 -3 -28.5 -9.5t-32 -18.5t-26 -29.5t-10.5 -41.5q0 -29 9 -48.5t21.5 -31t25.5 -16.5t21 -5z" />
    <glyph glyph-name="guillemotleft" unicode="&#xab;" horiz-adv-x="416" 
d="M117 302q-15 -19 -22.5 -33.5t-7 -28t8 -28t22.5 -33.5l106 -134v-82l-1 -1l-134 160q-30 36 -44.5 64t-14.5 55t15.5 56t45.5 65l132 158l1 -1v-85zM279 302q-15 -19 -22.5 -33.5t-7 -28t8 -28t22.5 -33.5l106 -134v-82l-1 -1l-134 160q-30 36 -44.5 64t-14.5 55
t15.5 56t45.5 65l132 158l1 -1v-85z" />
    <glyph glyph-name="logicalnot" unicode="&#xac;" horiz-adv-x="353" 
d="M323 117h-57v97h-236v57h293v-154z" />
    <glyph glyph-name="softhyphen" unicode="&#xad;" horiz-adv-x="298" 
d="M268 421h-238v32h238v-32z" />
    <glyph glyph-name="registered" unicode="&#xae;" horiz-adv-x="773" 
d="M387 -17q-74 0 -139 29t-113.5 78.5t-76.5 116.5t-28 143t28 143t76.5 116.5t113.5 78.5t139 29t138.5 -29t113 -78.5t76.5 -116.5t28 -143t-28 -143t-76.5 -116.5t-113 -78.5t-138.5 -29zM387 17q67 0 125.5 26t102.5 71.5t69.5 106t25.5 129.5t-25.5 129.5t-69.5 106
t-102.5 71.5t-125.5 26t-126 -26t-103 -71.5t-69.5 -106t-25.5 -129.5t25.5 -129.5t69.5 -106t103 -71.5t126 -26zM578 146q-5 -2 -12.5 -2h-18.5q-44 0 -71 24.5t-27 72.5v35q0 22 -10 37.5t-25 25t-32 14t-31 4.5h-31v-133q0 -21 5 -34.5t11.5 -21.5t14 -11t13.5 -3v-4
h-154v4q6 0 13.5 3t14.5 10.5t12 21t5 34.5l1 250q0 20 -5 33.5t-11.5 21t-14 10.5t-13.5 3v4h139q35 0 66.5 -5t55.5 -16t38.5 -28t14.5 -42q0 -21 -11.5 -37.5t-31 -28.5t-44 -19.5t-51.5 -10.5q59 0 95 -26t36 -74v-35q0 -22 4.5 -36t11 -22t13.5 -11.5t12 -3.5
q3 0 7 0.5t9 1.5zM351 361q16 0 34.5 6t34 17.5t26 29t10.5 40.5t-10.5 39.5t-26 27t-34 15.5t-34.5 5h-31v-180h31z" />
    <glyph glyph-name="macron" unicode="&#xaf;" horiz-adv-x="236" 
d="M206 700h-176v64h176v-64z" />
    <glyph glyph-name="degree" unicode="&#xb0;" horiz-adv-x="305" 
d="M152 557q-21 0 -43 7t-39.5 21.5t-28.5 37.5t-11 54q0 32 11 55t28.5 38t39.5 22.5t43 7.5t43 -7.5t39.5 -22.5t29 -38t11.5 -55q0 -31 -11.5 -54t-29 -37.5t-39.5 -21.5t-43 -7zM152 561q32 0 49 27t17 89q0 63 -17 91t-49 28t-48.5 -28t-16.5 -91q0 -62 16.5 -89
t48.5 -27z" />
    <glyph glyph-name="plusminus" unicode="&#xb1;" horiz-adv-x="353" 
d="M323 240h-118v-91h-57v91h-118v57h118v92h57v-92h118v-57zM323 101v-57h-293v57h293z" />
    <glyph glyph-name="twosuperior" unicode="&#xb2;" horiz-adv-x="274" 
d="M177 603q29 1 42.5 6.5t20.5 34.5h4l-9 -69h-205q0 27 9.5 46.5t25 33t34.5 22.5t37 15q26 9 43 22.5t17 36.5q0 26 -18 39.5t-38 13.5q-51 -2 -74 -26h5q13 0 21.5 -7.5t8.5 -18.5t-8.5 -18.5t-21.5 -7.5t-22 7.5t-9 18.5q0 23 23.5 39.5t76.5 16.5q56 0 80 -22.5
t24 -54.5q0 -30 -20.5 -48t-50.5 -24q-14 -3 -33.5 -5.5t-39 -8t-36.5 -15.5t-25 -27h138z" />
    <glyph glyph-name="threesuperior" unicode="&#xb3;" horiz-adv-x="266" 
d="M168 698q30 -1 49 -17t19 -40q0 -38 -31.5 -56t-88.5 -18h-5q-11 0 -25 3t-26.5 10t-21 19t-8.5 30q0 4 0.5 7.5t1.5 8.5l3 -1q-1 -5 -1.5 -8.5t-0.5 -7.5q0 -18 9 -29t21 -17.5t25.5 -8.5t22.5 -2h9q11 0 23.5 3t23 10.5t17.5 20.5t7 33q0 27 -24 41.5t-55 14.5h-7v5h8
q30 0 46.5 13.5t16.5 35.5q0 28 -17 39t-42 11h-5q-20 -1 -37.5 -8.5t-24.5 -24.5q6 2 9 2q11 0 18 -6.5t7 -15.5t-7 -15.5t-18 -6.5q-10 0 -17.5 6.5t-7.5 15.5q0 23 21.5 40t56.5 17h5q56 0 78.5 -17.5t22.5 -37.5q0 -14 -11 -29t-39 -20z" />
    <glyph glyph-name="acute" unicode="&#xb4;" horiz-adv-x="223" 
d="M183 784q-22 -33 -53 -71t-58 -62h-42q6 25 26.5 62.5t42.5 70.5l12 16h82z" />
    <glyph glyph-name="paragraph" unicode="&#xb6;" horiz-adv-x="921" 
d="M811 130q0 -36 9 -59.5t21.5 -38t26 -20t23.5 -5.5v-7h-575v7q16 0 35 5.5t35.5 19.5t27.5 37.5t11 58.5l-1 182h-55q-64 0 -120 10.5t-98 33t-66 58.5t-24 88q0 58 22.5 96.5t63.5 61.5t97.5 32.5t124.5 9.5h520v-7q-10 0 -23.5 -5.5t-25.5 -19.5t-20.5 -37t-8.5 -59
v-442zM698 573q0 36 -9 59.5t-21.5 37t-26.5 18.5t-24 5t-23.5 -5t-25.5 -18.5t-20.5 -37t-8.5 -60.5l1 -442q0 -37 9 -61t21.5 -37.5t26 -19t23.5 -5.5t23.5 6t25.5 20.5t20.5 38.5t8.5 59v442zM369 692q-21 0 -53 -9t-61.5 -31t-51 -59t-21.5 -93q0 -49 21.5 -84t51 -56.5
t61.5 -31.5t53 -10h55v374h-55z" />
    <glyph glyph-name="periodcentered" unicode="&#xb7;" horiz-adv-x="240" 
d="M121 271q-38 0 -64.5 22.5t-26.5 54.5t26.5 53.5t64.5 21.5q36 0 62.5 -21.5t26.5 -53.5t-26.5 -54.5t-62.5 -22.5z" />
    <glyph glyph-name="cedilla" unicode="&#xb8;" horiz-adv-x="258" 
d="M110 -54q22 0 43.5 -3t38 -11t26.5 -22t10 -36q0 -38 -31 -56t-84 -18h-3q-44 0 -62 18t-18 41q0 11 9 18t20 7q12 0 20.5 -7t8.5 -18q0 -10 -8.5 -17t-20.5 -7q-7 0 -13 3q5 -9 20 -14.5t44 -5.5h11q2 0 10 2t16.5 8t15 16t6.5 27q0 13 -6.5 23.5t-16 18t-21 11
t-21.5 3.5h-56l24 90h19l-18 -71h37z" />
    <glyph glyph-name="onesuperior" unicode="&#xb9;" horiz-adv-x="211" 
d="M133 635q0 -33 8 -45t40 -12v-3h-151v3q33 0 42 11.5t9 44.5v90q0 31 -13 38t-37 -4v4l102 50v-177z" />
    <glyph glyph-name="ordmasculine" unicode="&#xba;" horiz-adv-x="418" 
d="M208 446q-31 0 -63 10t-57.5 31.5t-41.5 55t-16 79.5t16 79.5t41.5 55.5t57.5 32.5t63 10.5t63 -10.5t58 -32.5t42.5 -55.5t16.5 -79.5t-16.5 -79.5t-42.5 -55t-58 -31.5t-63 -10zM208 451q47 0 72 39.5t25 131.5q0 91 -25 132.5t-72 41.5q-46 0 -70 -41.5t-24 -132.5
q0 -92 24 -131.5t70 -39.5z" />
    <glyph glyph-name="guillemotright" unicode="&#xbb;" horiz-adv-x="416" 
d="M31 520l132 -158q30 -36 45.5 -65t15.5 -56t-14.5 -55t-44.5 -64l-134 -160l-1 1v82l106 134q15 19 22.5 33.5t8 28t-7 28t-22.5 33.5l-107 132v85zM193 520l132 -158q30 -36 45.5 -65t15.5 -56t-14.5 -55t-44.5 -64l-134 -160l-1 1v82l106 134q15 19 22.5 33.5t8 28
t-7 28t-22.5 33.5l-107 132v85z" />
    <glyph glyph-name="onequarter" unicode="&#xbc;" horiz-adv-x="1110" 
d="M30 300v7q36 0 58 5.5t33.5 19.5t15.5 37.5t4 60.5v198q0 68 -27.5 83t-81.5 -8v7l224 110v-389q0 -36 3.5 -60t14.5 -38t32 -20t56 -6v-7h-332zM412 0h-66l219 800h66zM926 127q0 -36 8.5 -59.5t20.5 -37t25.5 -18.5t23.5 -5v-7h-294v7q19 0 37.5 5t33.5 18t24.5 36.5
t9.5 60.5h-264l264 372l111 1v-308h35q50 0 76.5 13.5t37.5 46.5h8l-29 -125h-128zM815 192v285l-204 -286z" />
    <glyph glyph-name="onehalf" unicode="&#xbd;" horiz-adv-x="1051" 
d="M30 300v7q36 0 58 5.5t33.5 19.5t15.5 37.5t4 60.5v198q0 68 -27.5 83t-81.5 -8v7l224 110v-389q0 -36 3.5 -60t14.5 -38t32 -20t56 -6v-7h-332zM412 0h-66l219 800h66zM1001 0h-450q0 59 21 101.5t54.5 72t75 49.5t82.5 34q56 20 93.5 50t37.5 78q0 29 -11 51t-28.5 37
t-39.5 22.5t-45 7.5q-54 -1 -96 -16.5t-65 -41.5l10 1q28 0 47.5 -17t19.5 -40q0 -24 -19.5 -41t-47.5 -17q-27 0 -47 17t-20 41q0 25 12.5 47.5t39 39t67.5 26.5t99 10q62 0 105 -13t71 -36.5t40.5 -54.5t12.5 -67q0 -33 -12 -59t-32.5 -45.5t-48.5 -33t-61 -19.5
q-31 -6 -74 -12t-86 -18.5t-80 -34t-55 -58.5l303 1q31 0 53.5 2t39 11t27.5 26.5t19 48.5h8z" />
    <glyph glyph-name="threequarters" unicode="&#xbe;" horiz-adv-x="1230" 
d="M333 579q33 -1 60 -10.5t47 -26t31 -39t11 -49.5q0 -82 -69 -122t-194 -40h-11q-24 0 -55 6.5t-58.5 22t-46.5 42t-18 66.5q0 8 1 16.5t3 17.5l7 -2q-4 -16 -4 -35q0 -39 19 -64t46 -38.5t56.5 -18.5t49.5 -5h19q24 0 51.5 7t51 23.5t39 45t15.5 71.5q0 30 -14.5 53
t-38.5 39t-55.5 24.5t-65.5 8.5h-15v10h17q66 0 101.5 29.5t35.5 78.5q0 30 -10 51t-27.5 34t-41 19t-50.5 6h-10q-44 -2 -83.5 -19.5t-53.5 -53.5q11 3 21 3q23 0 39 -13.5t16 -33.5t-16 -34.5t-39 -14.5t-39.5 14.5t-16.5 34.5q0 25 12.5 47.5t35 40t54.5 27.5t70 10h12
q61 0 103 -10.5t68 -28t37.5 -39t11.5 -42.5q0 -15 -5.5 -32t-18 -32.5t-33.5 -27.5t-52 -17zM532 0h-66l219 800h66zM1046 127q0 -36 8.5 -59.5t20.5 -37t25.5 -18.5t23.5 -5v-7h-294v7q19 0 37.5 5t33.5 18t24.5 36.5t9.5 60.5h-264l264 372l111 1v-308h35q50 0 76.5 13.5
t37.5 46.5h8l-29 -125h-128zM935 192v285l-204 -286z" />
    <glyph glyph-name="questiondown" unicode="&#xbf;" horiz-adv-x="563" 
d="M359 361q-37 0 -63.5 21.5t-26.5 53.5t26.5 54.5t63.5 22.5t63.5 -22.5t26.5 -54.5t-26.5 -53.5t-63.5 -21.5zM465 -31q27 0 47 -17.5t20 -41.5q0 -25 -18 -47.5t-48 -40t-70.5 -27.5t-85.5 -10q-61 0 -112.5 12.5t-89 37.5t-58.5 62.5t-21 87.5q0 65 24 106t59.5 68
t77 44.5t77 35t59 40t23.5 60.5h13q0 -38 -17.5 -66.5t-43.5 -53.5t-56 -49t-56 -53.5t-43.5 -66.5t-17.5 -88q0 -46 20 -78t48.5 -52t60 -29t55.5 -9q47 1 90.5 17.5t69.5 42.5h-7q-28 0 -47.5 16.5t-19.5 39.5q0 24 19.5 41.5t47.5 17.5z" />
    <glyph glyph-name="Agrave" unicode="&#xc0;" horiz-adv-x="792" 
d="M409 984q23 -33 43 -70.5t26 -62.5h-42q-27 24 -57.5 62t-52.5 71l-11 16h83zM584 228q27 -72 50 -116t44.5 -67t42 -30.5t41.5 -7.5v-7h-339v7q29 0 49 8t27.5 30t2.5 60.5t-25 99.5h-265q-22 -66 -27 -105.5t3.5 -60t26.5 -26.5t41 -6v-7h-226v7q17 0 37 7.5t42.5 31.5
t47.5 68.5t52 118.5l173 467h28zM345 567l-124 -337l-6 -17h259l-5 15z" />
    <glyph glyph-name="Aacute" unicode="&#xc1;" horiz-adv-x="792" 
d="M468 984q-22 -33 -53 -71t-58 -62h-42q6 25 26.5 62.5t42.5 70.5l12 16h82zM584 228q27 -72 50 -116t44.5 -67t42 -30.5t41.5 -7.5v-7h-339v7q29 0 49 8t27.5 30t2.5 60.5t-25 99.5h-265q-22 -66 -27 -105.5t3.5 -60t26.5 -26.5t41 -6v-7h-226v7q17 0 37 7.5t42.5 31.5
t47.5 68.5t52 118.5l173 467h28zM345 567l-124 -337l-6 -17h259l-5 15z" />
    <glyph glyph-name="Acircumflex" unicode="&#xc2;" horiz-adv-x="792" 
d="M395 984q-22 -33 -53 -71t-58 -62h-42q6 25 26.5 62.5t42.5 70.5l12 16h147l11 -16q23 -33 43 -70.5t26 -62.5h-42q-27 24 -57.5 62t-52.5 71l-2 2zM584 228q27 -72 50 -116t44.5 -67t42 -30.5t41.5 -7.5v-7h-339v7q29 0 49 8t27.5 30t2.5 60.5t-25 99.5h-265
q-22 -66 -27 -105.5t3.5 -60t26.5 -26.5t41 -6v-7h-226v7q17 0 37 7.5t42.5 31.5t47.5 68.5t52 118.5l173 467h28zM469 228l-124 339l-124 -337l-6 -17h259z" />
    <glyph glyph-name="Atilde" unicode="&#xc3;" horiz-adv-x="792" 
d="M251 920q0 47 21.5 64t48.5 18q21 0 40 -6t36 -13.5t32 -13.5t28 -6q9 0 19.5 4.5t10.5 15.5v17h54v-22q0 -44 -20 -60t-43 -17q-19 0 -38 7.5t-36.5 16.5t-34 16.5t-31.5 7.5q-11 0 -21.5 -6.5t-10.5 -23.5v-17h-55v18zM584 228q27 -72 50 -116t44.5 -67t42 -30.5
t41.5 -7.5v-7h-339v7q29 0 49 8t27.5 30t2.5 60.5t-25 99.5h-265q-22 -66 -27 -105.5t3.5 -60t26.5 -26.5t41 -6v-7h-226v7q17 0 37 7.5t42.5 31.5t47.5 68.5t52 118.5l173 467h28zM345 567l-124 -337l-6 -17h259l-5 15z" />
    <glyph glyph-name="Adieresis" unicode="&#xc4;" horiz-adv-x="792" 
d="M361 900h-62v64h62v-64zM492 900h-62v64h62v-64zM584 228q27 -72 50 -116t44.5 -67t42 -30.5t41.5 -7.5v-7h-339v7q29 0 49 8t27.5 30t2.5 60.5t-25 99.5h-265q-22 -66 -27 -105.5t3.5 -60t26.5 -26.5t41 -6v-7h-226v7q17 0 37 7.5t42.5 31.5t47.5 68.5t52 118.5l173 467
h28zM345 567l-124 -337l-6 -17h259l-5 15z" />
    <glyph glyph-name="Aring" unicode="&#xc5;" horiz-adv-x="792" 
d="M396 851q-35 0 -58.5 23.5t-23.5 56.5t23.5 56.5t58.5 23.5q34 0 57.5 -23.5t23.5 -56.5t-23.5 -56.5t-57.5 -23.5zM396 894q16 0 27 10.5t11 26.5t-11 26.5t-27 10.5q-17 0 -28 -10.5t-11 -26.5t11 -26.5t28 -10.5zM584 228q27 -72 50 -116t44.5 -67t42 -30.5t41.5 -7.5
v-7h-339v7q29 0 49 8t27.5 30t2.5 60.5t-25 99.5h-265q-22 -66 -27 -105.5t3.5 -60t26.5 -26.5t41 -6v-7h-226v7q17 0 37 7.5t42.5 31.5t47.5 68.5t52 118.5l173 467h28zM345 567l-124 -337l-6 -17h259l-5 15z" />
    <glyph glyph-name="AE" unicode="&#xc6;" horiz-adv-x="891" 
d="M861 0h-532v7q10 0 23.5 5.5t26 19.5t21.5 38t9 60v75h-197q-22 -66 -27 -105t3.5 -60t26.5 -27t41 -6v-7h-226v7q17 0 37 7.5t42.5 31.5t47.5 68.5t52 118.5l173 467h450v-204h-8q-6 39 -19 74.5t-38.5 62.5t-65.5 43t-100 16h-79v-318h42q18 0 40.5 7t42.5 20.5
t34 33.5t14 46h8v-222h-8q0 26 -13.5 46t-34 33.5t-43.5 20.5t-41 7h-41v-358h127q53 0 89 16t60 43t36.5 62.5t18.5 74.5h8v-204zM409 691h-17l-171 -461l-6 -17h194v478z" />
    <glyph glyph-name="Ccedilla" unicode="&#xc7;" horiz-adv-x="593" 
d="M356 -10q-56 0 -101 13l-14 -57h37q22 0 43.5 -3t38 -11t26.5 -22t10 -36q0 -38 -31 -56t-84 -18h-3q-44 0 -62 18t-18 41q0 11 9 18t20 7q12 0 20.5 -7t8.5 -18q0 -10 -8.5 -17t-20.5 -7q-7 0 -13 3q5 -9 20 -14.5t44 -5.5h11q2 0 10 2t16.5 8t15 16t6.5 27
q0 13 -6.5 23.5t-16 18t-21 11t-21.5 3.5h-56l22 81q-100 34 -154 122.5t-54 219.5q0 82 22 148.5t64 113.5t101.5 72.5t134.5 24.5q51 -1 89 -9t63 -9q26 0 26 15h7v-198h-7v13q0 36 -13.5 68.5t-37.5 57.5t-56.5 40t-70.5 15q-43 1 -80 -24t-64 -71t-42.5 -111.5
t-15.5 -145.5q0 -81 17.5 -146t46.5 -111t66 -71t76 -25q41 0 76.5 14.5t61.5 38.5t41 56t15 66q0 24 -3.5 42.5t-8.5 32.5l7 4q5 -13 8 -31.5t3 -47.5q0 -36 -14 -69t-40 -58t-63 -40t-83 -15z" />
    <glyph glyph-name="Egrave" unicode="&#xc8;" horiz-adv-x="596" 
d="M311 984q23 -33 43 -70.5t26 -62.5h-42q-27 24 -57.5 62t-52.5 71l-11 16h83zM30 0v7q10 0 23.5 5.5t26 19.5t21.5 38t9 60v442q0 36 -8.5 59.5t-20.5 37t-25.5 19t-23.5 5.5v7h501v-204h-8q-6 39 -19 74.5t-38.5 62.5t-65.5 43t-100 16h-79v-318h42q18 0 40.5 7
t42.5 20.5t34 33.5t14 46h8v-222h-8q0 26 -13.5 46t-34 33.5t-43.5 20.5t-41 7h-41v-358h127q53 0 89 16t60 43t36.5 62.5t18.5 74.5h8v-204h-532z" />
    <glyph glyph-name="Eacute" unicode="&#xc9;" horiz-adv-x="596" 
d="M370 984q-22 -33 -53 -71t-58 -62h-42q6 25 26.5 62.5t42.5 70.5l12 16h82zM30 0v7q10 0 23.5 5.5t26 19.5t21.5 38t9 60v442q0 36 -8.5 59.5t-20.5 37t-25.5 19t-23.5 5.5v7h501v-204h-8q-6 39 -19 74.5t-38.5 62.5t-65.5 43t-100 16h-79v-318h42q18 0 40.5 7t42.5 20.5
t34 33.5t14 46h8v-222h-8q0 26 -13.5 46t-34 33.5t-43.5 20.5t-41 7h-41v-358h127q53 0 89 16t60 43t36.5 62.5t18.5 74.5h8v-204h-532z" />
    <glyph glyph-name="Ecircumflex" unicode="&#xca;" horiz-adv-x="596" 
d="M297 984q-22 -33 -53 -71t-58 -62h-42q6 25 26.5 62.5t42.5 70.5l12 16h147l11 -16q23 -33 43 -70.5t26 -62.5h-42q-27 24 -57.5 62t-52.5 71l-2 2zM562 0h-532v7q10 0 23.5 5.5t26 19.5t21.5 38t9 60v442q0 36 -8.5 59.5t-20.5 37t-25.5 19t-23.5 5.5v7h501v-204h-8
q-6 39 -19 74.5t-38.5 62.5t-65.5 43t-100 16h-79v-318h42q18 0 40.5 7t42.5 20.5t34 33.5t14 46h8v-222h-8q0 26 -13.5 46t-34 33.5t-43.5 20.5t-41 7h-41v-358h127q53 0 89 16t60 43t36.5 62.5t18.5 74.5h8v-204z" />
    <glyph glyph-name="Edieresis" unicode="&#xcb;" horiz-adv-x="596" 
d="M263 900h-62v64h62v-64zM394 900h-62v64h62v-64zM30 0v7q10 0 23.5 5.5t26 19.5t21.5 38t9 60v442q0 36 -8.5 59.5t-20.5 37t-25.5 19t-23.5 5.5v7h501v-204h-8q-6 39 -19 74.5t-38.5 62.5t-65.5 43t-100 16h-79v-318h42q18 0 40.5 7t42.5 20.5t34 33.5t14 46h8v-222h-8
q0 26 -13.5 46t-34 33.5t-43.5 20.5t-41 7h-41v-358h127q53 0 89 16t60 43t36.5 62.5t18.5 74.5h8v-204h-532z" />
    <glyph glyph-name="Igrave" unicode="&#xcc;" horiz-adv-x="333" 
d="M179 984q23 -33 43 -70.5t26 -62.5h-42q-27 24 -57.5 62t-52.5 71l-11 16h83zM223 131q0 -35 8.5 -59t20.5 -38.5t25.5 -20.5t23.5 -6v-7h-271v7q10 0 23.5 5.5t26 20t21.5 38t9 59.5v442q0 36 -8.5 59t-20.5 37t-25.5 19.5t-23.5 5.5v7h271v-7q-10 0 -23.5 -5t-26 -18.5
t-21.5 -37t-9 -59.5v-442z" />
    <glyph glyph-name="Iacute" unicode="&#xcd;" horiz-adv-x="333" 
d="M238 984q-22 -33 -53 -71t-58 -62h-42q6 25 26.5 62.5t42.5 70.5l12 16h82zM223 131q0 -35 8.5 -59t20.5 -38.5t25.5 -20.5t23.5 -6v-7h-271v7q10 0 23.5 5.5t26 20t21.5 38t9 59.5v442q0 36 -8.5 59t-20.5 37t-25.5 19.5t-23.5 5.5v7h271v-7q-10 0 -23.5 -5t-26 -18.5
t-21.5 -37t-9 -59.5v-442z" />
    <glyph glyph-name="Icircumflex" unicode="&#xce;" horiz-adv-x="333" 
d="M165 984q-22 -33 -53 -71t-58 -62h-42q6 25 26.5 62.5t42.5 70.5l12 16h147l11 -16q23 -33 43 -70.5t26 -62.5h-42q-27 24 -57.5 62t-52.5 71l-2 2zM303 700v-7q-10 0 -23.5 -5t-26 -18.5t-21.5 -37t-9 -59.5v-442q0 -35 8.5 -59t20.5 -38.5t25.5 -20.5t23.5 -6v-7h-271
v7q10 0 23.5 5.5t26 20t21.5 38t9 59.5v442q0 36 -8.5 59t-20.5 37t-25.5 19.5t-23.5 5.5v7h271z" />
    <glyph glyph-name="Idieresis" unicode="&#xcf;" horiz-adv-x="333" 
d="M132 900h-62v64h62v-64zM263 900h-62v64h62v-64zM223 131q0 -35 8.5 -59t20.5 -38.5t25.5 -20.5t23.5 -6v-7h-271v7q10 0 23.5 5.5t26 20t21.5 38t9 59.5v442q0 36 -8.5 59t-20.5 37t-25.5 19.5t-23.5 5.5v7h271v-7q-10 0 -23.5 -5t-26 -18.5t-21.5 -37t-9 -59.5v-442z
" />
    <glyph glyph-name="Eth" unicode="&#xd0;" horiz-adv-x="681" 
d="M305 700q75 0 138.5 -24t109.5 -69.5t72 -110.5t26 -147t-27.5 -147t-74.5 -110t-110 -68.5t-134 -23.5h-275v7q10 0 23.5 7t26 21.5t21.5 38t9 56.5v208h-45v32h45v202q0 31 -8.5 54t-20.5 38t-25.5 22t-23.5 7v7h273zM305 8q42 0 82 23.5t71.5 67.5t50.5 107t19 143
t-19 143.5t-50.5 107.5t-71.5 68t-82 24h-81v-322h48v-32h-48v-330h81z" />
    <glyph glyph-name="Ntilde" unicode="&#xd1;" horiz-adv-x="757" 
d="M233 920q0 47 21.5 64t48.5 18q21 0 40 -6t36 -13.5t32 -13.5t28 -6q9 0 19.5 4.5t10.5 15.5v17h54v-22q0 -44 -20 -60t-43 -17q-19 0 -38 7.5t-36.5 16.5t-34 16.5t-31.5 7.5q-11 0 -21.5 -6.5t-10.5 -23.5v-17h-55v18zM727 693q-20 0 -39 -5t-34 -18.5t-24.5 -37
t-9.5 -59.5v-573h-42l-382 572q-7 11 -14 20.5t-14 17.5v-479q0 -37 9 -61t23.5 -38t33.5 -19.5t40 -5.5v-7h-230v7q22 0 42 5t35.5 19t25 38t9.5 61v494q-33 35 -62 52t-64 17v7h214l364 -533v405q0 35 -9 58.5t-23 37.5t-32.5 19.5t-37.5 5.5v7h221v-7z" />
    <glyph glyph-name="Ograve" unicode="&#xd2;" horiz-adv-x="743" 
d="M385 984q23 -33 43 -70.5t26 -62.5h-42q-27 24 -57.5 62t-52.5 71l-11 16h83zM373 -10q-75 0 -137.5 25.5t-108.5 72.5t-71.5 113.5t-25.5 148.5t25.5 148t71.5 113t108.5 72.5t137.5 25.5q74 0 136 -25.5t107.5 -72.5t71 -113t25.5 -148t-25.5 -148.5t-71 -113.5
t-107.5 -72.5t-136 -25.5zM373 -3q56 0 97 25t67.5 71t39.5 111t13 146q0 80 -13 145t-39.5 111t-67.5 71t-97 25q-57 0 -99 -25t-69 -71t-40 -111t-13 -145q0 -81 13 -146t40 -111t69 -71t99 -25z" />
    <glyph glyph-name="Oacute" unicode="&#xd3;" horiz-adv-x="743" 
d="M444 984q-22 -33 -53 -71t-58 -62h-42q6 25 26.5 62.5t42.5 70.5l12 16h82zM373 -10q-75 0 -137.5 25.5t-108.5 72.5t-71.5 113.5t-25.5 148.5t25.5 148t71.5 113t108.5 72.5t137.5 25.5q74 0 136 -25.5t107.5 -72.5t71 -113t25.5 -148t-25.5 -148.5t-71 -113.5
t-107.5 -72.5t-136 -25.5zM373 -3q56 0 97 25t67.5 71t39.5 111t13 146q0 80 -13 145t-39.5 111t-67.5 71t-97 25q-57 0 -99 -25t-69 -71t-40 -111t-13 -145q0 -81 13 -146t40 -111t69 -71t99 -25z" />
    <glyph glyph-name="Ocircumflex" unicode="&#xd4;" horiz-adv-x="743" 
d="M371 984q-22 -33 -53 -71t-58 -62h-42q6 25 26.5 62.5t42.5 70.5l12 16h147l11 -16q23 -33 43 -70.5t26 -62.5h-42q-27 24 -57.5 62t-52.5 71l-2 2zM373 709q74 0 136 -25.5t107.5 -72.5t71 -113t25.5 -148t-25.5 -148.5t-71 -113.5t-107.5 -72.5t-136 -25.5
q-75 0 -137.5 25.5t-108.5 72.5t-71.5 113.5t-25.5 148.5t25.5 148t71.5 113t108.5 72.5t137.5 25.5zM373 -3q56 0 97 25t67.5 71t39.5 111t13 146q0 80 -13 145t-39.5 111t-67.5 71t-97 25q-57 0 -99 -25t-69 -71t-40 -111t-13 -145q0 -81 13 -146t40 -111t69 -71t99 -25z
" />
    <glyph glyph-name="Otilde" unicode="&#xd5;" horiz-adv-x="743" 
d="M227 920q0 47 21.5 64t48.5 18q21 0 40 -6t36 -13.5t32 -13.5t28 -6q9 0 19.5 4.5t10.5 15.5v17h54v-22q0 -44 -20 -60t-43 -17q-19 0 -38 7.5t-36.5 16.5t-34 16.5t-31.5 7.5q-11 0 -21.5 -6.5t-10.5 -23.5v-17h-55v18zM373 -10q-75 0 -137.5 25.5t-108.5 72.5
t-71.5 113.5t-25.5 148.5t25.5 148t71.5 113t108.5 72.5t137.5 25.5q74 0 136 -25.5t107.5 -72.5t71 -113t25.5 -148t-25.5 -148.5t-71 -113.5t-107.5 -72.5t-136 -25.5zM373 -3q56 0 97 25t67.5 71t39.5 111t13 146q0 80 -13 145t-39.5 111t-67.5 71t-97 25q-57 0 -99 -25
t-69 -71t-40 -111t-13 -145q0 -81 13 -146t40 -111t69 -71t99 -25z" />
    <glyph glyph-name="Odieresis" unicode="&#xd6;" horiz-adv-x="743" 
d="M337 900h-62v64h62v-64zM468 900h-62v64h62v-64zM373 -10q-75 0 -137.5 25.5t-108.5 72.5t-71.5 113.5t-25.5 148.5t25.5 148t71.5 113t108.5 72.5t137.5 25.5q74 0 136 -25.5t107.5 -72.5t71 -113t25.5 -148t-25.5 -148.5t-71 -113.5t-107.5 -72.5t-136 -25.5zM373 -3
q56 0 97 25t67.5 71t39.5 111t13 146q0 80 -13 145t-39.5 111t-67.5 71t-97 25q-57 0 -99 -25t-69 -71t-40 -111t-13 -145q0 -81 13 -146t40 -111t69 -71t99 -25z" />
    <glyph glyph-name="multiply" unicode="&#xd7;" horiz-adv-x="307" 
d="M277 159l-40 -40l-83 84l-84 -84l-40 40l84 84l-84 83l40 40l84 -83l83 83l40 -40l-83 -83z" />
    <glyph glyph-name="Oslash" unicode="&#xd8;" horiz-adv-x="743" 
d="M501 687q48 -18 87 -49.5t66.5 -74.5t43 -96.5t15.5 -116.5q0 -82 -25.5 -148.5t-71 -113.5t-107.5 -72.5t-136 -25.5q-16 0 -31 1.5t-30 3.5l-26 -95h-66l30 110q-50 17 -90.5 48.5t-69.5 75t-44.5 98t-15.5 118.5q0 82 25.5 148t71.5 113t108.5 72.5t137.5 25.5
q35 0 66 -6l27 98h66zM153 350q0 -112 25 -193t79 -123l179 658q-27 10 -63 10q-57 0 -98.5 -25t-68.5 -71t-40 -111t-13 -145zM373 -3q56 0 97 25t67.5 71t39.5 111t13 146q0 109 -23.5 188.5t-72.5 121.5l-179 -655q27 -8 58 -8z" />
    <glyph glyph-name="Ugrave" unicode="&#xd9;" horiz-adv-x="686" 
d="M356 984q23 -33 43 -70.5t26 -62.5h-42q-27 24 -57.5 62t-52.5 71l-11 16h83zM656 693q-10 0 -23.5 -5t-26 -18.5t-21.5 -36.5t-9 -60v-411q0 -40 -16.5 -72t-44 -54t-64 -33.5t-76.5 -11.5q-64 0 -114 16.5t-84 42.5t-51.5 58.5t-17.5 64.5v399q0 36 -8.5 59.5t-20.5 37
t-25.5 19t-23.5 5.5v7h271v-7q-10 0 -23.5 -5t-26 -18.5t-21.5 -36.5t-9 -60v-432q0 -39 14.5 -65.5t37 -43.5t49.5 -24.5t52 -7.5q28 0 61.5 9.5t62.5 30t48.5 52t19.5 74.5v406q0 36 -8.5 59.5t-20.5 37t-25.5 19t-23.5 5.5v7h168v-7z" />
    <glyph glyph-name="Uacute" unicode="&#xda;" horiz-adv-x="686" 
d="M415 984q-22 -33 -53 -71t-58 -62h-42q6 25 26.5 62.5t42.5 70.5l12 16h82zM656 693q-10 0 -23.5 -5t-26 -18.5t-21.5 -36.5t-9 -60v-411q0 -40 -16.5 -72t-44 -54t-64 -33.5t-76.5 -11.5q-64 0 -114 16.5t-84 42.5t-51.5 58.5t-17.5 64.5v399q0 36 -8.5 59.5t-20.5 37
t-25.5 19t-23.5 5.5v7h271v-7q-10 0 -23.5 -5t-26 -18.5t-21.5 -36.5t-9 -60v-432q0 -39 14.5 -65.5t37 -43.5t49.5 -24.5t52 -7.5q28 0 61.5 9.5t62.5 30t48.5 52t19.5 74.5v406q0 36 -8.5 59.5t-20.5 37t-25.5 19t-23.5 5.5v7h168v-7z" />
    <glyph glyph-name="Ucircumflex" unicode="&#xdb;" horiz-adv-x="686" 
d="M342 984q-22 -33 -53 -71t-58 -62h-42q6 25 26.5 62.5t42.5 70.5l12 16h147l11 -16q23 -33 43 -70.5t26 -62.5h-42q-27 24 -57.5 62t-52.5 71l-2 2zM656 693q-10 0 -23.5 -5t-26 -18.5t-21.5 -36.5t-9 -60v-411q0 -40 -16.5 -72t-44 -54t-64 -33.5t-76.5 -11.5
q-64 0 -114 16.5t-84 42.5t-51.5 58.5t-17.5 64.5v399q0 36 -8.5 59.5t-20.5 37t-25.5 19t-23.5 5.5v7h271v-7q-10 0 -23.5 -5t-26 -18.5t-21.5 -36.5t-9 -60v-432q0 -39 14.5 -65.5t37 -43.5t49.5 -24.5t52 -7.5q28 0 61.5 9.5t62.5 30t48.5 52t19.5 74.5v406
q0 36 -8.5 59.5t-20.5 37t-25.5 19t-23.5 5.5v7h168v-7z" />
    <glyph glyph-name="Udieresis" unicode="&#xdc;" horiz-adv-x="686" 
d="M308 900h-62v64h62v-64zM439 900h-62v64h62v-64zM656 693q-10 0 -23.5 -5t-26 -18.5t-21.5 -36.5t-9 -60v-411q0 -40 -16.5 -72t-44 -54t-64 -33.5t-76.5 -11.5q-64 0 -114 16.5t-84 42.5t-51.5 58.5t-17.5 64.5v399q0 36 -8.5 59.5t-20.5 37t-25.5 19t-23.5 5.5v7h271
v-7q-10 0 -23.5 -5t-26 -18.5t-21.5 -36.5t-9 -60v-432q0 -39 14.5 -65.5t37 -43.5t49.5 -24.5t52 -7.5q28 0 61.5 9.5t62.5 30t48.5 52t19.5 74.5v406q0 36 -8.5 59.5t-20.5 37t-25.5 19t-23.5 5.5v7h168v-7z" />
    <glyph glyph-name="Yacute" unicode="&#xdd;" horiz-adv-x="741" 
d="M442 984q-22 -33 -53 -71t-58 -62h-42q6 25 26.5 62.5t42.5 70.5l12 16h82zM711 693q-27 0 -48 -5t-39 -18.5t-35 -37t-36 -60.5l-114 -217v-224q0 -37 8.5 -61t20.5 -38t25.5 -19.5t23.5 -5.5v-7h-273v7q10 0 23.5 5t26 18.5t21.5 37.5t9 62v183l-136 259
q-17 33 -33.5 56.5t-35 37.5t-40.5 20.5t-49 6.5v7h355v-7q-26 0 -45.5 -6t-29 -20.5t-7 -37.5t20.5 -56l110 -207l110 207q20 37 22 60.5t-8.5 36.5t-31 18t-47.5 5v7h232v-7z" />
    <glyph glyph-name="Thorn" unicode="&#xde;" horiz-adv-x="610" 
d="M223 131q0 -35 8.5 -59t20.5 -38.5t25.5 -20.5t23.5 -6v-7h-271v7q10 0 23.5 5.5t26 20t21.5 38t9 59.5v442q0 36 -8.5 59t-20.5 37t-25.5 19.5t-23.5 5.5v7h271v-7q-9 0 -22.5 -4.5t-25.5 -17t-21 -33.5t-11 -54h49q68 0 124.5 -9.5t97.5 -32.5t63.5 -61.5t22.5 -96.5
q0 -52 -24 -88t-66 -58.5t-98 -33t-120 -10.5h-49v-63zM223 573v-371h49q21 0 53 10t61.5 31.5t51 56.5t21.5 84q0 56 -21.5 93t-51 59t-61.5 31t-53 9h-49v-3z" />
    <glyph glyph-name="germandbls" unicode="&#xdf;" horiz-adv-x="670" 
d="M482 521q-35 -15 -1 -29q32 -13 61 -33.5t50.5 -48.5t34.5 -64t13 -80q0 -73 -26.5 -125t-76 -84.5t-120 -47.5t-157.5 -15v7q63 0 112 14.5t82.5 46t50.5 82t17 122.5q0 48 -9 86.5t-23 67.5t-30.5 48t-31.5 28q-10 7 -11 11q-1 2 3 6t9 10q9 11 16.5 26t13 32.5t9 35.5
t3.5 34q0 34 -9.5 61.5t-26 46.5t-39 29.5t-47.5 11.5q-58 0 -91.5 -50.5t-33.5 -147.5v-471q0 -22 -4.5 -45.5t-16 -42.5t-31 -31t-49.5 -12h-93v7q10 0 23.5 7t26 21.5t21.5 38t9 56.5v413q0 133 61.5 200t176.5 68q42 0 82.5 -8t72 -26.5t50.5 -49t19 -76.5
q0 -44 -24 -77.5t-66 -52.5z" />
    <glyph glyph-name="agrave" unicode="&#xe0;" horiz-adv-x="634" 
d="M357 651q-27 24 -57.5 62t-52.5 71l-11 16h83l11 -16q23 -33 43 -70.5t26 -62.5h-42zM524 130q0 -36 9 -59.5t21.5 -38t26 -20t23.5 -5.5v-7h-122q-32 0 -50 24t-21 65q-15 -57 -56.5 -79t-97.5 -22q-227 0 -227 154q0 38 20 62.5t53 41t76 27t89 19.5q14 3 33 6.5
t38.5 10.5t37 18.5t28.5 30.5q-11 65 -46.5 104t-92.5 39q-50 0 -82.5 -16t-50.5 -36q27 -1 46 -17.5t19 -39.5q0 -24 -19.5 -41t-47.5 -17q-27 0 -47 17t-20 41q0 28 18 50t47.5 37t66 23t72.5 8q63 -1 110.5 -13t80 -38.5t49 -68.5t16.5 -103v-157zM257 -5q32 0 60 7
t48.5 25t32.5 48t12 76v148q0 23 -3 44q-12 -15 -28.5 -25t-33.5 -15.5t-33 -8.5t-26 -5q-17 -4 -41.5 -14t-47 -28t-38.5 -43.5t-16 -60.5q0 -42 13.5 -70.5t32 -45.5t37.5 -24.5t31 -7.5z" />
    <glyph glyph-name="aacute" unicode="&#xe1;" horiz-adv-x="634" 
d="M389 784q-22 -33 -53 -71t-58 -62h-42q6 25 26.5 62.5t42.5 70.5l12 16h82zM524 130q0 -36 9 -59.5t21.5 -38t26 -20t23.5 -5.5v-7h-122q-32 0 -50 24t-21 65q-15 -57 -56.5 -79t-97.5 -22q-227 0 -227 154q0 38 20 62.5t53 41t76 27t89 19.5q14 3 33 6.5t38.5 10.5
t37 18.5t28.5 30.5q-11 65 -46.5 104t-92.5 39q-50 0 -82.5 -16t-50.5 -36q27 -1 46 -17.5t19 -39.5q0 -24 -19.5 -41t-47.5 -17q-27 0 -47 17t-20 41q0 28 18 50t47.5 37t66 23t72.5 8q63 -1 110.5 -13t80 -38.5t49 -68.5t16.5 -103v-157zM257 -5q32 0 60 7t48.5 25
t32.5 48t12 76v148q0 23 -3 44q-12 -15 -28.5 -25t-33.5 -15.5t-33 -8.5t-26 -5q-17 -4 -41.5 -14t-47 -28t-38.5 -43.5t-16 -60.5q0 -42 13.5 -70.5t32 -45.5t37.5 -24.5t31 -7.5z" />
    <glyph glyph-name="acircumflex" unicode="&#xe2;" horiz-adv-x="634" 
d="M316 784q-22 -33 -53 -71t-58 -62h-42q6 25 26.5 62.5t42.5 70.5l12 16h147l11 -16q23 -33 43 -70.5t26 -62.5h-42q-27 24 -57.5 62t-52.5 71l-2 2zM524 130q0 -36 9 -59.5t21.5 -38t26 -20t23.5 -5.5v-7h-122q-32 0 -50 24t-21 65q-15 -57 -56.5 -79t-97.5 -22
q-227 0 -227 154q0 38 20 62.5t53 41t76 27t89 19.5q14 3 33 6.5t38.5 10.5t37 18.5t28.5 30.5q-11 65 -46.5 104t-92.5 39q-50 0 -82.5 -16t-50.5 -36q27 -1 46 -17.5t19 -39.5q0 -24 -19.5 -41t-47.5 -17q-27 0 -47 17t-20 41q0 28 18 50t47.5 37t66 23t72.5 8
q63 -1 110.5 -13t80 -38.5t49 -68.5t16.5 -103v-157zM257 -5q32 0 60 7t48.5 25t32.5 48t12 76v148q0 23 -3 44q-12 -15 -28.5 -25t-33.5 -15.5t-33 -8.5t-26 -5q-17 -4 -41.5 -14t-47 -28t-38.5 -43.5t-16 -60.5q0 -42 13.5 -70.5t32 -45.5t37.5 -24.5t31 -7.5z" />
    <glyph glyph-name="atilde" unicode="&#xe3;" horiz-adv-x="634" 
d="M172 702v18q0 47 21.5 64t48.5 18q21 0 40 -6t36 -13.5t32 -13.5t28 -6q9 0 19.5 4.5t10.5 15.5v17h54v-22q0 -44 -20 -60t-43 -17q-19 0 -38 7.5t-36.5 16.5t-34 16.5t-31.5 7.5q-11 0 -21.5 -6.5t-10.5 -23.5v-17h-55zM524 130q0 -36 9 -59.5t21.5 -38t26 -20
t23.5 -5.5v-7h-122q-32 0 -50 24t-21 65q-15 -57 -56.5 -79t-97.5 -22q-227 0 -227 154q0 38 20 62.5t53 41t76 27t89 19.5q14 3 33 6.5t38.5 10.5t37 18.5t28.5 30.5q-11 65 -46.5 104t-92.5 39q-50 0 -82.5 -16t-50.5 -36q27 -1 46 -17.5t19 -39.5q0 -24 -19.5 -41
t-47.5 -17q-27 0 -47 17t-20 41q0 28 18 50t47.5 37t66 23t72.5 8q63 -1 110.5 -13t80 -38.5t49 -68.5t16.5 -103v-157zM257 -5q32 0 60 7t48.5 25t32.5 48t12 76v148q0 23 -3 44q-12 -15 -28.5 -25t-33.5 -15.5t-33 -8.5t-26 -5q-17 -4 -41.5 -14t-47 -28t-38.5 -43.5
t-16 -60.5q0 -42 13.5 -70.5t32 -45.5t37.5 -24.5t31 -7.5z" />
    <glyph glyph-name="adieresis" unicode="&#xe4;" horiz-adv-x="634" 
d="M220 700v64h62v-64h-62zM351 700v64h62v-64h-62zM524 130q0 -36 9 -59.5t21.5 -38t26 -20t23.5 -5.5v-7h-122q-32 0 -50 24t-21 65q-15 -57 -56.5 -79t-97.5 -22q-227 0 -227 154q0 38 20 62.5t53 41t76 27t89 19.5q14 3 33 6.5t38.5 10.5t37 18.5t28.5 30.5
q-11 65 -46.5 104t-92.5 39q-50 0 -82.5 -16t-50.5 -36q27 -1 46 -17.5t19 -39.5q0 -24 -19.5 -41t-47.5 -17q-27 0 -47 17t-20 41q0 28 18 50t47.5 37t66 23t72.5 8q63 -1 110.5 -13t80 -38.5t49 -68.5t16.5 -103v-157zM257 -5q32 0 60 7t48.5 25t32.5 48t12 76v148
q0 23 -3 44q-12 -15 -28.5 -25t-33.5 -15.5t-33 -8.5t-26 -5q-17 -4 -41.5 -14t-47 -28t-38.5 -43.5t-16 -60.5q0 -42 13.5 -70.5t32 -45.5t37.5 -24.5t31 -7.5z" />
    <glyph glyph-name="aring" unicode="&#xe5;" horiz-adv-x="634" 
d="M317 651q-35 0 -58.5 23.5t-23.5 56.5t23.5 56.5t58.5 23.5q34 0 57.5 -23.5t23.5 -56.5t-23.5 -56.5t-57.5 -23.5zM317 768q-17 0 -28 -10.5t-11 -26.5t11 -26.5t28 -10.5q16 0 27 10.5t11 26.5t-11 26.5t-27 10.5zM524 130q0 -36 9 -59.5t21.5 -38t26 -20t23.5 -5.5v-7
h-122q-32 0 -50 24t-21 65q-15 -57 -56.5 -79t-97.5 -22q-227 0 -227 154q0 38 20 62.5t53 41t76 27t89 19.5q14 3 33 6.5t38.5 10.5t37 18.5t28.5 30.5q-11 65 -46.5 104t-92.5 39q-50 0 -82.5 -16t-50.5 -36q27 -1 46 -17.5t19 -39.5q0 -24 -19.5 -41t-47.5 -17
q-27 0 -47 17t-20 41q0 28 18 50t47.5 37t66 23t72.5 8q63 -1 110.5 -13t80 -38.5t49 -68.5t16.5 -103v-157zM257 -5q32 0 60 7t48.5 25t32.5 48t12 76v148q0 23 -3 44q-12 -15 -28.5 -25t-33.5 -15.5t-33 -8.5t-26 -5q-17 -4 -41.5 -14t-47 -28t-38.5 -43.5t-16 -60.5
q0 -42 13.5 -70.5t32 -45.5t37.5 -24.5t31 -7.5z" />
    <glyph glyph-name="ae" unicode="&#xe6;" horiz-adv-x="964" 
d="M710 -3q23 0 59 10t70 32.5t58.5 59t24.5 88.5h6q0 -53 -23.5 -90.5t-57 -61t-71 -34.5t-66.5 -11q-77 0 -144.5 25.5t-109.5 80.5q-17 -33 -41 -54t-51 -33t-55 -16.5t-52 -4.5q-227 0 -227 154q0 38 20 62.5t53 41t76 27t89 19.5q14 3 33 6.5t38.5 10.5t37 18.5
t28.5 30.5q-11 65 -46.5 104t-92.5 39q-50 0 -82.5 -16t-50.5 -36q27 -1 46 -17.5t19 -39.5q0 -24 -19.5 -41t-47.5 -17q-27 0 -47 17t-20 41q0 28 18 50t47.5 37t66 23t72.5 8q76 -1 129.5 -18.5t85.5 -57.5q39 38 89.5 57t98.5 19t95 -16t84 -48t60.5 -81.5t23.5 -116.5
h-400q0 -67 14.5 -114.5t39 -78t56.5 -44.5t66 -14zM671 503q-23 0 -47 -15t-44 -45t-32.5 -76.5t-13.5 -111.5h278q-1 65 -14.5 111.5t-34 77t-45 45t-47.5 14.5zM257 -5q32 0 60 8.5t48.5 35.5t32.5 76.5t12 131.5v52q0 23 -3 44q-12 -15 -28.5 -25t-33.5 -15.5t-33 -8.5
t-26 -5q-17 -4 -41.5 -14t-47 -28t-38.5 -43.5t-16 -60.5q0 -42 13.5 -70.5t32 -45.5t37.5 -24.5t31 -7.5z" />
    <glyph glyph-name="ccedilla" unicode="&#xe7;" horiz-adv-x="530" 
d="M308 -10q-22 0 -43.5 2.5t-41.5 7.5l-14 -54h37q22 0 43.5 -3t38 -11t26.5 -22t10 -36q0 -38 -31 -56t-84 -18h-3q-44 0 -62 18t-18 41q0 11 9 18t20 7q12 0 20.5 -7t8.5 -18q0 -10 -8.5 -17t-20.5 -7q-7 0 -13 3q5 -9 20 -14.5t44 -5.5h11q2 0 10 2t16.5 8t15 16t6.5 27
q0 13 -6.5 23.5t-16 18t-21 11t-21.5 3.5h-56l21 77q-37 11 -69 31.5t-55.5 50.5t-37 70t-13.5 91q0 68 23 117t60.5 81.5t84.5 48t96 15.5q53 0 90.5 -10t61 -27.5t34.5 -40t11 -47.5q0 -24 -19.5 -41t-47.5 -17t-47.5 17t-19.5 41q0 23 19.5 40t47.5 17q11 0 20 -3
q-17 29 -52.5 46t-93.5 18q-78 1 -111.5 -60t-33.5 -195q0 -133 38.5 -191.5t116.5 -58.5q32 0 65 11.5t59 32.5t43 51.5t18 69.5l7 2q0 -39 -16.5 -71t-43.5 -55t-61.5 -35.5t-70.5 -12.5z" />
    <glyph glyph-name="egrave" unicode="&#xe8;" 
d="M336 651q-27 24 -57.5 62t-52.5 71l-11 16h83l11 -16q23 -33 43 -70.5t26 -62.5h-42zM330 -3q23 0 59 10t70 32.5t58.5 58.5t24.5 88h6q0 -53 -23.5 -90.5t-57 -61t-71 -34t-66.5 -10.5q-58 0 -112.5 14.5t-96 46t-66.5 80t-25 116.5t24.5 117t62.5 81.5t84 48t90 15.5
q48 0 95 -16t84 -48t60.5 -81.5t23.5 -116.5h-122q0 66 -13.5 114.5t-34 80t-45.5 46t-48 14.5t-47 -14.5t-44 -45t-32.5 -77t-13.5 -111.5h277v-7h-277q0 -67 14.5 -114.5t39 -77.5t56.5 -44t66 -14z" />
    <glyph glyph-name="eacute" unicode="&#xe9;" 
d="M368 784q-22 -33 -53 -71t-58 -62h-42q6 25 26.5 62.5t42.5 70.5l12 16h82zM330 -3q23 0 59 10t70 32.5t58.5 58.5t24.5 88h6q0 -53 -23.5 -90.5t-57 -61t-71 -34t-66.5 -10.5q-58 0 -112.5 14.5t-96 46t-66.5 80t-25 116.5t24.5 117t62.5 81.5t84 48t90 15.5
q48 0 95 -16t84 -48t60.5 -81.5t23.5 -116.5h-122q0 66 -13.5 114.5t-34 80t-45.5 46t-48 14.5t-47 -14.5t-44 -45t-32.5 -77t-13.5 -111.5h277v-7h-277q0 -67 14.5 -114.5t39 -77.5t56.5 -44t66 -14z" />
    <glyph glyph-name="ecircumflex" unicode="&#xea;" 
d="M295 784q-22 -33 -53 -71t-58 -62h-42q6 25 26.5 62.5t42.5 70.5l12 16h147l11 -16q23 -33 43 -70.5t26 -62.5h-42q-27 24 -57.5 62t-52.5 71l-2 2zM330 -3q23 0 59 10t70 32.5t58.5 58.5t24.5 88h6q0 -53 -23.5 -90.5t-57 -61t-71 -34t-66.5 -10.5q-58 0 -112.5 14.5
t-96 46t-66.5 80t-25 116.5t24.5 117t62.5 81.5t84 48t90 15.5q48 0 95 -16t84 -48t60.5 -81.5t23.5 -116.5h-122q0 66 -13.5 114.5t-34 80t-45.5 46t-48 14.5t-47 -14.5t-44 -45t-32.5 -77t-13.5 -111.5h277v-7h-277q0 -67 14.5 -114.5t39 -77.5t56.5 -44t66 -14z" />
    <glyph glyph-name="edieresis" unicode="&#xeb;" 
d="M199 700v64h62v-64h-62zM330 700v64h62v-64h-62zM330 -3q23 0 59 10t70 32.5t58.5 58.5t24.5 88h6q0 -53 -23.5 -90.5t-57 -61t-71 -34t-66.5 -10.5q-58 0 -112.5 14.5t-96 46t-66.5 80t-25 116.5t24.5 117t62.5 81.5t84 48t90 15.5q48 0 95 -16t84 -48t60.5 -81.5
t23.5 -116.5h-122q0 66 -13.5 114.5t-34 80t-45.5 46t-48 14.5t-47 -14.5t-44 -45t-32.5 -77t-13.5 -111.5h277v-7h-277q0 -67 14.5 -114.5t39 -77.5t56.5 -44t66 -14z" />
    <glyph glyph-name="igrave" unicode="&#xec;" horiz-adv-x="334" 
d="M180 784q23 -33 43 -70.5t26 -62.5h-42q-27 24 -57.5 62t-52.5 71l-11 16h83zM226 131q0 -37 8.5 -61t20.5 -38t25.5 -19.5t23.5 -5.5v-7h-274v7q10 0 23.5 5t26 19t21.5 38t9 61v242q0 36 -8.5 59t-20.5 37t-25.5 19.5t-23.5 5.5v7h194v-369z" />
    <glyph glyph-name="iacute" unicode="&#xed;" horiz-adv-x="334" 
d="M239 784q-22 -33 -53 -71t-58 -62h-42q6 25 26.5 62.5t42.5 70.5l12 16h82zM226 131q0 -37 8.5 -61t20.5 -38t25.5 -19.5t23.5 -5.5v-7h-274v7q10 0 23.5 5t26 19t21.5 38t9 61v242q0 36 -8.5 59t-20.5 37t-25.5 19.5t-23.5 5.5v7h194v-369z" />
    <glyph glyph-name="icircumflex" unicode="&#xee;" horiz-adv-x="334" 
d="M166 784q-22 -33 -53 -71t-58 -62h-42q6 25 26.5 62.5t42.5 70.5l12 16h147l11 -16q23 -33 43 -70.5t26 -62.5h-42q-27 24 -57.5 62t-52.5 71l-2 2zM226 131q0 -37 8.5 -61t20.5 -38t25.5 -19.5t23.5 -5.5v-7h-274v7q10 0 23.5 5t26 19t21.5 38t9 61v242q0 36 -8.5 59
t-20.5 37t-25.5 19.5t-23.5 5.5v7h194v-369z" />
    <glyph glyph-name="idieresis" unicode="&#xef;" horiz-adv-x="334" 
d="M132 700h-62v64h62v-64zM263 700h-62v64h62v-64zM226 131q0 -37 8.5 -61t20.5 -38t25.5 -19.5t23.5 -5.5v-7h-274v7q10 0 23.5 5t26 19t21.5 38t9 61v242q0 36 -8.5 59t-20.5 37t-25.5 19.5t-23.5 5.5v7h194v-369z" />
    <glyph glyph-name="eth" unicode="&#xf0;" horiz-adv-x="595" 
d="M476 613q43 -48 66 -114t23 -149q0 -82 -22 -148.5t-59.5 -113.5t-87 -72.5t-103.5 -25.5q-43 0 -89.5 14.5t-85 43.5t-63.5 73.5t-25 104.5q0 59 20 99t55.5 64.5t85 35.5t108.5 11q42 0 78 -7.5t63 -26.5q0 104 -27 173l-82 -34l73 56q-50 103 -156 105
q-38 -1 -70.5 -15.5t-56.5 -39.5t-37.5 -57.5t-13.5 -68.5v-13h-7v198h7q0 -15 26 -15q25 1 63 9t89 9q65 0 118.5 -21t94.5 -59l76 31zM293 -3q39 1 67 26t46 70.5t26.5 109t8.5 142.5l-1 39q-28 26 -67.5 34t-73.5 8q-48 0 -76.5 -17.5t-43.5 -46t-19.5 -65t-4.5 -74.5
q0 -116 36 -171t102 -55z" />
    <glyph glyph-name="ntilde" unicode="&#xf1;" horiz-adv-x="701" 
d="M205 702v18q0 47 21.5 64t48.5 18q21 0 40 -6t36 -13.5t32 -13.5t28 -6q9 0 19.5 4.5t10.5 15.5v17h54v-22q0 -44 -20 -60t-43 -17q-19 0 -38 7.5t-36.5 16.5t-34 16.5t-31.5 7.5q-11 0 -21.5 -6.5t-10.5 -23.5v-17h-55zM399 511q89 -1 141.5 -45.5t52.5 -139.5l-112 12
q0 67 -30 109.5t-87 42.5q-45 0 -80 -23t-62 -58v-278q0 -32 8.5 -55.5t20.5 -38.5t25.5 -22.5t23.5 -7.5v-7h-270v7q10 0 23.5 7t26 21.5t21.5 38t9 56.5v242q0 31 -8.5 54t-20.5 38t-25.5 22t-23.5 7v7h190v-78q31 37 74 63t103 26zM593 131q0 -32 8.5 -55.5t20.5 -38.5
t25.5 -22.5t23.5 -7.5v-7h-271v7q10 0 23.5 7t26 21.5t21.5 38t9 56.5v208l113 -12v-195z" />
    <glyph glyph-name="ograve" unicode="&#xf2;" 
d="M309 784q23 -33 43 -70.5t26 -62.5h-42q-27 24 -57.5 62t-52.5 71l-11 16h83zM291 -10q-46 0 -92.5 14.5t-84 46t-61 80t-23.5 116.5t23.5 117t61 81.5t84 48t92.5 15.5q45 0 91.5 -15.5t85 -48t62.5 -81.5t24 -117t-24 -116.5t-62.5 -80t-85 -46t-91.5 -14.5zM291 -3
q67 0 103.5 58.5t36.5 191.5q0 134 -36.5 194.5t-103.5 60.5q-69 0 -104 -60.5t-35 -194.5q0 -133 35.5 -191.5t103.5 -58.5z" />
    <glyph glyph-name="oacute" unicode="&#xf3;" 
d="M368 784q-22 -33 -53 -71t-58 -62h-42q6 25 26.5 62.5t42.5 70.5l12 16h82zM291 -10q-46 0 -92.5 14.5t-84 46t-61 80t-23.5 116.5t23.5 117t61 81.5t84 48t92.5 15.5q45 0 91.5 -15.5t85 -48t62.5 -81.5t24 -117t-24 -116.5t-62.5 -80t-85 -46t-91.5 -14.5zM291 -3
q67 0 103.5 58.5t36.5 191.5q0 134 -36.5 194.5t-103.5 60.5q-69 0 -104 -60.5t-35 -194.5q0 -133 35.5 -191.5t103.5 -58.5z" />
    <glyph glyph-name="ocircumflex" unicode="&#xf4;" 
d="M295 784q-22 -33 -53 -71t-58 -62h-42q6 25 26.5 62.5t42.5 70.5l12 16h147l11 -16q23 -33 43 -70.5t26 -62.5h-42q-27 24 -57.5 62t-52.5 71l-2 2zM291 509q45 0 91.5 -15.5t85 -48t62.5 -81.5t24 -117t-24 -116.5t-62.5 -80t-85 -46t-91.5 -14.5q-46 0 -92.5 14.5
t-84 46t-61 80t-23.5 116.5t23.5 117t61 81.5t84 48t92.5 15.5zM291 -3q67 0 103.5 58.5t36.5 191.5q0 134 -36.5 194.5t-103.5 60.5q-69 0 -104 -60.5t-35 -194.5q0 -133 35.5 -191.5t103.5 -58.5z" />
    <glyph glyph-name="otilde" unicode="&#xf5;" 
d="M151 720q0 47 21.5 64t48.5 18q21 0 40 -6t36 -13.5t32 -13.5t28 -6q9 0 19.5 4.5t10.5 15.5v17h54v-22q0 -44 -20 -60t-43 -17q-19 0 -38 7.5t-36.5 16.5t-34 16.5t-31.5 7.5q-11 0 -21.5 -6.5t-10.5 -23.5v-17h-55v18zM291 -10q-46 0 -92.5 14.5t-84 46t-61 80
t-23.5 116.5t23.5 117t61 81.5t84 48t92.5 15.5q45 0 91.5 -15.5t85 -48t62.5 -81.5t24 -117t-24 -116.5t-62.5 -80t-85 -46t-91.5 -14.5zM291 -3q67 0 103.5 58.5t36.5 191.5q0 134 -36.5 194.5t-103.5 60.5q-69 0 -104 -60.5t-35 -194.5q0 -133 35.5 -191.5t103.5 -58.5z
" />
    <glyph glyph-name="odieresis" unicode="&#xf6;" 
d="M261 700h-62v64h62v-64zM392 700h-62v64h62v-64zM291 -10q-46 0 -92.5 14.5t-84 46t-61 80t-23.5 116.5t23.5 117t61 81.5t84 48t92.5 15.5q45 0 91.5 -15.5t85 -48t62.5 -81.5t24 -117t-24 -116.5t-62.5 -80t-85 -46t-91.5 -14.5zM291 -3q67 0 103.5 58.5t36.5 191.5
q0 134 -36.5 194.5t-103.5 60.5q-69 0 -104 -60.5t-35 -194.5q0 -133 35.5 -191.5t103.5 -58.5z" />
    <glyph glyph-name="divide" unicode="&#xf7;" horiz-adv-x="353" 
d="M139 371q0 12 9.5 20t24.5 8q14 0 23.5 -8t9.5 -20q0 -13 -9.5 -21t-23.5 -8q-15 0 -24.5 8t-9.5 21zM323 214h-293v57h293v-57zM139 115q0 12 9.5 20t24.5 8q14 0 23.5 -8t9.5 -20q0 -13 -9.5 -21t-23.5 -8q-15 0 -24.5 8t-9.5 21z" />
    <glyph glyph-name="oslash" unicode="&#xf8;" 
d="M388 492q33 -12 63.5 -33.5t53 -51.5t36 -70t13.5 -90q0 -68 -24 -116.5t-62.5 -80t-85 -46t-91.5 -14.5q-19 0 -40 3l-27 -101h-66l32 116q-33 12 -62 32.5t-50.5 50t-34.5 68.5t-13 88q0 68 23.5 117t61 81.5t84 48t92.5 15.5q8 0 17 -0.5t18 -1.5l24 88h66zM153 247
q0 -76 11.5 -127t33.5 -80l126 458q-15 4 -33 4q-68 0 -103 -60.5t-35 -194.5zM291 -3q68 0 104.5 58.5t36.5 191.5q0 80 -13 133t-39 83l-126 -461q18 -5 37 -5z" />
    <glyph glyph-name="ugrave" unicode="&#xf9;" horiz-adv-x="688" 
d="M384 651q-27 24 -57.5 62t-52.5 71l-11 16h83l11 -16q23 -33 43 -70.5t26 -62.5h-42zM580 128q0 -34 8.5 -57.5t20.5 -37.5t25.5 -20t23.5 -6v-7h-190v68q-26 -34 -64.5 -56.5t-92.5 -22.5q-44 0 -81.5 11t-64.5 32.5t-42 53.5t-15 74v209q0 36 -8.5 60t-20.5 38.5
t-25.5 20t-23.5 5.5v7h190l1 -352q0 -29 8.5 -54t24 -44t37 -29.5t46.5 -10.5q45 0 76.5 20.5t54.5 52.5v286q0 36 -8.5 60t-20.5 38.5t-25.5 20t-23.5 5.5v7h190v-372z" />
    <glyph glyph-name="uacute" unicode="&#xfa;" horiz-adv-x="688" 
d="M416 784q-22 -33 -53 -71t-58 -62h-42q6 25 26.5 62.5t42.5 70.5l12 16h82zM580 128q0 -34 8.5 -57.5t20.5 -37.5t25.5 -20t23.5 -6v-7h-190v68q-26 -34 -64.5 -56.5t-92.5 -22.5q-44 0 -81.5 11t-64.5 32.5t-42 53.5t-15 74v209q0 36 -8.5 60t-20.5 38.5t-25.5 20
t-23.5 5.5v7h190l1 -352q0 -29 8.5 -54t24 -44t37 -29.5t46.5 -10.5q45 0 76.5 20.5t54.5 52.5v286q0 36 -8.5 60t-20.5 38.5t-25.5 20t-23.5 5.5v7h190v-372z" />
    <glyph glyph-name="ucircumflex" unicode="&#xfb;" horiz-adv-x="688" 
d="M343 784q-22 -33 -53 -71t-58 -62h-42q6 25 26.5 62.5t42.5 70.5l12 16h147l11 -16q23 -33 43 -70.5t26 -62.5h-42q-27 24 -57.5 62t-52.5 71l-2 2zM580 128q0 -34 8.5 -57.5t20.5 -37.5t25.5 -20t23.5 -6v-7h-190v68q-26 -34 -64.5 -56.5t-92.5 -22.5q-44 0 -81.5 11
t-64.5 32.5t-42 53.5t-15 74v209q0 36 -8.5 60t-20.5 38.5t-25.5 20t-23.5 5.5v7h190l1 -352q0 -29 8.5 -54t24 -44t37 -29.5t46.5 -10.5q45 0 76.5 20.5t54.5 52.5v286q0 36 -8.5 60t-20.5 38.5t-25.5 20t-23.5 5.5v7h190v-372z" />
    <glyph glyph-name="udieresis" unicode="&#xfc;" horiz-adv-x="688" 
d="M247 700v64h62v-64h-62zM378 700v64h62v-64h-62zM580 128q0 -34 8.5 -57.5t20.5 -37.5t25.5 -20t23.5 -6v-7h-190v68q-26 -34 -64.5 -56.5t-92.5 -22.5q-44 0 -81.5 11t-64.5 32.5t-42 53.5t-15 74v209q0 36 -8.5 60t-20.5 38.5t-25.5 20t-23.5 5.5v7h190l1 -352
q0 -29 8.5 -54t24 -44t37 -29.5t46.5 -10.5q45 0 76.5 20.5t54.5 52.5v286q0 36 -8.5 60t-20.5 38.5t-25.5 20t-23.5 5.5v7h190v-372z" />
    <glyph glyph-name="yacute" unicode="&#xfd;" horiz-adv-x="676" 
d="M413 784q-22 -33 -53 -71t-58 -62h-42q6 25 26.5 62.5t42.5 70.5l12 16h82zM646 493q-11 0 -26.5 -6t-33 -23t-37.5 -46t-40 -76l-170 -390q-15 -34 -35.5 -56t-44.5 -35t-50.5 -18.5t-53.5 -5.5q-28 0 -47.5 17t-19.5 41q0 23 19.5 40t47.5 17t47.5 -17t19.5 -40
q0 -14 -6 -24q30 2 59.5 18t50.5 65l13 32l-174 358q-22 46 -42 75t-36.5 45.5t-29.5 22.5t-22 6v7h284v-7q-17 0 -31 -9t-20 -27.5t-2 -46.5t24 -66l112 -215l95 216q20 46 22 75t-7 45t-26 22t-35 6v7h195v-7z" />
    <glyph glyph-name="thorn" unicode="&#xfe;" horiz-adv-x="596" 
d="M330 509q48 0 90.5 -17.5t75 -51.5t51.5 -82.5t19 -110.5q0 -63 -19 -111.5t-51.5 -80.5t-75 -48.5t-90.5 -16.5q-26 0 -53 9.5t-53 29.5v-98q0 -36 8.5 -60t20.5 -38t25.5 -20t23.5 -6v-7h-272v7q10 0 23.5 5.5t26 19.5t21.5 37.5t9 60.5v742q0 37 -8.5 60.5t-20.5 37
t-25.5 18.5t-23.5 5v7h192v-332q26 20 53 30.5t53 10.5zM330 -3q23 0 43.5 14t36 44t25 77.5t9.5 114.5q0 66 -9.5 114.5t-25 79.5t-36 46t-43.5 15q-24 0 -52 -12t-54 -37v-409q26 -24 54 -35.5t52 -11.5z" />
    <glyph glyph-name="ydieresis" unicode="&#xff;" horiz-adv-x="676" 
d="M244 700v64h62v-64h-62zM375 700v64h62v-64h-62zM646 493q-11 0 -26.5 -6t-33 -23t-37.5 -46t-40 -76l-170 -390q-15 -34 -35.5 -56t-44.5 -35t-50.5 -18.5t-53.5 -5.5q-28 0 -47.5 17t-19.5 41q0 23 19.5 40t47.5 17t47.5 -17t19.5 -40q0 -14 -6 -24q30 2 59.5 18
t50.5 65l13 32l-174 358q-22 46 -42 75t-36.5 45.5t-29.5 22.5t-22 6v7h284v-7q-17 0 -31 -9t-20 -27.5t-2 -46.5t24 -66l112 -215l95 216q20 46 22 75t-7 45t-26 22t-35 6v7h195v-7z" />
    <glyph glyph-name="Amacron" unicode="&#x100;" horiz-adv-x="792" 
d="M484 900h-176v64h176v-64zM584 228q27 -72 50 -116t44.5 -67t42 -30.5t41.5 -7.5v-7h-339v7q29 0 49 8t27.5 30t2.5 60.5t-25 99.5h-265q-22 -66 -27 -105.5t3.5 -60t26.5 -26.5t41 -6v-7h-226v7q17 0 37 7.5t42.5 31.5t47.5 68.5t52 118.5l173 467h28zM345 567
l-124 -337l-6 -17h259l-5 15z" />
    <glyph glyph-name="amacron" unicode="&#x101;" horiz-adv-x="634" 
d="M229 700v64h176v-64h-176zM524 130q0 -36 9 -59.5t21.5 -38t26 -20t23.5 -5.5v-7h-122q-32 0 -50 24t-21 65q-15 -57 -56.5 -79t-97.5 -22q-227 0 -227 154q0 38 20 62.5t53 41t76 27t89 19.5q14 3 33 6.5t38.5 10.5t37 18.5t28.5 30.5q-11 65 -46.5 104t-92.5 39
q-50 0 -82.5 -16t-50.5 -36q27 -1 46 -17.5t19 -39.5q0 -24 -19.5 -41t-47.5 -17q-27 0 -47 17t-20 41q0 28 18 50t47.5 37t66 23t72.5 8q63 -1 110.5 -13t80 -38.5t49 -68.5t16.5 -103v-157zM257 -5q32 0 60 7t48.5 25t32.5 48t12 76v148q0 23 -3 44q-12 -15 -28.5 -25
t-33.5 -15.5t-33 -8.5t-26 -5q-17 -4 -41.5 -14t-47 -28t-38.5 -43.5t-16 -60.5q0 -42 13.5 -70.5t32 -45.5t37.5 -24.5t31 -7.5z" />
    <glyph glyph-name="Abreve" unicode="&#x102;" horiz-adv-x="792" 
d="M505 1007q0 -22 -8.5 -41.5t-23 -34t-34 -23t-42.5 -8.5t-43 8.5t-35 23t-23.5 34t-8.5 41.5v2h47v-2q0 -26 18 -42.5t45 -16.5q26 0 44 16.5t18 42.5v2h46v-2zM584 228q27 -72 50 -116t44.5 -67t42 -30.5t41.5 -7.5v-7h-339v7q29 0 49 8t27.5 30t2.5 60.5t-25 99.5h-265
q-22 -66 -27 -105.5t3.5 -60t26.5 -26.5t41 -6v-7h-226v7q17 0 37 7.5t42.5 31.5t47.5 68.5t52 118.5l173 467h28zM345 567l-124 -337l-6 -17h259l-5 15z" />
    <glyph glyph-name="abreve" unicode="&#x103;" horiz-adv-x="634" 
d="M318 700q-23 0 -43 8.5t-35 23t-23.5 34t-8.5 41.5v2h47v-2q0 -26 18 -42.5t45 -16.5q26 0 44 16.5t18 42.5v2h46v-2q0 -22 -8.5 -41.5t-23 -34t-34 -23t-42.5 -8.5zM524 130q0 -36 9 -59.5t21.5 -38t26 -20t23.5 -5.5v-7h-122q-32 0 -50 24t-21 65q-15 -57 -56.5 -79
t-97.5 -22q-227 0 -227 154q0 38 20 62.5t53 41t76 27t89 19.5q14 3 33 6.5t38.5 10.5t37 18.5t28.5 30.5q-11 65 -46.5 104t-92.5 39q-50 0 -82.5 -16t-50.5 -36q27 -1 46 -17.5t19 -39.5q0 -24 -19.5 -41t-47.5 -17q-27 0 -47 17t-20 41q0 28 18 50t47.5 37t66 23t72.5 8
q63 -1 110.5 -13t80 -38.5t49 -68.5t16.5 -103v-157zM257 -5q32 0 60 7t48.5 25t32.5 48t12 76v148q0 23 -3 44q-12 -15 -28.5 -25t-33.5 -15.5t-33 -8.5t-26 -5q-17 -4 -41.5 -14t-47 -28t-38.5 -43.5t-16 -60.5q0 -42 13.5 -70.5t32 -45.5t37.5 -24.5t31 -7.5z" />
    <glyph glyph-name="Aogonek" unicode="&#x104;" horiz-adv-x="792" 
d="M675 0l1 -2q9 -36 -5.5 -53t-36 -26.5t-41 -18t-19.5 -29.5q0 -17 6.5 -27t15 -16t16.5 -8t10 -2h11q29 0 44 5.5t20 14.5q-6 -3 -13 -3q-12 0 -20.5 7t-8.5 17q0 11 8.5 18t20.5 7q11 0 20 -8t9 -24q0 -18 -18 -35t-62 -17h-3q-53 0 -84 18t-31 56q0 19 12 30t29.5 17.5
t37 11t35.5 11.5t24.5 19t3.5 33l-1 4h-233v7q29 0 49 8t27.5 30t2.5 60.5t-25 99.5h-265q-22 -66 -27 -105.5t3.5 -60t26.5 -26.5t41 -6v-7h-226v7q17 0 37 7.5t42.5 31.5t47.5 68.5t52 118.5l173 467h28l174 -472q27 -72 50 -116t44.5 -67t42 -30.5t41.5 -7.5v-7h-87z
M469 228l-124 339l-124 -337l-6 -17h259z" />
    <glyph glyph-name="aogonek" unicode="&#x105;" horiz-adv-x="634" 
d="M533 0l1 -2q9 -36 -5.5 -53t-36 -26.5t-41 -18t-19.5 -29.5q0 -17 6.5 -27t15 -16t16.5 -8t10 -2h11q29 0 44 5.5t20 14.5q-6 -3 -13 -3q-12 0 -20.5 7t-8.5 17q0 11 8.5 18t20.5 7q11 0 20 -8t9 -24q0 -18 -18 -35t-62 -17h-3q-53 0 -84 18t-31 56q0 19 12 30t29.5 17.5
t37 11t35.5 11.5t24.5 19t3.5 33l-1 4h-32q-32 0 -50 24t-21 65q-15 -57 -56.5 -79t-97.5 -22q-227 0 -227 154q0 38 20 62.5t53 41t76 27t89 19.5q14 3 33 6.5t38.5 10.5t37 18.5t28.5 30.5q-11 65 -46.5 104t-92.5 39q-50 0 -82.5 -16t-50.5 -36q27 -1 46 -17.5t19 -39.5
q0 -24 -19.5 -41t-47.5 -17q-27 0 -47 17t-20 41q0 28 18 50t47.5 37t66 23t72.5 8q63 -1 110.5 -13t80 -38.5t49 -68.5t16.5 -103v-157q0 -36 9 -59.5t21.5 -38t26 -20t23.5 -5.5v-7h-71zM257 -5q32 0 60 7t48.5 25t32.5 48t12 76v148q0 23 -3 44q-12 -15 -28.5 -25
t-33.5 -15.5t-33 -8.5t-26 -5q-17 -4 -41.5 -14t-47 -28t-38.5 -43.5t-16 -60.5q0 -42 13.5 -70.5t32 -45.5t37.5 -24.5t31 -7.5z" />
    <glyph glyph-name="Cacute" unicode="&#x106;" horiz-adv-x="593" 
d="M368 984q-22 -33 -53 -71t-58 -62h-42q6 25 26.5 62.5t42.5 70.5l12 16h82zM545 251q5 -13 8 -31.5t3 -47.5q0 -36 -14 -69t-40 -58t-63 -40t-83 -15q-76 0 -136.5 25.5t-102.5 72.5t-64.5 113.5t-22.5 148.5t22 148.5t64 113.5t101.5 72.5t134.5 24.5q51 -1 89 -9t63 -9
q26 0 26 15h7v-198h-7v13q0 36 -13.5 68.5t-37.5 57.5t-56.5 40t-70.5 15q-43 1 -80 -24t-64 -71t-42.5 -111.5t-15.5 -145.5q0 -81 17.5 -146t46.5 -111t66 -71t76 -25q41 0 76.5 14.5t61.5 38.5t41 56t15 66q0 24 -3.5 42.5t-8.5 32.5z" />
    <glyph glyph-name="cacute" unicode="&#x107;" horiz-adv-x="530" 
d="M337 784q-22 -33 -53 -71t-58 -62h-42q6 25 26.5 62.5t42.5 70.5l12 16h82zM500 164q0 -39 -16.5 -71t-43.5 -55t-61.5 -35.5t-70.5 -12.5q-54 0 -104 14.5t-89 46t-62 80t-23 116.5t23 117t60.5 81.5t84.5 48t96 15.5q53 0 90.5 -10t61 -27.5t34.5 -40t11 -47.5
q0 -24 -19.5 -41t-47.5 -17t-47.5 17t-19.5 41q0 23 19.5 40t47.5 17q11 0 20 -3q-17 29 -52.5 46t-93.5 18q-78 1 -111.5 -60t-33.5 -195q0 -133 38.5 -191.5t116.5 -58.5q32 0 65 11.5t59 32.5t43 51.5t18 69.5z" />
    <glyph glyph-name="Cdotaccent" unicode="&#x10a;" horiz-adv-x="593" 
d="M328 900h-62v64h62v-64zM545 251q5 -13 8 -31.5t3 -47.5q0 -36 -14 -69t-40 -58t-63 -40t-83 -15q-76 0 -136.5 25.5t-102.5 72.5t-64.5 113.5t-22.5 148.5t22 148.5t64 113.5t101.5 72.5t134.5 24.5q51 -1 89 -9t63 -9q26 0 26 15h7v-198h-7v13q0 36 -13.5 68.5
t-37.5 57.5t-56.5 40t-70.5 15q-43 1 -80 -24t-64 -71t-42.5 -111.5t-15.5 -145.5q0 -81 17.5 -146t46.5 -111t66 -71t76 -25q41 0 76.5 14.5t61.5 38.5t41 56t15 66q0 24 -3.5 42.5t-8.5 32.5z" />
    <glyph glyph-name="cdotaccent" unicode="&#x10b;" horiz-adv-x="530" 
d="M234 700v64h62v-64h-62zM500 164q0 -39 -16.5 -71t-43.5 -55t-61.5 -35.5t-70.5 -12.5q-54 0 -104 14.5t-89 46t-62 80t-23 116.5t23 117t60.5 81.5t84.5 48t96 15.5q53 0 90.5 -10t61 -27.5t34.5 -40t11 -47.5q0 -24 -19.5 -41t-47.5 -17t-47.5 17t-19.5 41
q0 23 19.5 40t47.5 17q11 0 20 -3q-17 29 -52.5 46t-93.5 18q-78 1 -111.5 -60t-33.5 -195q0 -133 38.5 -191.5t116.5 -58.5q32 0 65 11.5t59 32.5t43 51.5t18 69.5z" />
    <glyph glyph-name="Ccaron" unicode="&#x10c;" horiz-adv-x="593" 
d="M263 851q-27 24 -57.5 62t-52.5 71l-11 16h83l11 -16q17 -26 33.5 -55t27.5 -53q10 24 26.5 53t33.5 55l12 16h82l-10 -16q-22 -33 -53 -71t-58 -62h-67zM545 251q5 -13 8 -31.5t3 -47.5q0 -36 -14 -69t-40 -58t-63 -40t-83 -15q-76 0 -136.5 25.5t-102.5 72.5
t-64.5 113.5t-22.5 148.5t22 148.5t64 113.5t101.5 72.5t134.5 24.5q51 -1 89 -9t63 -9q26 0 26 15h7v-198h-7v13q0 36 -13.5 68.5t-37.5 57.5t-56.5 40t-70.5 15q-43 1 -80 -24t-64 -71t-42.5 -111.5t-15.5 -145.5q0 -81 17.5 -146t46.5 -111t66 -71t76 -25q41 0 76.5 14.5
t61.5 38.5t41 56t15 66q0 24 -3.5 42.5t-8.5 32.5z" />
    <glyph glyph-name="ccaron" unicode="&#x10d;" horiz-adv-x="530" 
d="M232 651q-27 24 -57.5 62t-52.5 71l-11 16h83l11 -16q17 -26 33.5 -55t27.5 -53q10 24 26.5 53t33.5 55l12 16h82l-10 -16q-22 -33 -53 -71t-58 -62h-67zM500 164q0 -39 -16.5 -71t-43.5 -55t-61.5 -35.5t-70.5 -12.5q-54 0 -104 14.5t-89 46t-62 80t-23 116.5t23 117
t60.5 81.5t84.5 48t96 15.5q53 0 90.5 -10t61 -27.5t34.5 -40t11 -47.5q0 -24 -19.5 -41t-47.5 -17t-47.5 17t-19.5 41q0 23 19.5 40t47.5 17q11 0 20 -3q-17 29 -52.5 46t-93.5 18q-78 1 -111.5 -60t-33.5 -195q0 -133 38.5 -191.5t116.5 -58.5q32 0 65 11.5t59 32.5
t43 51.5t18 69.5z" />
    <glyph glyph-name="Dcaron" unicode="&#x10e;" horiz-adv-x="681" 
d="M308 851q-27 24 -57.5 62t-52.5 71l-11 16h83l11 -16q17 -26 33.5 -55t27.5 -53q10 24 26.5 53t33.5 55l12 16h82l-10 -16q-22 -33 -53 -71t-58 -62h-67zM305 700q75 0 138.5 -24t109.5 -69.5t72 -110.5t26 -147t-27.5 -147t-74.5 -110t-110 -68.5t-134 -23.5h-275v7
q10 0 23.5 7t26 21.5t21.5 38t9 56.5v442q0 31 -8.5 54t-20.5 38t-25.5 22t-23.5 7v7h273zM305 8q42 0 81.5 23.5t71 67.5t50.5 107t19 143t-19 143.5t-50.5 107.5t-71 68t-81.5 24h-82v-684h82z" />
    <glyph glyph-name="dcaron" unicode="&#x10f;" horiz-adv-x="762" 
d="M643 800q16 0 32 -6.5t28.5 -19.5t20.5 -33t8 -48q0 -18 -5.5 -36.5t-16 -34.5t-26 -28t-34.5 -17l-1 4q16 5 22 17.5t6 31.5q0 10 -2.5 16t-10.5 4q-5 -1 -10.5 -1.5t-10.5 -0.5q-38 0 -64.5 22.5t-26.5 54.5t26.5 53.5t64.5 21.5zM513 130q0 -38 9 -62t21.5 -37.5
t26 -18.5t23.5 -5v-7h-192v48q-28 -29 -59.5 -43.5t-59.5 -14.5q-44 0 -89 14.5t-81 46t-59 80t-23 116.5t23 117t59 81.5t81 48t89 15.5q28 0 59.5 -15t58.5 -45v146v76q0 36 -8.5 59t-20.5 37t-25.5 19.5t-23.5 5.5v7h191v-669zM282 -4q26 1 58.5 18t60.5 52l-1 365
q-28 36 -60 54t-58 17q-21 0 -44 -15t-42.5 -46.5t-32 -79.5t-12.5 -114q0 -67 12.5 -114.5t32 -78t42.5 -44.5t44 -14z" />
    <glyph glyph-name="Dcroat" unicode="&#x110;" horiz-adv-x="681" 
d="M305 700q75 0 138.5 -24t109.5 -69.5t72 -110.5t26 -147t-27.5 -147t-74.5 -110t-110 -68.5t-134 -23.5h-275v7q10 0 23.5 7t26 21.5t21.5 38t9 56.5v208h-45v32h45v202q0 31 -8.5 54t-20.5 38t-25.5 22t-23.5 7v7h273zM305 8q42 0 81.5 23.5t71 67.5t50.5 107t19 143
t-19 143.5t-50.5 107.5t-71 68t-81.5 24h-82v-322h49v-32h-49v-330h82z" />
    <glyph glyph-name="dcroat" unicode="&#x111;" horiz-adv-x="623" 
d="M512 130q0 -38 9 -62t21.5 -37.5t26 -18.5t23.5 -5v-7h-192v35q-29 -23 -60 -34t-58 -11q-49 0 -94.5 14.5t-80.5 46t-56 80t-21 116.5t21 117t56 81.5t80.5 48t94.5 15.5q27 0 57.5 -12t59.5 -35v133v9h-51v64h51v3q0 36 -8.5 59t-20.5 37t-25.5 19.5t-23.5 5.5v7h191
v-131h62v-64h-62v-474zM282 -4q25 0 57 13.5t61 40.5l-1 397q-29 28 -60.5 41.5t-56.5 13.5q-23 0 -46.5 -15t-42 -46.5t-30.5 -79.5t-12 -114q0 -67 12 -114.5t30.5 -78t42 -44.5t46.5 -14z" />
    <glyph glyph-name="Emacron" unicode="&#x112;" horiz-adv-x="596" 
d="M386 900h-176v64h176v-64zM30 0v7q10 0 23.5 5.5t26 19.5t21.5 38t9 60v442q0 36 -8.5 59.5t-20.5 37t-25.5 19t-23.5 5.5v7h501v-204h-8q-6 39 -19 74.5t-38.5 62.5t-65.5 43t-100 16h-79v-318h42q18 0 40.5 7t42.5 20.5t34 33.5t14 46h8v-222h-8q0 26 -13.5 46
t-34 33.5t-43.5 20.5t-41 7h-41v-358h127q53 0 89 16t60 43t36.5 62.5t18.5 74.5h8v-204h-532z" />
    <glyph glyph-name="emacron" unicode="&#x113;" 
d="M208 700v64h176v-64h-176zM330 -3q23 0 59 10t70 32.5t58.5 58.5t24.5 88h6q0 -53 -23.5 -90.5t-57 -61t-71 -34t-66.5 -10.5q-58 0 -112.5 14.5t-96 46t-66.5 80t-25 116.5t24.5 117t62.5 81.5t84 48t90 15.5q48 0 95 -16t84 -48t60.5 -81.5t23.5 -116.5h-122
q0 66 -13.5 114.5t-34 80t-45.5 46t-48 14.5t-47 -14.5t-44 -45t-32.5 -77t-13.5 -111.5h277v-7h-277q0 -67 14.5 -114.5t39 -77.5t56.5 -44t66 -14z" />
    <glyph glyph-name="Edotaccent" unicode="&#x116;" horiz-adv-x="596" 
d="M329 900h-62v64h62v-64zM30 0v7q10 0 23.5 5.5t26 19.5t21.5 38t9 60v442q0 36 -8.5 59.5t-20.5 37t-25.5 19t-23.5 5.5v7h501v-204h-8q-6 39 -19 74.5t-38.5 62.5t-65.5 43t-100 16h-79v-318h42q18 0 40.5 7t42.5 20.5t34 33.5t14 46h8v-222h-8q0 26 -13.5 46t-34 33.5
t-43.5 20.5t-41 7h-41v-358h127q53 0 89 16t60 43t36.5 62.5t18.5 74.5h8v-204h-532z" />
    <glyph glyph-name="edotaccent" unicode="&#x117;" 
d="M265 700v64h62v-64h-62zM330 -3q23 0 59 10t70 32.5t58.5 58.5t24.5 88h6q0 -53 -23.5 -90.5t-57 -61t-71 -34t-66.5 -10.5q-58 0 -112.5 14.5t-96 46t-66.5 80t-25 116.5t24.5 117t62.5 81.5t84 48t90 15.5q48 0 95 -16t84 -48t60.5 -81.5t23.5 -116.5h-122
q0 66 -13.5 114.5t-34 80t-45.5 46t-48 14.5t-47 -14.5t-44 -45t-32.5 -77t-13.5 -111.5h277v-7h-277q0 -67 14.5 -114.5t39 -77.5t56.5 -44t66 -14z" />
    <glyph glyph-name="Eogonek" unicode="&#x118;" horiz-adv-x="596" 
d="M386 0v-2q9 -37 -6 -53.5t-36.5 -26t-40.5 -18t-19 -29.5q0 -17 6.5 -27t15 -16t16.5 -8t10 -2h11q29 0 44 5.5t20 14.5q-6 -3 -13 -3q-12 0 -20.5 7t-8.5 17q0 11 8.5 18t20.5 7q11 0 20 -8t9 -24q0 -18 -18 -35t-62 -17h-3q-53 0 -84 18t-31 56q0 19 12 30t29.5 17.5
t37 11t35.5 11.5t24.5 19t3.5 33l-1 4h-336v7q10 0 23.5 5.5t26 19.5t21.5 38t9 60v442q0 36 -8.5 59.5t-20.5 37t-25.5 19t-23.5 5.5v7h501v-204h-8q-6 39 -19 74.5t-38.5 62.5t-65.5 43t-100 16h-79v-318h42q18 0 40.5 7t42.5 20.5t34 33.5t14 46h8v-222h-8q0 26 -13.5 46
t-34 33.5t-43.5 20.5t-41 7h-41v-358h127q53 0 89 16t60 43t36.5 62.5t18.5 74.5h8v-204h-176z" />
    <glyph glyph-name="eogonek" unicode="&#x119;" 
d="M330 -3q23 0 59 10t70 32.5t58.5 58.5t24.5 88h6q0 -48 -19.5 -83t-48.5 -58.5t-63 -36.5t-63 -16q8 -35 -7.5 -50.5t-37 -24.5t-40.5 -18t-19 -29q0 -17 6.5 -27t15 -16t16.5 -8t10 -2h11q29 0 44 5.5t20 14.5q-6 -3 -13 -3q-12 0 -20.5 7t-8.5 17q0 11 8.5 18t20.5 7
q11 0 20 -8t9 -24q0 -18 -18 -35t-62 -17h-3q-53 0 -84 18t-31 56q0 19 11.5 29.5t28.5 17t36.5 11t35.5 11.5t25 18t6 30h-4q-58 0 -112.5 14.5t-96 46t-66.5 80t-25 116.5t24.5 117t62.5 81.5t84 48t90 15.5q48 0 95 -16t84 -48t60.5 -81.5t23.5 -116.5h-400
q0 -67 14.5 -114.5t39 -77.5t56.5 -44t66 -14zM291 502q-23 0 -47 -14.5t-44 -45t-32.5 -77t-13.5 -111.5h278q-1 65 -14.5 111.5t-34 77t-45 45t-47.5 14.5z" />
    <glyph glyph-name="Ecaron" unicode="&#x11a;" horiz-adv-x="596" 
d="M265 851q-27 24 -57.5 62t-52.5 71l-11 16h83l11 -16q17 -26 33.5 -55t27.5 -53q10 24 26.5 53t33.5 55l12 16h82l-10 -16q-22 -33 -53 -71t-58 -62h-67zM562 0h-532v7q10 0 23.5 5.5t26 19.5t21.5 38t9 60v442q0 36 -8.5 59.5t-20.5 37t-25.5 19t-23.5 5.5v7h501v-204
h-8q-6 39 -19 74.5t-38.5 62.5t-65.5 43t-100 16h-79v-318h42q18 0 40.5 7t42.5 20.5t34 33.5t14 46h8v-222h-8q0 26 -13.5 46t-34 33.5t-43.5 20.5t-41 7h-41v-358h127q53 0 89 16t60 43t36.5 62.5t18.5 74.5h8v-204z" />
    <glyph glyph-name="ecaron" unicode="&#x11b;" 
d="M263 651q-27 24 -57.5 62t-52.5 71l-11 16h83l11 -16q17 -26 33.5 -55t27.5 -53q10 24 26.5 53t33.5 55l12 16h82l-10 -16q-22 -33 -53 -71t-58 -62h-67zM330 -3q23 0 59 10t70 32.5t58.5 58.5t24.5 88h6q0 -53 -23.5 -90.5t-57 -61t-71 -34t-66.5 -10.5
q-58 0 -112.5 14.5t-96 46t-66.5 80t-25 116.5t24.5 117t62.5 81.5t84 48t90 15.5q48 0 95 -16t84 -48t60.5 -81.5t23.5 -116.5h-122q0 66 -13.5 114.5t-34 80t-45.5 46t-48 14.5t-47 -14.5t-44 -45t-32.5 -77t-13.5 -111.5h277v-7h-277q0 -67 14.5 -114.5t39 -77.5
t56.5 -44t66 -14z" />
    <glyph glyph-name="Gbreve" unicode="&#x11e;" horiz-adv-x="723" 
d="M363 900q-23 0 -43 8.5t-35 23t-23.5 34t-8.5 41.5v2h47v-2q0 -26 18 -42.5t45 -16.5q26 0 44 16.5t18 42.5v2h46v-2q0 -22 -8.5 -41.5t-23 -34t-34 -23t-42.5 -8.5zM693 352q-10 0 -23.5 -6.5t-26 -21t-21.5 -37.5t-9 -55v-49q0 -15 3.5 -34.5t9.5 -36.5t14.5 -29
t18.5 -12v-7q-28 0 -56.5 -11.5t-62.5 -25.5t-77 -25.5t-101 -11.5q-76 0 -137.5 25.5t-105 72.5t-66.5 113.5t-23 148.5t23 148.5t66 113.5t103.5 72.5t135.5 24.5q25 0 50 -3t47.5 -6t41.5 -6t31 -3q26 0 26 15h7v-189h-7v13q0 33 -16.5 63.5t-43.5 54.5t-62.5 39
t-73.5 15q-41 0 -78 -24.5t-65.5 -70.5t-45.5 -111.5t-17 -145.5q0 -81 18.5 -146t48 -111t67 -71t76.5 -25q63 2 101 33t38 91v110q0 32 -8.5 54.5t-20.5 37.5t-25.5 22t-23.5 7v7h270v-7z" />
    <glyph glyph-name="gbreve" unicode="&#x11f;" horiz-adv-x="613" 
d="M307 700q-23 0 -43 8.5t-35 23t-23.5 34t-8.5 41.5v2h47v-2q0 -26 18 -42.5t45 -16.5q26 0 44 16.5t18 42.5v2h46v-2q0 -22 -8.5 -41.5t-23 -34t-34 -23t-42.5 -8.5zM84 145q0 -36 38 -52t95 -23t123 -10.5t123 -14.5t95 -35.5t38 -72.5q0 -39 -24 -66.5t-65 -45t-94 -25
t-112 -7.5q-63 0 -112.5 12.5t-83 33.5t-50.5 48t-17 56q0 21 12 45t35 42q-25 14 -40 34.5t-15 50.5q0 20 15 45t45 43q-26 21 -41 50.5t-15 69.5q0 50 24 85t61 57.5t83 33t89 10.5q1 45 22.5 78.5t53.5 55t69 30t68.5 3.5t53 -24t21.5 -53q0 -24 -19.5 -41t-47.5 -17
t-47.5 17t-19.5 41q0 20 14 35t35 20q-27 6 -60.5 0.5t-62.5 -23t-49 -48t-21 -74.5q43 -1 88.5 -11.5t83 -32.5t61.5 -57t24 -85q0 -51 -25 -85t-63.5 -55t-85 -29.5t-89.5 -8.5q-51 0 -103.5 11.5t-91.5 39.5q-16 -21 -16 -51zM295 502q-66 0 -101 -39.5t-35 -139.5
q0 -50 9 -83t26 -52.5t42.5 -27.5t58.5 -8q34 0 60 8t44 27.5t27.5 52.5t9.5 83q0 100 -36.5 139.5t-104.5 39.5zM318 -197q20 0 47 4.5t52 14.5t42 27t17 41q0 26 -19.5 42t-51.5 26.5t-72.5 16.5t-83 12t-82.5 14.5t-71 23.5q-23 -19 -35.5 -41t-12.5 -39
q0 -36 21.5 -62.5t58.5 -44t86.5 -26.5t103.5 -9z" />
    <glyph glyph-name="Gdotaccent" unicode="&#x120;" horiz-adv-x="723" 
d="M331 900v64h62v-64h-62zM693 352q-10 0 -23.5 -6.5t-26 -21t-21.5 -37.5t-9 -55v-49q0 -15 3.5 -34.5t9.5 -36.5t14.5 -29t18.5 -12v-7q-28 0 -56.5 -11.5t-62.5 -25.5t-77 -25.5t-101 -11.5q-76 0 -137.5 25.5t-105 72.5t-66.5 113.5t-23 148.5t23 148.5t66 113.5
t103.5 72.5t135.5 24.5q25 0 50 -3t47.5 -6t41.5 -6t31 -3q26 0 26 15h7v-189h-7v13q0 33 -16.5 63.5t-43.5 54.5t-62.5 39t-73.5 15q-41 0 -78 -24.5t-65.5 -70.5t-45.5 -111.5t-17 -145.5q0 -81 18.5 -146t48 -111t67 -71t76.5 -25q63 2 101 33t38 91v110q0 32 -8.5 54.5
t-20.5 37.5t-25.5 22t-23.5 7v7h270v-7z" />
    <glyph glyph-name="gdotaccent" unicode="&#x121;" horiz-adv-x="613" 
d="M276 700v64h62v-64h-62zM84 145q0 -36 38 -52t95 -23t123 -10.5t123 -14.5t95 -35.5t38 -72.5q0 -39 -24 -66.5t-65 -45t-94 -25t-112 -7.5q-63 0 -112.5 12.5t-83 33.5t-50.5 48t-17 56q0 21 12 45t35 42q-25 14 -40 34.5t-15 50.5q0 20 15 45t45 43q-26 21 -41 50.5
t-15 69.5q0 50 24 85t61 57.5t83 33t89 10.5q1 45 22.5 78.5t53.5 55t69 30t68.5 3.5t53 -24t21.5 -53q0 -24 -19.5 -41t-47.5 -17t-47.5 17t-19.5 41q0 20 14 35t35 20q-27 6 -60.5 0.5t-62.5 -23t-49 -48t-21 -74.5q43 -1 88.5 -11.5t83 -32.5t61.5 -57t24 -85
q0 -51 -25 -85t-63.5 -55t-85 -29.5t-89.5 -8.5q-51 0 -103.5 11.5t-91.5 39.5q-16 -21 -16 -51zM295 502q-66 0 -101 -39.5t-35 -139.5q0 -50 9 -83t26 -52.5t42.5 -27.5t58.5 -8q34 0 60 8t44 27.5t27.5 52.5t9.5 83q0 100 -36.5 139.5t-104.5 39.5zM318 -197q20 0 47 4.5
t52 14.5t42 27t17 41q0 26 -19.5 42t-51.5 26.5t-72.5 16.5t-83 12t-82.5 14.5t-71 23.5q-23 -19 -35.5 -41t-12.5 -39q0 -36 21.5 -62.5t58.5 -44t86.5 -26.5t103.5 -9z" />
    <glyph glyph-name="Gcommaaccent" unicode="&#x122;" horiz-adv-x="723" 
d="M693 352q-10 0 -23.5 -6.5t-26 -21t-21.5 -37.5t-9 -55v-49q0 -15 3.5 -34.5t9.5 -36.5t14.5 -29t18.5 -12v-7q-28 0 -56.5 -11.5t-62.5 -25.5t-77 -25.5t-101 -11.5q-76 0 -137.5 25.5t-105 72.5t-66.5 113.5t-23 148.5t23 148.5t66 113.5t103.5 72.5t135.5 24.5
q25 0 50 -3t47.5 -6t41.5 -6t31 -3q26 0 26 15h7v-189h-7v13q0 33 -16.5 63.5t-43.5 54.5t-62.5 39t-73.5 15q-41 0 -78 -24.5t-65.5 -70.5t-45.5 -111.5t-17 -145.5q0 -81 18.5 -146t48 -111t67 -71t76.5 -25q63 2 101 33t38 91v110q0 32 -8.5 54.5t-20.5 37.5t-25.5 22
t-23.5 7v7h270v-7zM362 -49q20 0 38 -16t18 -51q0 -23 -13.5 -44t-37.5 -28l-1 3q11 2 14 10.5t3 19.5q0 14 -7 12q-4 0 -7 -0.5t-7 -0.5q-23 0 -39.5 14t-16.5 34t16.5 33.5t39.5 13.5z" />
    <glyph glyph-name="gcommaaccent" unicode="&#x123;" horiz-adv-x="613" 
d="M231 657q-20 0 -37.5 16t-17.5 51q0 22 13.5 43.5t36.5 27.5l1 -2q-17 -5 -17 -31q0 -5 1.5 -9.5t6.5 -2.5q3 0 6.5 0.5t6.5 0.5q23 0 39.5 -14t16.5 -34q0 -19 -16.5 -32.5t-39.5 -13.5zM84 145q0 -36 38 -52t95 -23t123 -10.5t123 -14.5t95 -35.5t38 -72.5
q0 -39 -24 -66.5t-65 -45t-94 -25t-112 -7.5q-63 0 -112.5 12.5t-83 33.5t-50.5 48t-17 56q0 21 12 45t35 42q-25 14 -40 34.5t-15 50.5q0 20 15 45t45 43q-26 21 -41 50.5t-15 69.5q0 50 24 85t61 57.5t83 33t89 10.5q1 45 22.5 78.5t53.5 55t69 30t68.5 3.5t53 -24
t21.5 -53q0 -24 -19.5 -41t-47.5 -17t-47.5 17t-19.5 41q0 20 14 35t35 20q-27 6 -60.5 0.5t-62.5 -23t-49 -48t-21 -74.5q43 -1 88.5 -11.5t83 -32.5t61.5 -57t24 -85q0 -51 -25 -85t-63.5 -55t-85 -29.5t-89.5 -8.5q-51 0 -103.5 11.5t-91.5 39.5q-16 -21 -16 -51z
M295 502q-66 0 -101 -39.5t-35 -139.5q0 -50 9 -83t26 -52.5t42.5 -27.5t58.5 -8q34 0 60 8t44 27.5t27.5 52.5t9.5 83q0 100 -36.5 139.5t-104.5 39.5zM318 -197q20 0 47 4.5t52 14.5t42 27t17 41q0 26 -19.5 42t-51.5 26.5t-72.5 16.5t-83 12t-82.5 14.5t-71 23.5
q-23 -19 -35.5 -41t-12.5 -39q0 -36 21.5 -62.5t58.5 -44t86.5 -26.5t103.5 -9z" />
    <glyph glyph-name="Hbar" unicode="&#x126;" horiz-adv-x="731" 
d="M701 693q-10 0 -23.5 -5.5t-26 -19t-21.5 -37t-9 -58.5v-442q0 -36 8.5 -60t20.5 -38t25.5 -20t23.5 -6v-7h-271v7q10 0 23.5 5.5t26 19.5t21.5 37.5t9 60.5v236h-285v-235q0 -36 8.5 -60t20.5 -38t25.5 -20t23.5 -6v-7h-271v7q10 0 23.5 5.5t26 19.5t21.5 37.5t9 60.5
v442q0 35 -8.5 58t-20.5 37t-25.5 20t-23.5 6v7h271v-7q-10 0 -23.5 -5.5t-26 -19t-21.5 -37t-9 -58.5v-57h285v56q0 35 -8.5 58t-20.5 37t-25.5 20t-23.5 6v7h271v-7zM508 489h-285v-115h285v115z" />
    <glyph glyph-name="hbar" unicode="&#x127;" horiz-adv-x="723" 
d="M412 511q97 -1 149.5 -43.5t52.5 -127.5l-114 -1q0 32 -8.5 59.5t-24.5 48t-39 32t-51 11.5q-49 0 -84 -26t-60 -64v-269q0 -37 8.5 -61t20.5 -38t25.5 -19.5t23.5 -5.5v-7h-271v7q10 0 23.5 5t26 19t21.5 38t9 61v498h-66v32h66v12q0 37 -8.5 60.5t-20.5 37t-25.5 18.5
t-23.5 5v7h191v-140h39v-32h-39v-211q28 38 71 66t108 28zM615 131q0 -37 8.5 -61t20.5 -38t25.5 -19.5t23.5 -5.5v-7h-273v7q10 0 23.5 5t26 19t21.5 38t9 61v209l115 1v-209z" />
    <glyph glyph-name="Imacron" unicode="&#x12a;" horiz-adv-x="333" 
d="M255 900h-176v64h176v-64zM223 131q0 -35 8.5 -59t20.5 -38.5t25.5 -20.5t23.5 -6v-7h-271v7q10 0 23.5 5.5t26 20t21.5 38t9 59.5v442q0 36 -8.5 59t-20.5 37t-25.5 19.5t-23.5 5.5v7h271v-7q-10 0 -23.5 -5t-26 -18.5t-21.5 -37t-9 -59.5v-442z" />
    <glyph glyph-name="imacron" unicode="&#x12b;" horiz-adv-x="334" 
d="M255 700h-176v64h176v-64zM226 131q0 -37 8.5 -61t20.5 -38t25.5 -19.5t23.5 -5.5v-7h-274v7q10 0 23.5 5t26 19t21.5 38t9 61v242q0 36 -8.5 59t-20.5 37t-25.5 19.5t-23.5 5.5v7h194v-369z" />
    <glyph glyph-name="Iogonek" unicode="&#x12e;" horiz-adv-x="333" 
d="M303 693q-10 0 -23.5 -5t-26 -18.5t-21.5 -37t-9 -59.5v-442q0 -35 8.5 -59t20.5 -38.5t25.5 -20.5t23.5 -6v-7h-96l1 -2q9 -36 -5.5 -53t-36 -26.5t-41 -18t-19.5 -29.5q0 -17 6.5 -27t15 -16t16.5 -8t10 -2h11q29 0 44 5.5t20 14.5q-6 -3 -13 -3q-12 0 -20.5 7t-8.5 17
q0 11 8.5 18t20.5 7q11 0 20 -8t9 -24q0 -18 -18 -35t-62 -17h-3q-53 0 -84 18t-31 56q0 19 12 30t29.5 17.5t37 11t35.5 11.5t24.5 19t3.5 33l-1 4h-156v7q10 0 23.5 5.5t26 20t21.5 38t9 59.5v442q0 36 -8.5 59t-20.5 37t-25.5 19.5t-23.5 5.5v7h271v-7z" />
    <glyph glyph-name="iogonek" unicode="&#x12f;" horiz-adv-x="334" 
d="M161 621q-38 0 -64.5 22.5t-26.5 54.5t26.5 53.5t64.5 21.5q36 0 62.5 -21.5t26.5 -53.5t-26.5 -54.5t-62.5 -22.5zM190 0l1 -2q9 -36 -5.5 -53t-36 -26.5t-41 -18t-19.5 -29.5q0 -17 6.5 -27t15 -16t16.5 -8t10 -2h11q29 0 44 5.5t20 14.5q-6 -3 -13 -3q-12 0 -20.5 7
t-8.5 17q0 11 8.5 18t20.5 7q11 0 20 -8t9 -24q0 -18 -18 -35t-62 -17h-3q-53 0 -84 18t-31 56q0 19 12 30t29.5 17.5t37 11t35.5 11.5t24.5 19t3.5 33l-1 4h-141v7q10 0 23.5 5t26 19t21.5 38t9 61v242q0 36 -8.5 59t-20.5 37t-25.5 19.5t-23.5 5.5v7h194v-369
q0 -37 8.5 -61t20.5 -38t25.5 -19.5t23.5 -5.5v-7h-114z" />
    <glyph glyph-name="Idotaccent" unicode="&#x130;" horiz-adv-x="333" 
d="M198 900h-62v64h62v-64zM223 131q0 -35 8.5 -59t20.5 -38.5t25.5 -20.5t23.5 -6v-7h-271v7q10 0 23.5 5.5t26 20t21.5 38t9 59.5v442q0 36 -8.5 59t-20.5 37t-25.5 19.5t-23.5 5.5v7h271v-7q-10 0 -23.5 -5t-26 -18.5t-21.5 -37t-9 -59.5v-442z" />
    <glyph glyph-name="dotlessi" unicode="&#x131;" horiz-adv-x="334" 
d="M226 131q0 -37 8.5 -61t20.5 -38t25.5 -19.5t23.5 -5.5v-7h-274v7q10 0 23.5 5t26 19t21.5 38t9 61v242q0 36 -8.5 59t-20.5 37t-25.5 19.5t-23.5 5.5v7h194v-369z" />
    <glyph glyph-name="IJ" unicode="&#x132;" horiz-adv-x="867" 
d="M303 700v-7q-10 0 -23.5 -5t-26 -18.5t-21.5 -37t-9 -59.5v-442q0 -35 8.5 -59t20.5 -38.5t25.5 -20.5t23.5 -6v-7h-271v7q10 0 23.5 5.5t26 20t21.5 38t9 59.5v442q0 36 -8.5 59t-20.5 37t-25.5 19.5t-23.5 5.5v7h271zM837 693q-10 0 -23.5 -5.5t-25.5 -19.5t-20.5 -37
t-8.5 -59v-399q0 -32 -13.5 -64.5t-43 -59t-75 -43.5t-110.5 -17q-40 0 -75 9t-61.5 28t-42 48.5t-15.5 69.5q0 36 25.5 61.5t62.5 25.5q35 0 60.5 -25.5t25.5 -61.5q0 -35 -25.5 -60t-60.5 -25q-19 0 -37 8q20 -38 55.5 -52.5t75.5 -14.5q25 0 50 9.5t45.5 27.5t33 44
t12.5 59v433q0 36 -9 59.5t-21.5 37t-26 18.5t-23.5 5v7h271v-7z" />
    <glyph glyph-name="ij" unicode="&#x133;" horiz-adv-x="617" 
d="M161 621q-38 0 -64.5 22.5t-26.5 54.5t26.5 53.5t64.5 21.5q36 0 62.5 -21.5t26.5 -53.5t-26.5 -54.5t-62.5 -22.5zM473 773q36 0 62.5 -21.5t26.5 -53.5t-26.5 -54.5t-62.5 -22.5q-38 0 -64.5 22.5t-26.5 54.5t26.5 53.5t64.5 21.5zM30 0v7q10 0 23.5 5t26 19t21.5 38
t9 61v242q0 36 -8.5 59t-20.5 37t-25.5 19.5t-23.5 5.5v7h194v-369q0 -37 8.5 -61t20.5 -38t25.5 -19.5t23.5 -5.5v-7h-274zM538 500v-526q0 -84 -43 -135t-141 -52q-50 0 -82 11.5t-50.5 29.5t-25.5 38t-7 37q0 23 20 39.5t48 16.5q27 0 47 -16.5t20 -39.5q0 -24 -20 -41.5
t-47 -17.5q-17 0 -32 7.5t-24 18.5q8 -24 32.5 -43t69.5 -19q39 0 62.5 16t35.5 39.5t15.5 50t3.5 48.5v410q0 37 -8.5 60.5t-20.5 37t-25.5 18.5t-23.5 5v7h196z" />
    <glyph glyph-name="Kcommaaccent" unicode="&#x136;" horiz-adv-x="788" 
d="M591 131q23 -37 41.5 -61t37 -38t39.5 -19.5t49 -5.5v-7h-360v7q28 0 48.5 5.5t29.5 19t4 37.5t-28 61l-162 263l-66 -76v-186q0 -36 8.5 -60t20.5 -38t25.5 -20t23.5 -6v-7h-272v7q10 0 23.5 5.5t26 19.5t21.5 37.5t9 60.5v442q0 35 -8.5 58.5t-20.5 37.5t-25.5 19.5
t-23.5 5.5v7h272v-7q-10 0 -23.5 -5t-26 -18.5t-21.5 -37t-9 -59.5v-242l207 241q29 34 40 57t8 37.5t-18 20.5t-37 6v7h229l1 -7q-40 0 -94.5 -25.5t-114.5 -94.5l-73 -85zM394 -49q20 0 38 -16t18 -51q0 -23 -13.5 -44t-37.5 -28l-1 3q11 2 14 10.5t3 19.5q0 14 -7 12
q-4 0 -7 -0.5t-7 -0.5q-23 0 -39.5 14t-16.5 34t16.5 33.5t39.5 13.5z" />
    <glyph glyph-name="kcommaaccent" unicode="&#x137;" horiz-adv-x="676" 
d="M519 117q21 -35 40.5 -56.5t36 -33.5t30.5 -16t25 -4v-7h-266v7q11 0 20.5 3t14 12t2 24t-15.5 39l-112 207l-71 -79v-82q0 -36 8.5 -60t20.5 -38.5t25.5 -20t23.5 -5.5v-7h-271v7q10 0 23.5 5.5t26 19t21.5 37.5t9 61v542q0 35 -8.5 58t-20.5 37t-25.5 20t-23.5 6v7h191
v-573l150 174q35 41 24 66.5t-56 25.5v7h229l1 -7q-20 0 -44.5 -6t-49.5 -17.5t-48.5 -28.5t-41.5 -39l-25 -30zM338 -49q20 0 38 -16t18 -51q0 -23 -13.5 -44t-37.5 -28l-1 3q11 2 14 10.5t3 19.5q0 14 -7 12q-4 0 -7 -0.5t-7 -0.5q-23 0 -39.5 14t-16.5 34t16.5 33.5
t39.5 13.5z" />
    <glyph glyph-name="Lacute" unicode="&#x139;" horiz-adv-x="565" 
d="M355 984q-22 -33 -53 -71t-58 -62h-42q6 25 26.5 62.5t42.5 70.5l12 16h82zM30 7q10 0 23.5 5.5t26 19.5t21.5 38t9 60v442q0 36 -8.5 59.5t-20.5 37t-25.5 19t-23.5 5.5v7h272v-7q-10 0 -23.5 -5t-26 -18.5t-21.5 -36.5t-9 -60v-565h100q53 0 89 16t59.5 43t36 62.5
t18.5 74.5h8v-204h-505v7z" />
    <glyph glyph-name="lacute" unicode="&#x13a;" horiz-adv-x="330" 
d="M262 996q-22 -33 -53 -71t-58 -62h-42q6 25 26.5 62.5t42.5 70.5l12 16h82zM222 131q0 -37 8.5 -61t20.5 -38t25.5 -19.5t23.5 -5.5v-7h-270v7q10 0 23.5 5t26 18.5t21.5 37.5t9 62v542q0 37 -8.5 60.5t-20.5 37t-25.5 18.5t-23.5 5v7h190v-669z" />
    <glyph glyph-name="Lcommaaccent" unicode="&#x13b;" horiz-adv-x="565" 
d="M30 7q10 0 23.5 5.5t26 19.5t21.5 38t9 60v442q0 36 -8.5 59.5t-20.5 37t-25.5 19t-23.5 5.5v7h272v-7q-10 0 -23.5 -5t-26 -18.5t-21.5 -36.5t-9 -60v-565h100q53 0 89 16t59.5 43t36 62.5t18.5 74.5h8v-204h-505v7zM283 -49q20 0 38 -16t18 -51q0 -23 -13.5 -44
t-37.5 -28l-1 3q11 2 14 10.5t3 19.5q0 14 -7 12q-4 0 -7 -0.5t-7 -0.5q-23 0 -39.5 14t-16.5 34t16.5 33.5t39.5 13.5z" />
    <glyph glyph-name="lcommaaccent" unicode="&#x13c;" horiz-adv-x="330" 
d="M222 131q0 -37 8.5 -61t20.5 -38t25.5 -19.5t23.5 -5.5v-7h-270v7q10 0 23.5 5t26 18.5t21.5 37.5t9 62v542q0 37 -8.5 60.5t-20.5 37t-25.5 18.5t-23.5 5v7h190v-669zM165 -49q20 0 38 -16t18 -51q0 -23 -13.5 -44t-37.5 -28l-1 3q11 2 14 10.5t3 19.5q0 14 -7 12
q-4 0 -7 -0.5t-7 -0.5q-23 0 -39.5 14t-16.5 34t16.5 33.5t39.5 13.5z" />
    <glyph glyph-name="Lcaron" unicode="&#x13d;" horiz-adv-x="565" 
d="M30 7q10 0 23.5 5.5t26 19.5t21.5 38t9 60v442q0 36 -8.5 59.5t-20.5 37t-25.5 19t-23.5 5.5v7h272v-7q-10 0 -23.5 -5t-26 -18.5t-21.5 -36.5t-9 -60v-565h100q53 0 89 16t59.5 43t36 62.5t18.5 74.5h8v-204h-505v7zM435 697q16 0 32 -6.5t28.5 -19.5t20.5 -33t8 -48
q0 -18 -5.5 -36.5t-16 -34.5t-26 -28t-34.5 -17l-1 4q16 5 22 17.5t6 31.5q0 10 -2.5 16t-10.5 4q-5 -1 -10.5 -1.5t-10.5 -0.5q-38 0 -64.5 22.5t-26.5 54.5t26.5 53.5t64.5 21.5z" />
    <glyph glyph-name="lcaron" unicode="&#x13e;" horiz-adv-x="466" 
d="M222 131q0 -37 8.5 -61t20.5 -38t25.5 -19.5t23.5 -5.5v-7h-270v7q10 0 23.5 5t26 18.5t21.5 37.5t9 62v542q0 37 -8.5 60.5t-20.5 37t-25.5 18.5t-23.5 5v7h190v-669zM347 799q16 0 32 -6.5t28.5 -20t20.5 -33.5t8 -48q0 -18 -5.5 -36t-16 -34t-26 -28t-34.5 -17l-1 4
q16 5 22 17.5t6 31.5q0 9 -2.5 15.5t-10.5 4.5q-5 -1 -10.5 -1.5t-10.5 -0.5q-38 0 -64.5 22.5t-26.5 54.5q0 31 26.5 53t64.5 22z" />
    <glyph glyph-name="Ldot" unicode="&#x13f;" horiz-adv-x="565" 
d="M30 7q10 0 23.5 5.5t26 19.5t21.5 38t9 60v442q0 36 -8.5 59.5t-20.5 37t-25.5 19t-23.5 5.5v7h272v-7q-10 0 -23.5 -5t-26 -18.5t-21.5 -36.5t-9 -60v-565h100q53 0 89 16t59.5 43t36 62.5t18.5 74.5h8v-204h-505v7zM420 314q-38 0 -64.5 22.5t-26.5 54.5t26.5 53.5
t64.5 21.5q36 0 62.5 -21.5t26.5 -53.5t-26.5 -54.5t-62.5 -22.5z" />
    <glyph glyph-name="ldot" unicode="&#x140;" horiz-adv-x="482" 
d="M222 131q0 -37 8.5 -61t20.5 -38t25.5 -19.5t23.5 -5.5v-7h-270v7q10 0 23.5 5t26 18.5t21.5 37.5t9 62v542q0 37 -8.5 60.5t-20.5 37t-25.5 18.5t-23.5 5v7h190v-669zM363 285q-38 0 -64.5 22.5t-26.5 54.5t26.5 53.5t64.5 21.5q36 0 62.5 -21.5t26.5 -53.5t-26.5 -54.5
t-62.5 -22.5z" />
    <glyph glyph-name="Lslash" unicode="&#x141;" horiz-adv-x="565" 
d="M535 0h-505v7q10 0 23.5 5.5t26 19.5t21.5 38t9 60v236l-68 -25v32l68 25v174q0 36 -8.5 59.5t-20.5 37t-25.5 19t-23.5 5.5v7h272v-7q-10 0 -23.5 -5t-26 -18.5t-21.5 -36.5t-9 -60v-133l75 27v-32l-75 -27v-400h100q53 0 89 16t59.5 43t36 62.5t18.5 74.5h8v-204z" />
    <glyph glyph-name="lslash" unicode="&#x142;" horiz-adv-x="330" 
d="M222 131q0 -37 8.5 -61t20.5 -38t25.5 -19.5t23.5 -5.5v-7h-270v7q10 0 23.5 5t26 18.5t21.5 37.5t9 62v236l-68 -25v32l68 25v274q0 37 -8.5 60.5t-20.5 37t-25.5 18.5t-23.5 5v7h190v-361l71 26v-32l-71 -26v-276z" />
    <glyph glyph-name="Nacute" unicode="&#x143;" horiz-adv-x="757" 
d="M450 984q-22 -33 -53 -71t-58 -62h-42q6 25 26.5 62.5t42.5 70.5l12 16h82zM727 693q-20 0 -39 -5t-34 -18.5t-24.5 -37t-9.5 -59.5v-573h-42l-382 572q-7 11 -14 20.5t-14 17.5v-479q0 -37 9 -61t23.5 -38t33.5 -19.5t40 -5.5v-7h-230v7q22 0 42 5t35.5 19t25 38t9.5 61
v494q-33 35 -62 52t-64 17v7h214l364 -533v405q0 35 -9 58.5t-23 37.5t-32.5 19.5t-37.5 5.5v7h221v-7z" />
    <glyph glyph-name="nacute" unicode="&#x144;" horiz-adv-x="701" 
d="M422 784q-22 -33 -53 -71t-58 -62h-42q6 25 26.5 62.5t42.5 70.5l12 16h82zM399 511q89 -1 141.5 -45.5t52.5 -139.5l-112 12q0 67 -30 109.5t-87 42.5q-45 0 -80 -23t-62 -58v-278q0 -32 8.5 -55.5t20.5 -38.5t25.5 -22.5t23.5 -7.5v-7h-270v7q10 0 23.5 7t26 21.5
t21.5 38t9 56.5v242q0 31 -8.5 54t-20.5 38t-25.5 22t-23.5 7v7h190v-78q31 37 74 63t103 26zM593 131q0 -32 8.5 -55.5t20.5 -38.5t25.5 -22.5t23.5 -7.5v-7h-271v7q10 0 23.5 7t26 21.5t21.5 38t9 56.5v208l113 -12v-195z" />
    <glyph glyph-name="Ncommaaccent" unicode="&#x145;" horiz-adv-x="757" 
d="M727 693q-20 0 -39 -5t-34 -18.5t-24.5 -37t-9.5 -59.5v-573h-42l-382 572q-7 11 -14 20.5t-14 17.5v-479q0 -37 9 -61t23.5 -38t33.5 -19.5t40 -5.5v-7h-230v7q22 0 42 5t35.5 19t25 38t9.5 61v494q-33 35 -62 52t-64 17v7h214l364 -533v405q0 35 -9 58.5t-23 37.5
t-32.5 19.5t-37.5 5.5v7h221v-7zM379 -49q20 0 38 -16t18 -51q0 -23 -13.5 -44t-37.5 -28l-1 3q11 2 14 10.5t3 19.5q0 14 -7 12q-4 0 -7 -0.5t-7 -0.5q-23 0 -39.5 14t-16.5 34t16.5 33.5t39.5 13.5z" />
    <glyph glyph-name="ncommaaccent" unicode="&#x146;" horiz-adv-x="701" 
d="M399 511q89 -1 141.5 -45.5t52.5 -139.5l-112 12q0 67 -30 109.5t-87 42.5q-45 0 -80 -23t-62 -58v-278q0 -32 8.5 -55.5t20.5 -38.5t25.5 -22.5t23.5 -7.5v-7h-270v7q10 0 23.5 7t26 21.5t21.5 38t9 56.5v242q0 31 -8.5 54t-20.5 38t-25.5 22t-23.5 7v7h190v-78
q31 37 74 63t103 26zM593 131q0 -32 8.5 -55.5t20.5 -38.5t25.5 -22.5t23.5 -7.5v-7h-271v7q10 0 23.5 7t26 21.5t21.5 38t9 56.5v208l113 -12v-195zM351 -49q20 0 38 -16t18 -51q0 -23 -13.5 -44t-37.5 -28l-1 3q11 2 14 10.5t3 19.5q0 14 -7 12q-4 0 -7 -0.5t-7 -0.5
q-23 0 -39.5 14t-16.5 34t16.5 33.5t39.5 13.5z" />
    <glyph glyph-name="Ncaron" unicode="&#x147;" horiz-adv-x="757" 
d="M345 851q-27 24 -57.5 62t-52.5 71l-11 16h83l11 -16q17 -26 33.5 -55t27.5 -53q10 24 26.5 53t33.5 55l12 16h82l-10 -16q-22 -33 -53 -71t-58 -62h-67zM727 693q-20 0 -39 -5t-34 -18.5t-24.5 -37t-9.5 -59.5v-573h-42l-382 572q-7 11 -14 20.5t-14 17.5v-479
q0 -37 9 -61t23.5 -38t33.5 -19.5t40 -5.5v-7h-230v7q22 0 42 5t35.5 19t25 38t9.5 61v494q-33 35 -62 52t-64 17v7h214l364 -533v405q0 35 -9 58.5t-23 37.5t-32.5 19.5t-37.5 5.5v7h221v-7z" />
    <glyph glyph-name="ncaron" unicode="&#x148;" horiz-adv-x="701" 
d="M317 651q-27 24 -57.5 62t-52.5 71l-11 16h83l11 -16q17 -26 33.5 -55t27.5 -53q10 24 26.5 53t33.5 55l12 16h82l-10 -16q-22 -33 -53 -71t-58 -62h-67zM399 511q89 -1 141.5 -45.5t52.5 -139.5l-112 12q0 67 -30 109.5t-87 42.5q-45 0 -80 -23t-62 -58v-278
q0 -32 8.5 -55.5t20.5 -38.5t25.5 -22.5t23.5 -7.5v-7h-270v7q10 0 23.5 7t26 21.5t21.5 38t9 56.5v242q0 31 -8.5 54t-20.5 38t-25.5 22t-23.5 7v7h190v-78q31 37 74 63t103 26zM593 131q0 -32 8.5 -55.5t20.5 -38.5t25.5 -22.5t23.5 -7.5v-7h-271v7q10 0 23.5 7t26 21.5
t21.5 38t9 56.5v208l113 -12v-195z" />
    <glyph glyph-name="Eng" unicode="&#x14a;" horiz-adv-x="767" 
d="M737 693q-20 0 -39 -7t-34 -21.5t-24.5 -37t-9.5 -54.5v-400q0 -32 -12.5 -64.5t-36.5 -59t-59.5 -43.5t-80.5 -17q-40 0 -75 11t-61.5 31t-42 48.5t-15.5 63.5t25.5 60.5t61.5 25.5q35 0 60.5 -25.5t25.5 -60.5q0 -36 -25.5 -60.5t-60.5 -24.5q-22 0 -37 7
q20 -32 57.5 -48.5t74.5 -16.5q7 0 21 1.5t32 6t37.5 14t37.5 24.5l-351 526q-8 11 -14.5 20.5t-13.5 17.5v-479q0 -32 9 -55.5t23.5 -38.5t33.5 -22.5t40 -7.5v-7h-230v7q22 0 42 7t35.5 21.5t25 38t9.5 56.5v494q-65 69 -136 69v7h221l357 -521q9 40 9.5 77t0.5 58v258
q0 31 -9 54t-23 38t-32.5 22t-37.5 7v7h221v-7z" />
    <glyph glyph-name="eng" unicode="&#x14b;" horiz-adv-x="673" 
d="M399 511q89 -1 141.5 -45.5t52.5 -139.5v-358q0 -85 -47.5 -131.5t-136.5 -47.5q-55 0 -87.5 11.5t-49.5 29.5t-22 38t-5 37q0 23 19.5 39.5t47.5 16.5q27 0 47 -16.5t20 -39.5q0 -24 -20 -41.5t-47 -17.5q-17 0 -31.5 7t-23.5 18q10 -24 36.5 -42.5t78.5 -18.5
q35 0 56 14.5t32.5 36.5t15.5 47.5t4 47.5v188h1v194q0 67 -30 109.5t-87 42.5q-45 0 -80 -23t-62 -58v-278q0 -32 8.5 -55.5t20.5 -38.5t25.5 -22.5t23.5 -7.5v-7h-270v7q10 0 23.5 7t26 21.5t21.5 38t9 56.5v242q0 31 -8.5 54t-20.5 38t-25.5 22t-23.5 7v7h190v-78
q31 37 74 63t103 26z" />
    <glyph glyph-name="Omacron" unicode="&#x14c;" horiz-adv-x="743" 
d="M460 900h-176v64h176v-64zM373 -10q-75 0 -137.5 25.5t-108.5 72.5t-71.5 113.5t-25.5 148.5t25.5 148t71.5 113t108.5 72.5t137.5 25.5q74 0 136 -25.5t107.5 -72.5t71 -113t25.5 -148t-25.5 -148.5t-71 -113.5t-107.5 -72.5t-136 -25.5zM373 -3q56 0 97 25t67.5 71
t39.5 111t13 146q0 80 -13 145t-39.5 111t-67.5 71t-97 25q-57 0 -99 -25t-69 -71t-40 -111t-13 -145q0 -81 13 -146t40 -111t69 -71t99 -25z" />
    <glyph glyph-name="omacron" unicode="&#x14d;" 
d="M384 700h-176v64h176v-64zM291 -10q-46 0 -92.5 14.5t-84 46t-61 80t-23.5 116.5t23.5 117t61 81.5t84 48t92.5 15.5q45 0 91.5 -15.5t85 -48t62.5 -81.5t24 -117t-24 -116.5t-62.5 -80t-85 -46t-91.5 -14.5zM291 -3q67 0 103.5 58.5t36.5 191.5q0 134 -36.5 194.5
t-103.5 60.5q-69 0 -104 -60.5t-35 -194.5q0 -133 35.5 -191.5t103.5 -58.5z" />
    <glyph glyph-name="Ohungarumlaut" unicode="&#x150;" horiz-adv-x="743" 
d="M369 984q-22 -33 -53 -71t-58 -62h-42q6 25 26.5 62.5t42.5 70.5l12 16h82zM518 984q-22 -33 -53 -71t-58 -62h-42q6 25 26.5 62.5t42.5 70.5l12 16h82zM373 -10q-75 0 -137.5 25.5t-108.5 72.5t-71.5 113.5t-25.5 148.5t25.5 148t71.5 113t108.5 72.5t137.5 25.5
q74 0 136 -25.5t107.5 -72.5t71 -113t25.5 -148t-25.5 -148.5t-71 -113.5t-107.5 -72.5t-136 -25.5zM373 -3q56 0 97 25t67.5 71t39.5 111t13 146q0 80 -13 145t-39.5 111t-67.5 71t-97 25q-57 0 -99 -25t-69 -71t-40 -111t-13 -145q0 -81 13 -146t40 -111t69 -71t99 -25z
" />
    <glyph glyph-name="ohungarumlaut" unicode="&#x151;" 
d="M293 784q-22 -33 -53 -71t-58 -62h-42q6 25 26.5 62.5t42.5 70.5l12 16h82zM442 784q-22 -33 -53 -71t-58 -62h-42q6 25 26.5 62.5t42.5 70.5l12 16h82zM291 -10q-46 0 -92.5 14.5t-84 46t-61 80t-23.5 116.5t23.5 117t61 81.5t84 48t92.5 15.5q45 0 91.5 -15.5t85 -48
t62.5 -81.5t24 -117t-24 -116.5t-62.5 -80t-85 -46t-91.5 -14.5zM291 -3q67 0 103.5 58.5t36.5 191.5q0 134 -36.5 194.5t-103.5 60.5q-69 0 -104 -60.5t-35 -194.5q0 -133 35.5 -191.5t103.5 -58.5z" />
    <glyph glyph-name="OE" unicode="&#x152;" horiz-adv-x="934" 
d="M30 350q0 82 26 147t72 110t109 69t137 24h501v-204h-8q-6 39 -19 74.5t-38.5 62.5t-65.5 43t-100 16h-79v-318h42q18 0 40.5 7t42.5 20.5t34 33.5t14 46h8v-222h-8q0 26 -13.5 46t-34 33.5t-43.5 20.5t-41 7h-41v-358h127q53 0 89 16t60 43t36.5 62.5t18.5 74.5h8v-204
h-532q-75 0 -137.5 24t-108 69t-71 110t-25.5 147zM153 350q0 -160 53 -251t166 -92q10 0 23.5 5.5t26 19.5t21.5 38t9 60v442q0 36 -8.5 59.5t-20.5 37t-25.5 19t-23.5 5.5q-57 0 -98.5 -23.5t-69 -67.5t-40.5 -108t-13 -144z" />
    <glyph glyph-name="oe" unicode="&#x153;" horiz-adv-x="986" 
d="M732 -3q23 0 59 10t70 32.5t58.5 58.5t24.5 88h6q0 -53 -23.5 -90.5t-57 -61t-71 -34t-66.5 -10.5q-70 0 -132.5 21t-105.5 66q-39 -45 -94 -66t-109 -21q-46 0 -92.5 14.5t-84 46t-61 80t-23.5 116.5t23.5 117t61 81.5t84 48t92.5 15.5q54 0 108 -21.5t94 -67.5
q40 46 94 67.5t106 21.5q48 0 95 -16t84 -48t60.5 -81.5t23.5 -116.5h-401q0 -67 14.5 -114.5t39.5 -77.5t57 -44t66 -14zM693 502q-24 0 -48 -14.5t-44 -45t-32.5 -77t-13.5 -111.5h278q-1 65 -14.5 111.5t-34 77t-44.5 45t-47 14.5zM291 -3q68 0 104.5 58.5t36.5 191.5
q0 134 -36.5 194.5t-104.5 60.5t-103 -60.5t-35 -194.5q0 -133 35.5 -191.5t102.5 -58.5z" />
    <glyph glyph-name="Racute" unicode="&#x154;" horiz-adv-x="700" 
d="M422 984q-22 -33 -53 -71t-58 -62h-42q6 25 26.5 62.5t42.5 70.5l12 16h82zM683 -7q-17 -4 -55 -4q-78 0 -126 43.5t-48 128.5v62q0 39 -18 66t-44 44t-56.5 25t-55.5 8h-54l-1 -235q0 -37 8.5 -61t20.5 -38t25.5 -19.5t23.5 -5.5v-7h-273v7q10 0 23.5 5t26 18.5
t21.5 37.5t9 62l1 442q0 36 -8.5 59t-20.5 37t-25.5 19.5t-23.5 5.5v7h247q62 0 118.5 -9t99 -28t68 -49.5t25.5 -74.5q0 -37 -20.5 -66.5t-55 -51t-78.5 -34.5t-92 -18q52 0 95 -12t73.5 -35t47 -56t16.5 -75v-62q0 -39 8.5 -64t20.5 -39.5t24.5 -20t20.5 -5.5q15 0 28 4z
M279 374q28 0 60.5 10.5t60.5 31.5t46.5 52t18.5 71q0 41 -18.5 70t-46.5 47.5t-60.5 27t-60.5 8.5h-54v-318h54z" />
    <glyph glyph-name="racute" unicode="&#x155;" horiz-adv-x="556" 
d="M350 784q-22 -33 -53 -71t-58 -62h-42q6 25 26.5 62.5t42.5 70.5l12 16h82zM389 511q58 -1 97.5 -29t39.5 -80q0 -32 -26.5 -54.5t-62.5 -22.5q-38 0 -64.5 22.5t-26.5 54.5q0 26 19.5 46t48.5 27q-22 15 -59 15q-35 0 -68.5 -25.5t-62.5 -66.5v-267q0 -36 8.5 -60
t20.5 -38t25.5 -20t23.5 -6h30v-7h-302v7q10 0 23.5 5.5t26 19.5t21.5 37.5t9 60.5v242q0 35 -8.5 58t-20.5 37t-25.5 20t-23.5 6v7h192v-76q32 39 73 63.5t92 23.5z" />
    <glyph glyph-name="Rcommaaccent" unicode="&#x156;" horiz-adv-x="700" 
d="M683 -7q-17 -4 -55 -4q-78 0 -126 43.5t-48 128.5v62q0 39 -18 66t-44 44t-56.5 25t-55.5 8h-54l-1 -235q0 -37 8.5 -61t20.5 -38t25.5 -19.5t23.5 -5.5v-7h-273v7q10 0 23.5 5t26 18.5t21.5 37.5t9 62l1 442q0 36 -8.5 59t-20.5 37t-25.5 19.5t-23.5 5.5v7h247
q62 0 118.5 -9t99 -28t68 -49.5t25.5 -74.5q0 -37 -20.5 -66.5t-55 -51t-78.5 -34.5t-92 -18q52 0 95 -12t73.5 -35t47 -56t16.5 -75v-62q0 -39 8.5 -64t20.5 -39.5t24.5 -20t20.5 -5.5q15 0 28 4zM279 374q28 0 60.5 10.5t60.5 31.5t46.5 52t18.5 71q0 41 -18.5 70
t-46.5 47.5t-60.5 27t-60.5 8.5h-54v-318h54zM350 -49q20 0 38 -16t18 -51q0 -23 -13.5 -44t-37.5 -28l-1 3q11 2 14 10.5t3 19.5q0 14 -7 12q-4 0 -7 -0.5t-7 -0.5q-23 0 -39.5 14t-16.5 34t16.5 33.5t39.5 13.5z" />
    <glyph glyph-name="rcommaaccent" unicode="&#x157;" horiz-adv-x="556" 
d="M389 511q58 -1 97.5 -29t39.5 -80q0 -32 -26.5 -54.5t-62.5 -22.5q-38 0 -64.5 22.5t-26.5 54.5q0 26 19.5 46t48.5 27q-22 15 -59 15q-35 0 -68.5 -25.5t-62.5 -66.5v-267q0 -36 8.5 -60t20.5 -38t25.5 -20t23.5 -6h30v-7h-302v7q10 0 23.5 5.5t26 19.5t21.5 37.5
t9 60.5v242q0 35 -8.5 58t-20.5 37t-25.5 20t-23.5 6v7h192v-76q32 39 73 63.5t92 23.5zM171 -49q20 0 37.5 -16t17.5 -51q0 -23 -13.5 -44t-36.5 -28l-1 3q10 2 13.5 10.5t3.5 19.5q0 15 -8 12q-3 0 -6.5 -0.5t-6.5 -0.5q-23 0 -39.5 14t-16.5 34t16.5 33.5t39.5 13.5z" />
    <glyph glyph-name="Rcaron" unicode="&#x158;" horiz-adv-x="700" 
d="M317 851q-27 24 -57.5 62t-52.5 71l-11 16h83l11 -16q17 -26 33.5 -55t27.5 -53q10 24 26.5 53t33.5 55l12 16h82l-10 -16q-22 -33 -53 -71t-58 -62h-67zM683 -7q-17 -4 -55 -4q-78 0 -126 43.5t-48 128.5v62q0 39 -18 66t-44 44t-56.5 25t-55.5 8h-54l-1 -235
q0 -37 8.5 -61t20.5 -38t25.5 -19.5t23.5 -5.5v-7h-273v7q10 0 23.5 5t26 18.5t21.5 37.5t9 62l1 442q0 36 -8.5 59t-20.5 37t-25.5 19.5t-23.5 5.5v7h247q62 0 118.5 -9t99 -28t68 -49.5t25.5 -74.5q0 -37 -20.5 -66.5t-55 -51t-78.5 -34.5t-92 -18q52 0 95 -12t73.5 -35
t47 -56t16.5 -75v-62q0 -39 8.5 -64t20.5 -39.5t24.5 -20t20.5 -5.5q15 0 28 4zM279 374q28 0 60.5 10.5t60.5 31.5t46.5 52t18.5 71q0 41 -18.5 70t-46.5 47.5t-60.5 27t-60.5 8.5h-54v-318h54z" />
    <glyph glyph-name="rcaron" unicode="&#x159;" horiz-adv-x="556" 
d="M245 651q-27 24 -57.5 62t-52.5 71l-11 16h83l11 -16q17 -26 33.5 -55t27.5 -53q10 24 26.5 53t33.5 55l12 16h82l-10 -16q-22 -33 -53 -71t-58 -62h-67zM389 511q58 -1 97.5 -29t39.5 -80q0 -32 -26.5 -54.5t-62.5 -22.5q-38 0 -64.5 22.5t-26.5 54.5q0 26 19.5 46
t48.5 27q-22 15 -59 15q-35 0 -68.5 -25.5t-62.5 -66.5v-267q0 -36 8.5 -60t20.5 -38t25.5 -20t23.5 -6h30v-7h-302v7q10 0 23.5 5.5t26 19.5t21.5 37.5t9 60.5v242q0 35 -8.5 58t-20.5 37t-25.5 20t-23.5 6v7h192v-76q32 39 73 63.5t92 23.5z" />
    <glyph glyph-name="Sacute" unicode="&#x15a;" horiz-adv-x="594" 
d="M366 984q-22 -33 -53 -71t-58 -62h-42q6 25 26.5 62.5t42.5 70.5l12 16h82zM562 211q0 -45 -24.5 -85t-66.5 -69.5t-98.5 -46.5t-120.5 -17q-43 0 -74 3t-53.5 6t-38.5 6t-28 3q-26 0 -26 -15h-7v223h7v-13q0 -58 23 -97.5t58 -62.5t76.5 -33t79.5 -10q20 0 49 9t56 27.5
t46.5 48t19.5 70.5q0 46 -30.5 75t-76.5 51t-99 41t-99 44.5t-76.5 62t-30.5 93.5q0 43 20.5 77t57.5 58t89.5 36.5t116.5 12.5q36 0 61 -2.5t43 -6t31.5 -6.5t25.5 -3q26 0 26 15h7v-191h-7v13q0 81 -52 126.5t-152 45.5q-20 0 -45.5 -7.5t-48.5 -22t-38.5 -36t-15.5 -50.5
q0 -49 30.5 -79t77 -51.5t100 -39t100 -43t77 -63t30.5 -97.5z" />
    <glyph glyph-name="sacute" unicode="&#x15b;" horiz-adv-x="532" 
d="M338 784q-22 -33 -53 -71t-58 -62h-42q6 25 26.5 62.5t42.5 70.5l12 16h82zM502 153q0 -40 -21.5 -70t-59 -50t-88 -30t-108.5 -9q-39 0 -64.5 2.5t-43 6l-30 6t-24.5 2.5q-26 0 -26 -15h-7v184h7v-13q0 -46 18.5 -77t48 -50.5t66 -28t72.5 -8.5q23 0 48.5 5t48 17t37 33
t14.5 52q0 34 -26.5 53t-66 32t-86 24.5t-86 29.5t-66 47t-26.5 77q0 27 13 52t42 45t76 32t115 12q35 0 59 -2.5t41.5 -6t31 -6.5t25.5 -3q26 0 26 15h7v-176h-7v13q0 32 -13 60t-37.5 50t-60.5 34.5t-81 12.5q-24 0 -46 -6t-39.5 -17.5t-28 -28.5t-10.5 -39
q0 -38 26.5 -57.5t66 -31t85.5 -19.5t85.5 -24.5t66 -46t26.5 -82.5z" />
    <glyph glyph-name="Scedilla" unicode="&#x15e;" horiz-adv-x="599" 
d="M256 -7l-12 -47h37q22 0 43.5 -3t38 -11t26.5 -22t10 -36q0 -38 -31 -56t-84 -18h-3q-44 0 -62 18t-18 41q0 11 9 18t20 7q12 0 20.5 -7t8.5 -18q0 -10 -8.5 -17t-20.5 -7q-7 0 -13 3q5 -9 20 -14.5t44 -5.5h11q2 0 10 2t16.5 8t15 16t6.5 27q0 13 -6.5 23.5t-16 18
t-21 11t-21.5 3.5h-56l18 66q-38 1 -65.5 4t-47.5 6t-34.5 5.5t-26.5 2.5q-26 0 -26 -15h-7v223h7v-13q0 -58 23 -97.5t58 -62.5t76.5 -33t79.5 -10q20 0 49 9t56 27.5t46.5 48t19.5 70.5q0 46 -30.5 75t-76.5 51t-99 41t-99 44.5t-76.5 62t-30.5 93.5q0 43 20.5 77t57.5 58
t89.5 36.5t116.5 12.5q36 0 61 -2.5t43 -6t31.5 -6.5t25.5 -3q26 0 26 15h7v-191h-7v13q0 81 -52 126.5t-152 45.5q-20 0 -45.5 -7.5t-48.5 -22t-38.5 -36t-15.5 -50.5q0 -49 30.5 -79t77 -51.5t100 -39t100 -43t77 -63t30.5 -97.5q0 -45 -24.5 -85t-66.5 -69.5t-98.5 -46.5
t-120.5 -17h-1z" />
    <glyph glyph-name="scedilla" unicode="&#x15f;" horiz-adv-x="532" 
d="M222 -6l-12 -48h37q22 0 43.5 -3t38 -11t26.5 -22t10 -36q0 -38 -31 -56t-84 -18h-3q-44 0 -62 18t-18 41q0 11 9 18t20 7q12 0 20.5 -7t8.5 -18q0 -10 -8.5 -17t-20.5 -7q-7 0 -13 3q5 -9 20 -14.5t44 -5.5h11q2 0 10 2t16.5 8t15 16t6.5 27q0 13 -6.5 23.5t-16 18
t-21 11t-21.5 3.5h-56l18 67q-32 1 -53.5 3.5t-37 5.5t-26.5 5.5t-23 2.5q-26 0 -26 -15h-7v184h7v-13q0 -46 18.5 -77t48 -50.5t66 -28t72.5 -8.5q23 0 48.5 5t48 17t37 33t14.5 52q0 34 -26.5 53t-66 32t-86 24.5t-86 29.5t-66 47t-26.5 77q0 27 13 52t42 45t76 32t115 12
q35 0 59 -2.5t41.5 -6t31 -6.5t25.5 -3q26 0 26 15h7v-176h-7v13q0 32 -13 60t-37.5 50t-60.5 34.5t-81 12.5q-26 0 -48.5 -8.5t-39.5 -22t-26.5 -29.5t-9.5 -31q0 -38 26.5 -57.5t66 -31t85.5 -19.5t85.5 -24.5t66 -46t26.5 -82.5q0 -40 -21.5 -70t-59 -50t-88 -30
t-108.5 -9h-3z" />
    <glyph glyph-name="Scaron" unicode="&#x160;" horiz-adv-x="594" 
d="M261 851q-27 24 -57.5 62t-52.5 71l-11 16h83l11 -16q17 -26 33.5 -55t27.5 -53q10 24 26.5 53t33.5 55l12 16h82l-10 -16q-22 -33 -53 -71t-58 -62h-67zM147 584q0 -49 30.5 -79t77 -51.5t100 -39t100 -43t77 -63t30.5 -97.5q0 -45 -24.5 -85t-66.5 -69.5t-98.5 -46.5
t-120.5 -17q-43 0 -74 3t-53.5 6t-38.5 6t-28 3q-26 0 -26 -15h-7v223h7v-13q0 -58 23 -97.5t58 -62.5t76.5 -33t79.5 -10q20 0 49 9t56 27.5t46.5 48t19.5 70.5q0 46 -30.5 75t-76.5 51t-99 41t-99 44.5t-76.5 62t-30.5 93.5q0 43 20.5 77t57.5 58t89.5 36.5t116.5 12.5
q36 0 61 -2.5t43 -6t31.5 -6.5t25.5 -3q26 0 26 15h7v-191h-7v13q0 81 -52 126.5t-152 45.5q-20 0 -45.5 -7.5t-48.5 -22t-38.5 -36t-15.5 -50.5z" />
    <glyph glyph-name="scaron" unicode="&#x161;" horiz-adv-x="532" 
d="M233 651q-27 24 -57.5 62t-52.5 71l-11 16h83l11 -16q17 -26 33.5 -55t27.5 -53q10 24 26.5 53t33.5 55l12 16h82l-10 -16q-22 -33 -53 -71t-58 -62h-67zM146 414q0 -38 26.5 -57.5t66 -31t85.5 -19.5t85.5 -24.5t66 -46t26.5 -82.5q0 -40 -21.5 -70t-59 -50t-88 -30
t-108.5 -9q-39 0 -64.5 2.5t-43 6l-30 6t-24.5 2.5q-26 0 -26 -15h-7v184h7v-13q0 -46 18.5 -77t48 -50.5t66 -28t72.5 -8.5q23 0 48.5 5t48 17t37 33t14.5 52q0 34 -26.5 53t-66 32t-86 24.5t-86 29.5t-66 47t-26.5 77q0 27 13 52t42 45t76 32t115 12q35 0 59 -2.5t41.5 -6
t31 -6.5t25.5 -3q26 0 26 15h7v-176h-7v13q0 32 -13 60t-37.5 50t-60.5 34.5t-81 12.5q-24 0 -46 -6t-39.5 -17.5t-28 -28.5t-10.5 -39z" />
    <glyph glyph-name="Tcedilla" unicode="&#x162;" horiz-adv-x="672" 
d="M642 509h-8q-6 39 -19.5 72.5t-41.5 58t-71.5 38.5t-109.5 14l-1 -561q0 -37 8.5 -61.5t20.5 -38t25.5 -19t23.5 -5.5v-7h-175l-14 -54h37q22 0 43.5 -3t38 -11t26.5 -22t10 -36q0 -38 -31 -56t-84 -18h-3q-44 0 -62 18t-18 41q0 11 9 18t20 7q12 0 20.5 -7t8.5 -18
q0 -10 -8.5 -17t-20.5 -7q-7 0 -13 3q5 -9 20 -14.5t44 -5.5h11q2 0 10 2t16.5 8t15 16t6.5 27q0 13 -6.5 23.5t-16 18t-21 11t-21.5 3.5h-56l19 73h-76v7q10 0 23.5 5t26 18.5t21.5 37.5t9 62l1 562q-66 0 -110 -14t-71 -38.5t-40.5 -58t-19.5 -72.5h-8v191h612v-191z" />
    <glyph glyph-name="tcedilla" unicode="&#x163;" horiz-adv-x="412" 
d="M251 -8q-47 0 -84 19l-17 -65h37q22 0 43.5 -3t38 -11t26.5 -22t10 -36q0 -38 -31 -56t-84 -18h-3q-44 0 -62 18t-18 41q0 11 9 18t20 7q12 0 20.5 -7t8.5 -18q0 -10 -8.5 -17t-20.5 -7q-7 0 -13 3q5 -9 20 -14.5t44 -5.5h11q2 0 10 2t16.5 8t15 16t6.5 27
q0 13 -6.5 23.5t-16 18t-21 11t-21.5 3.5h-56l24 90h7q-35 20 -56 56.5t-21 89.5v330h-49v7h49v172l134 66v-7q-7 -4 -11 -10t-6 -17.5t-2.5 -31t-0.5 -50.5v-122h115v-7h-115v-342q0 -62 27 -100t79 -38q17 0 38.5 7.5t35.5 21.5l9 -8q-17 -20 -49 -31t-82 -11z" />
    <glyph glyph-name="Tcaron" unicode="&#x164;" horiz-adv-x="672" 
d="M303 851q-27 24 -57.5 62t-52.5 71l-11 16h83l11 -16q17 -26 33.5 -55t27.5 -53q10 24 26.5 53t33.5 55l12 16h82l-10 -16q-22 -33 -53 -71t-58 -62h-67zM642 509h-8q-6 39 -19.5 72.5t-41.5 58t-71.5 38.5t-109.5 14l-1 -561q0 -37 8.5 -61.5t20.5 -38t25.5 -19
t23.5 -5.5v-7h-271v7q10 0 23.5 5t26 18.5t21.5 37.5t9 62l1 562q-66 0 -110 -14t-71 -38.5t-40.5 -58t-19.5 -72.5h-8v191h612v-191z" />
    <glyph glyph-name="tcaron" unicode="&#x165;" horiz-adv-x="459" 
d="M339 800q17 0 33 -6.5t28.5 -20t20.5 -33.5t8 -48q0 -18 -6 -36t-16.5 -34t-25.5 -28t-34 -17l-1 4q16 5 21.5 17.5t5.5 31.5q0 9 -2 15.5t-10 4.5q-5 -1 -11 -1.5t-11 -0.5q-37 0 -63.5 22.5t-26.5 54.5q0 31 26.5 53t63.5 22zM382 34q-17 -20 -49 -31t-82 -11
q-34 0 -65 11t-55 32.5t-38 53.5t-14 74v330h-49v7h49v172l134 66v-7q-7 -4 -11 -10t-6 -17.5t-2.5 -31t-0.5 -50.5v-122h115v-7h-115v-342q0 -62 27 -100t79 -38q17 0 38.5 7.5t35.5 21.5z" />
    <glyph glyph-name="Tbar" unicode="&#x166;" horiz-adv-x="672" 
d="M642 509h-8q-6 39 -19.5 72.5t-41.5 58t-71.5 38.5t-109.5 14v-204h66v-40h-66l-1 -317q0 -37 8.5 -61.5t20.5 -38t25.5 -19t23.5 -5.5v-7h-271v7q10 0 23.5 5t26 18.5t21.5 37.5t9 62l1 318h-65v40h65v204q-66 0 -110 -14t-71 -38.5t-40.5 -58t-19.5 -72.5h-8v191h612
v-191z" />
    <glyph glyph-name="tbar" unicode="&#x167;" horiz-adv-x="412" 
d="M382 34q-17 -20 -49 -31t-82 -11q-34 0 -65 11t-55 32.5t-38 53.5t-14 74v330h-49v7h49v172l134 66v-7q-7 -4 -11 -10t-6 -17.5t-2.5 -30.5t-0.5 -50h100v-22h-100v-101h115v-7h-115v-342q0 -62 27 -100t79 -38q17 0 38.5 7.5t35.5 21.5z" />
    <glyph glyph-name="Umacron" unicode="&#x16a;" horiz-adv-x="686" 
d="M431 900h-176v64h176v-64zM656 693q-10 0 -23.5 -5t-26 -18.5t-21.5 -36.5t-9 -60v-411q0 -40 -16.5 -72t-44 -54t-64 -33.5t-76.5 -11.5q-64 0 -114 16.5t-84 42.5t-51.5 58.5t-17.5 64.5v399q0 36 -8.5 59.5t-20.5 37t-25.5 19t-23.5 5.5v7h271v-7q-10 0 -23.5 -5
t-26 -18.5t-21.5 -36.5t-9 -60v-432q0 -39 14.5 -65.5t37 -43.5t49.5 -24.5t52 -7.5q28 0 61.5 9.5t62.5 30t48.5 52t19.5 74.5v406q0 36 -8.5 59.5t-20.5 37t-25.5 19t-23.5 5.5v7h168v-7z" />
    <glyph glyph-name="umacron" unicode="&#x16b;" horiz-adv-x="688" 
d="M256 700v64h176v-64h-176zM580 128q0 -34 8.5 -57.5t20.5 -37.5t25.5 -20t23.5 -6v-7h-190v68q-26 -34 -64.5 -56.5t-92.5 -22.5q-44 0 -81.5 11t-64.5 32.5t-42 53.5t-15 74v209q0 36 -8.5 60t-20.5 38.5t-25.5 20t-23.5 5.5v7h190l1 -352q0 -29 8.5 -54t24 -44
t37 -29.5t46.5 -10.5q45 0 76.5 20.5t54.5 52.5v286q0 36 -8.5 60t-20.5 38.5t-25.5 20t-23.5 5.5v7h190v-372z" />
    <glyph glyph-name="Uring" unicode="&#x16e;" horiz-adv-x="686" 
d="M343 851q-35 0 -58.5 23.5t-23.5 56.5t23.5 56.5t58.5 23.5q34 0 57.5 -23.5t23.5 -56.5t-23.5 -56.5t-57.5 -23.5zM343 894q16 0 27 10.5t11 26.5t-11 26.5t-27 10.5q-17 0 -28 -10.5t-11 -26.5t11 -26.5t28 -10.5zM656 693q-10 0 -23.5 -5t-26 -18.5t-21.5 -36.5
t-9 -60v-411q0 -40 -16.5 -72t-44 -54t-64 -33.5t-76.5 -11.5q-64 0 -114 16.5t-84 42.5t-51.5 58.5t-17.5 64.5v399q0 36 -8.5 59.5t-20.5 37t-25.5 19t-23.5 5.5v7h271v-7q-10 0 -23.5 -5t-26 -18.5t-21.5 -36.5t-9 -60v-432q0 -39 14.5 -65.5t37 -43.5t49.5 -24.5
t52 -7.5q28 0 61.5 9.5t62.5 30t48.5 52t19.5 74.5v406q0 36 -8.5 59.5t-20.5 37t-25.5 19t-23.5 5.5v7h168v-7z" />
    <glyph glyph-name="uring" unicode="&#x16f;" horiz-adv-x="688" 
d="M344 651q-35 0 -58.5 23.5t-23.5 56.5t23.5 56.5t58.5 23.5q34 0 57.5 -23.5t23.5 -56.5t-23.5 -56.5t-57.5 -23.5zM344 768q-17 0 -28 -10.5t-11 -26.5t11 -26.5t28 -10.5q16 0 27 10.5t11 26.5t-11 26.5t-27 10.5zM580 128q0 -34 8.5 -57.5t20.5 -37.5t25.5 -20
t23.5 -6v-7h-190v68q-26 -34 -64.5 -56.5t-92.5 -22.5q-44 0 -81.5 11t-64.5 32.5t-42 53.5t-15 74v209q0 36 -8.5 60t-20.5 38.5t-25.5 20t-23.5 5.5v7h190l1 -352q0 -29 8.5 -54t24 -44t37 -29.5t46.5 -10.5q45 0 76.5 20.5t54.5 52.5v286q0 36 -8.5 60t-20.5 38.5
t-25.5 20t-23.5 5.5v7h190v-372z" />
    <glyph glyph-name="Uhungarumlaut" unicode="&#x170;" horiz-adv-x="686" 
d="M340 984q-22 -33 -53 -71t-58 -62h-42q6 25 26.5 62.5t42.5 70.5l12 16h82zM489 984q-22 -33 -53 -71t-58 -62h-42q6 25 26.5 62.5t42.5 70.5l12 16h82zM656 693q-10 0 -23.5 -5t-26 -18.5t-21.5 -36.5t-9 -60v-411q0 -40 -16.5 -72t-44 -54t-64 -33.5t-76.5 -11.5
q-64 0 -114 16.5t-84 42.5t-51.5 58.5t-17.5 64.5v399q0 36 -8.5 59.5t-20.5 37t-25.5 19t-23.5 5.5v7h271v-7q-10 0 -23.5 -5t-26 -18.5t-21.5 -36.5t-9 -60v-432q0 -39 14.5 -65.5t37 -43.5t49.5 -24.5t52 -7.5q28 0 61.5 9.5t62.5 30t48.5 52t19.5 74.5v406
q0 36 -8.5 59.5t-20.5 37t-25.5 19t-23.5 5.5v7h168v-7z" />
    <glyph glyph-name="uhungarumlaut" unicode="&#x171;" horiz-adv-x="688" 
d="M341 784q-22 -33 -53 -71t-58 -62h-42q6 25 26.5 62.5t42.5 70.5l12 16h82zM337 651q6 25 26.5 62.5t42.5 70.5l12 16h82l-10 -16q-22 -33 -53 -71t-58 -62h-42zM580 128q0 -34 8.5 -57.5t20.5 -37.5t25.5 -20t23.5 -6v-7h-190v68q-26 -34 -64.5 -56.5t-92.5 -22.5
q-44 0 -81.5 11t-64.5 32.5t-42 53.5t-15 74v209q0 36 -8.5 60t-20.5 38.5t-25.5 20t-23.5 5.5v7h190l1 -352q0 -29 8.5 -54t24 -44t37 -29.5t46.5 -10.5q45 0 76.5 20.5t54.5 52.5v286q0 36 -8.5 60t-20.5 38.5t-25.5 20t-23.5 5.5v7h190v-372z" />
    <glyph glyph-name="Uogonek" unicode="&#x172;" horiz-adv-x="686" 
d="M656 693q-10 0 -23.5 -5t-26 -18.5t-21.5 -36.5t-9 -60v-411q0 -34 -12 -62t-32 -49t-47.5 -35t-59.5 -20l1 -3q11 -35 -4 -51t-37 -25t-42 -17t-20 -29q0 -17 6.5 -27t15 -16t16.5 -8t10 -2h11q29 0 44 5.5t20 14.5q-6 -3 -13 -3q-12 0 -20.5 7t-8.5 17q0 11 8.5 18
t20.5 7q11 0 20 -8t9 -24q0 -18 -18 -35t-62 -17h-3q-53 0 -84 18t-31 56q0 19 12 29.5t29.5 16.5t37.5 10t36 10.5t24.5 18t3.5 32.5v2q-8 -1 -16 -1.5t-16 -0.5q-64 0 -114 16.5t-84 42.5t-51.5 58.5t-17.5 64.5v399q0 36 -8.5 59.5t-20.5 37t-25.5 19t-23.5 5.5v7h271v-7
q-10 0 -23.5 -5t-26 -18.5t-21.5 -36.5t-9 -60v-432q0 -39 14.5 -65.5t37 -43.5t49.5 -24.5t52 -7.5q28 0 61.5 9.5t62.5 30t48.5 52t19.5 74.5v406q0 36 -8.5 59.5t-20.5 37t-25.5 19t-23.5 5.5v7h168v-7z" />
    <glyph glyph-name="uogonek" unicode="&#x173;" horiz-adv-x="688" 
d="M581 0l1 -2q9 -36 -5.5 -53t-36 -26.5t-41 -18t-19.5 -29.5q0 -17 6.5 -27t15 -16t16.5 -8t10 -2h11q29 0 44 5.5t20 14.5q-6 -3 -13 -3q-12 0 -20.5 7t-8.5 17q0 11 8.5 18t20.5 7q11 0 20 -8t9 -24q0 -18 -18 -35t-62 -17h-3q-53 0 -84 18t-31 56q0 19 12 30t29.5 17.5
t37 11t35.5 11.5t24.5 19t3.5 33l-1 4h-94v68q-26 -34 -64.5 -56.5t-92.5 -22.5q-44 0 -81.5 11t-64.5 32.5t-42 53.5t-15 74v209q0 36 -8.5 60t-20.5 38.5t-25.5 20t-23.5 5.5v7h190l1 -352q0 -29 8.5 -54t24 -44t37 -29.5t46.5 -10.5q45 0 76.5 20.5t54.5 52.5v286
q0 36 -8.5 60t-20.5 38.5t-25.5 20t-23.5 5.5v7h190v-372q0 -34 8.5 -57.5t20.5 -37.5t25.5 -20t23.5 -6v-7h-77z" />
    <glyph glyph-name="Wcircumflex" unicode="&#x174;" horiz-adv-x="1030" 
d="M514 984q-22 -33 -53 -71t-58 -62h-42q6 25 26.5 62.5t42.5 70.5l12 16h147l11 -16q23 -33 43 -70.5t26 -62.5h-42q-27 24 -57.5 62t-52.5 71l-2 2zM1000 693q-17 0 -38 -7.5t-42 -25t-40 -46.5t-32 -72l-167 -542h-28l-145 480l-135 -480h-28l-168 544q-14 45 -30.5 74
t-35 45.5t-39 23t-42.5 6.5v7h357v-7q-18 0 -42.5 -5t-43 -22.5t-25 -51t9.5 -90.5l114 -390l140 504l35 -1l139 -487l112 361q27 87 7.5 134.5t-92.5 47.5v7h259v-7z" />
    <glyph glyph-name="wcircumflex" unicode="&#x175;" horiz-adv-x="986" 
d="M492 784q-22 -33 -53 -71t-58 -62h-42q6 25 26.5 62.5t42.5 70.5l12 16h147l11 -16q23 -33 43 -70.5t26 -62.5h-42q-27 24 -57.5 62t-52.5 71l-2 2zM956 493q-11 0 -26.5 -6t-33 -23t-37.5 -46t-40 -76l-149 -342h-28l-142 329l-145 -329h-28l-167 344q-22 45 -41.5 74
t-36 45.5t-30 23t-22.5 6.5v7h281v-7q-17 0 -31.5 -8.5t-21 -26.5t-2 -46t25.5 -68l115 -215l142 320h22l150 -323l96 219q20 46 22 75t-7 45t-26 22t-35 6v7h195v-7z" />
    <glyph glyph-name="Ycircumflex" unicode="&#x176;" horiz-adv-x="741" 
d="M370 984q-22 -33 -53 -71t-58 -62h-42q6 25 26.5 62.5t42.5 70.5l12 16h147l11 -16q23 -33 43 -70.5t26 -62.5h-42q-27 24 -57.5 62t-52.5 71l-2 2zM711 693q-27 0 -48 -5t-39 -18.5t-35 -37t-36 -60.5l-114 -217v-224q0 -37 8.5 -61t20.5 -38t25.5 -19.5t23.5 -5.5v-7
h-273v7q10 0 23.5 5t26 18.5t21.5 37.5t9 62v183l-136 259q-17 33 -33.5 56.5t-35 37.5t-40.5 20.5t-49 6.5v7h355v-7q-26 0 -45.5 -6t-29 -20.5t-7 -37.5t20.5 -56l110 -207l110 207q20 37 22 60.5t-8.5 36.5t-31 18t-47.5 5v7h232v-7z" />
    <glyph glyph-name="ycircumflex" unicode="&#x177;" horiz-adv-x="676" 
d="M340 784q-22 -33 -53 -71t-58 -62h-42q6 25 26.5 62.5t42.5 70.5l12 16h147l11 -16q23 -33 43 -70.5t26 -62.5h-42q-27 24 -57.5 62t-52.5 71l-2 2zM646 493q-11 0 -26.5 -6t-33 -23t-37.5 -46t-40 -76l-170 -390q-15 -34 -35.5 -56t-44.5 -35t-50.5 -18.5t-53.5 -5.5
q-28 0 -47.5 17t-19.5 41q0 23 19.5 40t47.5 17t47.5 -17t19.5 -40q0 -14 -6 -24q30 2 59.5 18t50.5 65l13 32l-174 358q-22 46 -42 75t-36.5 45.5t-29.5 22.5t-22 6v7h284v-7q-17 0 -31 -9t-20 -27.5t-2 -46.5t24 -66l112 -215l95 216q20 46 22 75t-7 45t-26 22t-35 6v7
h195v-7z" />
    <glyph glyph-name="Ydieresis" unicode="&#x178;" horiz-adv-x="741" 
d="M336 900h-62v64h62v-64zM467 900h-62v64h62v-64zM711 693q-27 0 -48 -5t-39 -18.5t-35 -37t-36 -60.5l-114 -217v-224q0 -37 8.5 -61t20.5 -38t25.5 -19.5t23.5 -5.5v-7h-273v7q10 0 23.5 5t26 18.5t21.5 37.5t9 62v183l-136 259q-17 33 -33.5 56.5t-35 37.5t-40.5 20.5
t-49 6.5v7h355v-7q-26 0 -45.5 -6t-29 -20.5t-7 -37.5t20.5 -56l110 -207l110 207q20 37 22 60.5t-8.5 36.5t-31 18t-47.5 5v7h232v-7z" />
    <glyph glyph-name="Zacute" unicode="&#x179;" horiz-adv-x="626" 
d="M385 984q-22 -33 -53 -71t-58 -62h-42q6 25 26.5 62.5t42.5 70.5l12 16h82zM31 0l-1 7q5 0 13.5 4.5t20.5 17.5t28 37.5t36 64.5l282 561h-90q-103 0 -157.5 -47.5t-65.5 -125.5h-8v181h472l1 -7q-16 0 -35 -25.5t-54 -95.5l-280 -564h192q88 0 140 46.5t63 124.5h8v-179
h-565z" />
    <glyph glyph-name="zacute" unicode="&#x17a;" horiz-adv-x="515" 
d="M329 784q-22 -33 -53 -71t-58 -62h-42q6 25 26.5 62.5t42.5 70.5l12 16h82zM31 0l-1 7q5 0 12 4.5t17 18t25 38t37 63.5l200 361h-131q-31 0 -53.5 -4.5t-39 -17.5t-26.5 -37t-16 -63h-8v130h422l1 -7q-16 0 -34.5 -27t-54.5 -94l-197 -364h135q38 0 65 3.5t46 15
t30 34.5t17 62h8v-123h-454z" />
    <glyph glyph-name="Zdotaccent" unicode="&#x17b;" horiz-adv-x="626" 
d="M344 900h-62v64h62v-64zM31 0l-1 7q5 0 13.5 4.5t20.5 17.5t28 37.5t36 64.5l282 561h-90q-103 0 -157.5 -47.5t-65.5 -125.5h-8v181h472l1 -7q-16 0 -35 -25.5t-54 -95.5l-280 -564h192q88 0 140 46.5t63 124.5h8v-179h-565z" />
    <glyph glyph-name="zdotaccent" unicode="&#x17c;" horiz-adv-x="515" 
d="M289 700h-62v64h62v-64zM31 0l-1 7q5 0 12 4.5t17 18t25 38t37 63.5l200 361h-131q-31 0 -53.5 -4.5t-39 -17.5t-26.5 -37t-16 -63h-8v130h422l1 -7q-16 0 -34.5 -27t-54.5 -94l-197 -364h135q38 0 65 3.5t46 15t30 34.5t17 62h8v-123h-454z" />
    <glyph glyph-name="Zcaron" unicode="&#x17d;" horiz-adv-x="626" 
d="M280 851q-27 24 -57.5 62t-52.5 71l-11 16h83l11 -16q17 -26 33.5 -55t27.5 -53q10 24 26.5 53t33.5 55l12 16h82l-10 -16q-22 -33 -53 -71t-58 -62h-67zM596 0h-565l-1 7q5 0 13.5 4.5t20.5 17.5t28 37.5t36 64.5l282 561h-90q-103 0 -157.5 -47.5t-65.5 -125.5h-8v181
h472l1 -7q-16 0 -35 -25.5t-54 -95.5l-280 -564h192q88 0 140 46.5t63 124.5h8v-179z" />
    <glyph glyph-name="zcaron" unicode="&#x17e;" horiz-adv-x="515" 
d="M224 651q-27 24 -57.5 62t-52.5 71l-11 16h83l11 -16q17 -26 33.5 -55t27.5 -53q10 24 26.5 53t33.5 55l12 16h82l-10 -16q-22 -33 -53 -71t-58 -62h-67zM485 0h-454l-1 7q5 0 12 4.5t17 18t25 38t37 63.5l200 361h-131q-31 0 -53.5 -4.5t-39 -17.5t-26.5 -37t-16 -63h-8
v130h422l1 -7q-16 0 -34.5 -27t-54.5 -94l-197 -364h135q38 0 65 3.5t46 15t30 34.5t17 62h8v-123z" />
    <glyph glyph-name="longs" unicode="&#x17f;" horiz-adv-x="500" 
d="M305 811q50 0 82 -11.5t50.5 -29.5t25.5 -38t7 -37q0 -24 -20 -41t-47 -17q-28 0 -47.5 17t-19.5 41q0 23 19.5 40t47.5 17q33 0 53 -23q-11 24 -37.5 42.5t-71.5 18.5q-35 0 -59 -14t-39 -39.5t-21.5 -59.5t-6.5 -75v-471q0 -22 -4 -45.5t-14 -42.5t-28 -31t-45 -12
h-100v7q10 0 23.5 7t26 21.5t21.5 38t9 56.5v460q0 61 14.5 103t40.5 68t62 38t78 12z" />
    <glyph glyph-name="florin" unicode="&#x192;" horiz-adv-x="500" 
d="M221 9q0 -61 -15 -103t-41.5 -68t-63 -38t-78.5 -12q-48 0 -80.5 12t-52 30t-28 38t-8.5 36q0 24 19.5 41.5t47.5 17.5t47.5 -17.5t19.5 -41.5q0 -23 -19.5 -39.5t-47.5 -16.5t-47 16q12 -22 38.5 -38.5t68.5 -16.5q35 0 59.5 15t40 41t22.5 61.5t7 76.5v490h-50v7h50v90
q0 61 14.5 103t40.5 68t62 38t78 12q50 0 82 -11.5t50.5 -29.5t25.5 -38t7 -37q0 -24 -20 -41t-47 -17q-28 0 -47.5 17t-19.5 41q0 23 19.5 40t47.5 17q16 0 30 -6.5t23 -17.5q-11 25 -37.5 43.5t-71.5 18.5q-35 0 -59 -14t-39 -39.5t-21.5 -59.5t-6.5 -75v-102h135v-7h-135
v-484z" />
    <glyph glyph-name="Scommaaccent" unicode="&#x218;" horiz-adv-x="594" 
d="M562 211q0 -45 -24.5 -85t-66.5 -69.5t-98.5 -46.5t-120.5 -17q-43 0 -74 3t-53.5 6t-38.5 6t-28 3q-26 0 -26 -15h-7v223h7v-13q0 -58 23 -97.5t58 -62.5t76.5 -33t79.5 -10q20 0 49 9t56 27.5t46.5 48t19.5 70.5q0 46 -30.5 75t-76.5 51t-99 41t-99 44.5t-76.5 62
t-30.5 93.5q0 43 20.5 77t57.5 58t89.5 36.5t116.5 12.5q36 0 61 -2.5t43 -6t31.5 -6.5t25.5 -3q26 0 26 15h7v-191h-7v13q0 81 -52 126.5t-152 45.5q-20 0 -45.5 -7.5t-48.5 -22t-38.5 -36t-15.5 -50.5q0 -49 30.5 -79t77 -51.5t100 -39t100 -43t77 -63t30.5 -97.5z
M295 -49q20 0 38 -16t18 -51q0 -23 -13.5 -44t-37.5 -28l-1 3q11 2 14 10.5t3 19.5q0 14 -7 12q-4 0 -7 -0.5t-7 -0.5q-23 0 -39.5 14t-16.5 34t16.5 33.5t39.5 13.5z" />
    <glyph glyph-name="scommaaccent" unicode="&#x219;" horiz-adv-x="532" 
d="M502 153q0 -40 -21.5 -70t-59 -50t-88 -30t-108.5 -9q-39 0 -64.5 2.5t-43 6l-30 6t-24.5 2.5q-26 0 -26 -15h-7v184h7v-13q0 -46 18.5 -77t48 -50.5t66 -28t72.5 -8.5q23 0 48.5 5t48 17t37 33t14.5 52q0 34 -26.5 53t-66 32t-86 24.5t-86 29.5t-66 47t-26.5 77
q0 27 13 52t42 45t76 32t115 12q35 0 59 -2.5t41.5 -6t31 -6.5t25.5 -3q26 0 26 15h7v-176h-7v13q0 32 -13 60t-37.5 50t-60.5 34.5t-81 12.5q-24 0 -46 -6t-39.5 -17.5t-28 -28.5t-10.5 -39q0 -38 26.5 -57.5t66 -31t85.5 -19.5t85.5 -24.5t66 -46t26.5 -82.5zM266 -49
q20 0 38 -16t18 -51q0 -23 -13.5 -44t-37.5 -28l-1 3q11 2 14 10.5t3 19.5q0 14 -7 12q-4 0 -7 -0.5t-7 -0.5q-23 0 -39.5 14t-16.5 34t16.5 33.5t39.5 13.5z" />
    <glyph glyph-name="uni021A" unicode="&#x21a;" horiz-adv-x="672" 
d="M634 509q-6 39 -19.5 72.5t-41.5 58t-71.5 38.5t-109.5 14l-1 -561q0 -37 8.5 -61.5t20.5 -38t25.5 -19t23.5 -5.5v-7h-271v7q10 0 23.5 5t26 18.5t21.5 37.5t9 62l1 562q-66 0 -110 -14t-71 -38.5t-40.5 -58t-19.5 -72.5h-8v191h612v-191h-8zM336 -49q20 0 38 -16
t18 -51q0 -23 -13.5 -44t-37.5 -28l-1 3q11 2 14 10.5t3 19.5q0 14 -7 12q-4 0 -7 -0.5t-7 -0.5q-23 0 -39.5 14t-16.5 34t16.5 33.5t39.5 13.5z" />
    <glyph glyph-name="uni021B" unicode="&#x21b;" horiz-adv-x="412" 
d="M382 34q-17 -20 -49 -31t-82 -11q-34 0 -65 11t-55 32.5t-38 53.5t-14 74v330h-49v7h49v172l134 66v-7q-7 -4 -11 -10t-6 -17.5t-2.5 -31t-0.5 -50.5v-122h115v-7h-115v-342q0 -62 27 -100t79 -38q17 0 38.5 7.5t35.5 21.5zM206 -49q20 0 38 -16t18 -51q0 -23 -13.5 -44
t-37.5 -28l-1 3q11 2 14 10.5t3 19.5q0 14 -7 12q-4 0 -7 -0.5t-7 -0.5q-23 0 -39.5 14t-16.5 34t16.5 33.5t39.5 13.5z" />
    <glyph glyph-name="dotlessj" unicode="&#x237;" horiz-adv-x="318" 
d="M228 -36q0 -84 -43 -130t-144 -47q-49 0 -80.5 11.5t-49.5 29.5t-25 38t-7 37q0 23 20 39.5t48 16.5q27 0 47 -16.5t20 -39.5q0 -24 -20 -41.5t-47 -17.5q-17 0 -32 7.5t-24 19.5q8 -25 31.5 -44t67.5 -19q41 0 65 14.5t36.5 36t16 46.5t3.5 47v420q0 37 -8.5 60.5
t-20.5 37t-25.5 18.5t-23.5 5v7h195v-536z" />
    <glyph glyph-name="circumflex" unicode="&#x2c6;" horiz-adv-x="368" 
d="M269 784q23 -33 43 -70.5t26 -62.5h-42q-27 24 -57.5 62t-52.5 71l-2 2l-1 -2q-22 -33 -53 -71t-58 -62h-42q6 25 26.5 62.5t42.5 70.5l12 16h147z" />
    <glyph glyph-name="caron" unicode="&#x2c7;" horiz-adv-x="369" 
d="M329 784q-22 -33 -53 -71t-58 -62h-67q-27 24 -57.5 62t-52.5 71l-11 16h83l11 -16q17 -26 33.5 -55t27.5 -53q10 24 26.5 53t33.5 55l12 16h82z" />
    <glyph glyph-name="breve" unicode="&#x2d8;" horiz-adv-x="278" 
d="M248 807q0 -22 -8.5 -41.5t-23 -34t-34 -23t-42.5 -8.5t-43 8.5t-35 23t-23.5 34t-8.5 41.5v2h47v-2q0 -26 18 -42.5t45 -16.5q26 0 44 16.5t18 42.5v2h46v-2z" />
    <glyph glyph-name="dotaccent" unicode="&#x2d9;" horiz-adv-x="122" 
d="M92 700h-62v64h62v-64z" />
    <glyph glyph-name="ring" unicode="&#x2da;" horiz-adv-x="223" 
d="M112 651q-35 0 -58.5 23.5t-23.5 56.5t23.5 56.5t58.5 23.5q34 0 57.5 -23.5t23.5 -56.5t-23.5 -56.5t-57.5 -23.5zM112 694q16 0 27 10.5t11 26.5t-11 26.5t-27 10.5q-17 0 -28 -10.5t-11 -26.5t11 -26.5t28 -10.5z" />
    <glyph glyph-name="ogonek" unicode="&#x2db;" horiz-adv-x="258" 
d="M191 -2q9 -36 -5.5 -53t-36 -26.5t-41 -18t-19.5 -29.5q0 -17 6.5 -27t15 -16t16.5 -8t10 -2h11q29 0 44 5.5t20 14.5q-6 -3 -13 -3q-12 0 -20.5 7t-8.5 17q0 11 8.5 18t20.5 7q11 0 20 -8t9 -24q0 -18 -18 -35t-62 -17h-3q-53 0 -84 18t-31 56q0 19 12 30t29.5 17.5
t37 11t35.5 11.5t24.5 19t3.5 33l-5 21h19z" />
    <glyph glyph-name="tilde" unicode="&#x2dc;" horiz-adv-x="350" 
d="M30 720q0 47 21.5 64t48.5 18q21 0 40 -6t36 -13.5t32 -13.5t28 -6q9 0 19.5 4.5t10.5 15.5v17h54v-22q0 -44 -20 -60t-43 -17q-19 0 -38 7.5t-36.5 16.5t-34 16.5t-31.5 7.5q-11 0 -21.5 -6.5t-10.5 -23.5v-17h-55v18z" />
    <glyph glyph-name="hungarumlaut" unicode="&#x2dd;" horiz-adv-x="372" 
d="M183 784q-22 -33 -53 -71t-58 -62h-42q6 25 26.5 62.5t42.5 70.5l12 16h82zM332 784q-22 -33 -53 -71t-58 -62h-42q6 25 26.5 62.5t42.5 70.5l12 16h82z" />
    <glyph glyph-name="commaaccentcomb" unicode="&#x326;" horiz-adv-x="0" 
d="M86 -49q20 0 38 -16t18 -51q0 -23 -13.5 -44t-37.5 -28l-1 3q11 2 14 10.5t3 19.5q0 14 -7 12q-4 0 -7 -0.5t-7 -0.5q-23 0 -39.5 14t-16.5 34t16.5 33.5t39.5 13.5z" />
    <glyph glyph-name="Delta" unicode="&#x394;" horiz-adv-x="512" 
d="M482 0h-452v57l192 443h68l192 -443v-57zM256 422l-158 -365h316z" />
    <glyph glyph-name="Omega" unicode="&#x3a9;" horiz-adv-x="577" 
d="M353 1v57q28 10 53.5 30.5t45 47.5t31 58.5t11.5 64.5q0 42 -17 78.5t-45.5 63.5t-66 43t-77.5 16t-77 -16t-65 -43t-44.5 -63.5t-16.5 -78.5q0 -33 11.5 -65.5t31 -59.5t46 -47t55.5 -30l-2 -57h-194v57h87q-42 37 -66 89.5t-24 112.5q0 55 20.5 102.5t55.5 82t82 54
t100 19.5t100 -19.5t82 -54t55.5 -82t20.5 -102.5q0 -60 -23.5 -112t-65.5 -89h90v-57h-194z" />
    <glyph glyph-name="mu" unicode="&#x3bc;" horiz-adv-x="434" 
d="M347 0q-18 22 -26.5 44t-12.5 44q-26 -40 -63 -64t-82 -24q-46 0 -75 21l-1 -221h-57l2 700h57v-299q0 -69 15 -106.5t64 -37.5q32 0 57 19.5t43 51t27.5 70.5t9.5 77v225h57v-225v-14v-118q0 -36 7 -71.5t35 -71.5h-57z" />
    <glyph glyph-name="pi" unicode="&#x3c0;" horiz-adv-x="510" 
d="M387 143q0 -36 7 -71.5t35 -71.5h-57q-28 35 -35 69t-7 69v305h-122v-443h-57v443h-17q-19 0 -47 -4.5t-57 -33.5v57q29 29 56.5 33.5t45.5 4.5h348v-57h-93v-300z" />
    <glyph glyph-name="Wgrave" unicode="&#x1e80;" horiz-adv-x="1030" 
d="M528 984q23 -33 43 -70.5t26 -62.5h-42q-27 24 -57.5 62t-52.5 71l-11 16h83zM387 700v-7q-18 0 -42.5 -5t-43 -22.5t-25 -51t9.5 -90.5l114 -390l140 504l35 -1l139 -487l112 361q27 87 7.5 134.5t-92.5 47.5v7h259v-7q-17 0 -38 -7.5t-42 -25t-40 -46.5t-32 -72
l-167 -542h-28l-145 480l-135 -480h-28l-168 544q-14 45 -30.5 74t-35 45.5t-39 23t-42.5 6.5v7h357z" />
    <glyph glyph-name="wgrave" unicode="&#x1e81;" horiz-adv-x="986" 
d="M533 651q-27 24 -57.5 62t-52.5 71l-11 16h83l11 -16q23 -33 43 -70.5t26 -62.5h-42zM956 493q-11 0 -26.5 -6t-33 -23t-37.5 -46t-40 -76l-149 -342h-28l-142 329l-145 -329h-28l-167 344q-22 45 -41.5 74t-36 45.5t-30 23t-22.5 6.5v7h281v-7q-17 0 -31.5 -8.5
t-21 -26.5t-2 -46t25.5 -68l115 -215l142 320h22l150 -323l96 219q20 46 22 75t-7 45t-26 22t-35 6v7h195v-7z" />
    <glyph glyph-name="Wacute" unicode="&#x1e82;" horiz-adv-x="1030" 
d="M587 984q-22 -33 -53 -71t-58 -62h-42q6 25 26.5 62.5t42.5 70.5l12 16h82zM387 700v-7q-18 0 -42.5 -5t-43 -22.5t-25 -51t9.5 -90.5l114 -390l140 504l35 -1l139 -487l112 361q27 87 7.5 134.5t-92.5 47.5v7h259v-7q-17 0 -38 -7.5t-42 -25t-40 -46.5t-32 -72
l-167 -542h-28l-145 480l-135 -480h-28l-168 544q-14 45 -30.5 74t-35 45.5t-39 23t-42.5 6.5v7h357z" />
    <glyph glyph-name="wacute" unicode="&#x1e83;" horiz-adv-x="986" 
d="M565 784q-22 -33 -53 -71t-58 -62h-42q6 25 26.5 62.5t42.5 70.5l12 16h82zM956 493q-11 0 -26.5 -6t-33 -23t-37.5 -46t-40 -76l-149 -342h-28l-142 329l-145 -329h-28l-167 344q-22 45 -41.5 74t-36 45.5t-30 23t-22.5 6.5v7h281v-7q-17 0 -31.5 -8.5t-21 -26.5t-2 -46
t25.5 -68l115 -215l142 320h22l150 -323l96 219q20 46 22 75t-7 45t-26 22t-35 6v7h195v-7z" />
    <glyph glyph-name="Wdieresis" unicode="&#x1e84;" horiz-adv-x="1030" 
d="M480 900h-62v64h62v-64zM611 900h-62v64h62v-64zM387 700v-7q-18 0 -42.5 -5t-43 -22.5t-25 -51t9.5 -90.5l114 -390l140 504l35 -1l139 -487l112 361q27 87 7.5 134.5t-92.5 47.5v7h259v-7q-17 0 -38 -7.5t-42 -25t-40 -46.5t-32 -72l-167 -542h-28l-145 480l-135 -480
h-28l-168 544q-14 45 -30.5 74t-35 45.5t-39 23t-42.5 6.5v7h357z" />
    <glyph glyph-name="wdieresis" unicode="&#x1e85;" horiz-adv-x="986" 
d="M396 700v64h62v-64h-62zM527 700v64h62v-64h-62zM956 493q-11 0 -26.5 -6t-33 -23t-37.5 -46t-40 -76l-149 -342h-28l-142 329l-145 -329h-28l-167 344q-22 45 -41.5 74t-36 45.5t-30 23t-22.5 6.5v7h281v-7q-17 0 -31.5 -8.5t-21 -26.5t-2 -46t25.5 -68l115 -215
l142 320h22l150 -323l96 219q20 46 22 75t-7 45t-26 22t-35 6v7h195v-7z" />
    <glyph glyph-name="uni1E9E" unicode="&#x1e9e;" horiz-adv-x="734" 
d="M489 379q41 -7 79.5 -20.5t68.5 -36.5t48.5 -56.5t18.5 -80.5q0 -45 -18.5 -81.5t-51.5 -61.5t-78.5 -38.5t-99.5 -12.5q-33 1 -65.5 14t-58.5 36t-42 56t-15 73q1 17 5 36.5t12 40.5h8q-18 -43 -18 -80q0 -36 15 -67t39.5 -54t55.5 -36t64 -12q22 1 48 11.5t48.5 33
t37.5 57.5t15 84q0 45 -22 81t-53.5 61t-64.5 38t-56 13h-18q-14 41 -5.5 67.5t29.5 45.5t47.5 33.5t48.5 32t33 41t0 60.5q-46 26 -89 34.5t-86 8.5q-29 0 -55 -15.5t-46 -42.5t-31.5 -63t-11.5 -77v-371q0 -32 8.5 -55.5t20.5 -38.5t25.5 -22.5t23.5 -7.5v-7h-273v7
q10 0 23.5 7t26 21.5t21.5 38t9 56.5v313q0 61 15 109.5t46.5 82.5t80.5 52.5t117 18.5q43 0 88.5 -8t91.5 -37q16 -34 3.5 -67t-31.5 -67t-32.5 -70.5t0.5 -77.5z" />
    <glyph glyph-name="Ygrave" unicode="&#x1ef2;" horiz-adv-x="741" 
d="M383 984q23 -33 43 -70.5t26 -62.5h-42q-27 24 -57.5 62t-52.5 71l-11 16h83zM711 693q-27 0 -48 -5t-39 -18.5t-35 -37t-36 -60.5l-114 -217v-224q0 -37 8.5 -61t20.5 -38t25.5 -19.5t23.5 -5.5v-7h-273v7q10 0 23.5 5t26 18.5t21.5 37.5t9 62v183l-136 259
q-17 33 -33.5 56.5t-35 37.5t-40.5 20.5t-49 6.5v7h355v-7q-26 0 -45.5 -6t-29 -20.5t-7 -37.5t20.5 -56l110 -207l110 207q20 37 22 60.5t-8.5 36.5t-31 18t-47.5 5v7h232v-7z" />
    <glyph glyph-name="ygrave" unicode="&#x1ef3;" horiz-adv-x="676" 
d="M381 651q-27 24 -57.5 62t-52.5 71l-11 16h83l11 -16q23 -33 43 -70.5t26 -62.5h-42zM646 493q-11 0 -26.5 -6t-33 -23t-37.5 -46t-40 -76l-170 -390q-15 -34 -35.5 -56t-44.5 -35t-50.5 -18.5t-53.5 -5.5q-28 0 -47.5 17t-19.5 41q0 23 19.5 40t47.5 17t47.5 -17
t19.5 -40q0 -14 -6 -24q30 2 59.5 18t50.5 65l13 32l-174 358q-22 46 -42 75t-36.5 45.5t-29.5 22.5t-22 6v7h284v-7q-17 0 -31 -9t-20 -27.5t-2 -46.5t24 -66l112 -215l95 216q20 46 22 75t-7 45t-26 22t-35 6v7h195v-7z" />
    <glyph glyph-name="endash" unicode="&#x2013;" horiz-adv-x="298" 
d="M268 421h-238v32h238v-32z" />
    <glyph glyph-name="emdash" unicode="&#x2014;" horiz-adv-x="370" 
d="M340 421h-310v32h310v-32z" />
    <glyph glyph-name="quoteleft" unicode="&#x2018;" horiz-adv-x="194" 
d="M149 777q-11 -18 -18 -41.5t-8.5 -47t2 -45.5t13.5 -37h-54q-15 11 -27.5 32.5t-19.5 46.5t-6.5 49.5t11.5 42.5l15 23h107z" />
    <glyph glyph-name="quoteright" unicode="&#x2019;" horiz-adv-x="194" 
d="M152 777q12 -18 12.5 -42.5t-6.5 -49.5t-19.5 -46.5t-27.5 -32.5h-54q9 15 13 37t2 45.5t-8.5 47t-18.5 41.5l-15 23h107z" />
    <glyph glyph-name="quotesinglbase" unicode="&#x201a;" horiz-adv-x="167" 
d="M137 81q0 -21 -1.5 -45t-5 -47.5t-8.5 -44.5t-11 -37h-54q-14 33 -20.5 82t-6.5 92v21h107v-21z" />
    <glyph glyph-name="quotedblleft" unicode="&#x201c;" horiz-adv-x="347" 
d="M149 777q-12 -18 -18.5 -41.5t-8.5 -47t2 -45.5t13 -37h-54q-15 11 -27.5 32.5t-19.5 46.5t-6.5 49.5t12.5 42.5l15 23h107zM302 777q-12 -18 -18.5 -41.5t-8.5 -47t2 -45.5t13 -37h-54q-15 11 -27.5 32.5t-19.5 46.5t-6.5 49.5t12.5 42.5l15 23h107z" />
    <glyph glyph-name="quotedblright" unicode="&#x201d;" horiz-adv-x="347" 
d="M152 777q12 -18 12.5 -42.5t-6.5 -49.5t-19.5 -46.5t-27.5 -32.5h-54q9 15 13 37t2 45.5t-8.5 47t-18.5 41.5l-15 23h107zM305 777q11 -18 11.5 -42.5t-6.5 -49.5t-19.5 -46.5t-27.5 -32.5h-54q10 15 13.5 37t2 45.5t-8.5 47t-18 41.5l-15 23h107z" />
    <glyph glyph-name="quotedblbase" unicode="&#x201e;" horiz-adv-x="307" 
d="M137 81q0 -21 -1.5 -45t-5 -47.5t-8.5 -44.5t-11 -37h-54q-14 33 -20.5 82t-6.5 92v21h107v-21zM277 80q0 -21 -1.5 -45t-5 -47t-8.5 -44t-11 -37h-54q-14 32 -20.5 81t-6.5 92v21h107v-21z" />
    <glyph glyph-name="dagger" unicode="&#x2020;" horiz-adv-x="242" 
d="M178 586q15 0 24.5 -9.5t9.5 -24.5q0 -11 -9.5 -18.5t-24.5 -7.5h-26l-3 -264q-1 -93 -2.5 -145.5t-5 -78.5t-8.5 -32t-13 -6q-7 0 -12 6t-8.5 32t-5 78.5t-2.5 145.5l-3 264h-25q-15 0 -24.5 8.5t-9.5 21.5t9.5 21.5t24.5 8.5h24l-1 80q0 15 9.5 24.5t24.5 9.5
q14 0 23.5 -9.5t9.5 -24.5l-1 -80h25z" />
    <glyph glyph-name="daggerdbl" unicode="&#x2021;" horiz-adv-x="242" 
d="M178 521q15 0 24.5 -7t9.5 -18q0 -9 -9.5 -14.5t-24.5 -5.5h-26l-3 -214q-1 -93 -2.5 -145.5t-5 -78.5t-8.5 -32t-13 -6q-7 0 -12 6t-8.5 32t-5 78.5t-2.5 145.5l-3 214h-25q-15 0 -24.5 6.5t-9.5 16.5q0 9 9.5 15.5t24.5 6.5h25l-1 34h-24q-15 0 -24.5 6t-9.5 16
t9.5 16.5t24.5 6.5h24l-1 66q0 15 9.5 24.5t24.5 9.5q14 0 23.5 -9.5t9.5 -24.5l-1 -66h25q15 0 24.5 -7.5t9.5 -18.5q0 -8 -9.5 -13.5t-24.5 -5.5h-25l-1 -34h26z" />
    <glyph glyph-name="bullet" unicode="&#x2022;" horiz-adv-x="240" 
d="M121 271q-38 0 -64.5 22.5t-26.5 54.5t26.5 53.5t64.5 21.5q36 0 62.5 -21.5t26.5 -53.5t-26.5 -54.5t-62.5 -22.5z" />
    <glyph glyph-name="ellipsis" unicode="&#x2026;" horiz-adv-x="645" 
d="M121 -16q-38 0 -64.5 22.5t-26.5 54.5t26.5 53.5t64.5 21.5q36 0 62.5 -21.5t26.5 -53.5t-26.5 -54.5t-62.5 -22.5zM323 -16q-37 0 -63.5 22.5t-26.5 54.5t26.5 53.5t63.5 21.5t63.5 -21.5t26.5 -53.5t-26.5 -54.5t-63.5 -22.5zM526 -16q-38 0 -64.5 22.5t-26.5 54.5
t26.5 53.5t64.5 21.5q36 0 62.5 -21.5t26.5 -53.5t-26.5 -54.5t-62.5 -22.5z" />
    <glyph glyph-name="perthousand" unicode="&#x2030;" horiz-adv-x="1138" 
d="M104 -104h-69l491 806q-27 -1 -55 9.5t-58.5 25t-64 30t-70.5 25.5q45 -23 72 -67.5t27 -102.5q0 -39 -14 -72t-38 -57t-56 -38t-68 -14q-37 0 -68.5 14t-54 38t-35.5 57t-13 72q0 40 13 74.5t35.5 60t54 40t68.5 14.5h2q76 -1 136.5 -17.5t107 -28t81 -8t58.5 42.5
l69 -1zM304 622q0 38 -8 71t-22 57t-32 38.5t-38 15.5h-3q-21 0 -39 -14t-31.5 -38t-21 -57.5t-7.5 -72.5q0 -37 7.5 -69t21 -55.5t31.5 -36.5t39 -13q20 0 39 13t33 36.5t22.5 55.5t8.5 69zM547 363q36 0 68 -14.5t56 -40t38 -60t14 -74.5q0 -39 -14 -72t-38 -57t-56 -38
t-68 -14q-37 0 -68.5 14t-54 38t-35.5 57t-13 72q0 40 13 74.5t35.5 60t54 40t68.5 14.5zM932 363q36 0 68 -14.5t56 -40t38 -60t14 -74.5q0 -39 -14 -72t-38 -57t-56 -38t-68 -14q-37 0 -68.5 14t-54 38t-35.5 57t-13 72q0 40 13 74.5t35.5 60t54 40t68.5 14.5zM547 0
q20 0 39 13t33 36.5t22.5 55.5t8.5 69q0 39 -8.5 72.5t-22.5 57.5t-33 38t-39 14q-21 0 -38.5 -14t-31 -38t-21 -57.5t-7.5 -72.5q0 -37 7.5 -69t21 -55.5t31 -36.5t38.5 -13zM932 0q20 0 39 13t33.5 36.5t23.5 55.5t9 69q0 39 -9 72.5t-23.5 57.5t-33.5 38t-39 14
q-21 0 -38.5 -14t-31 -38t-21 -57.5t-7.5 -72.5q0 -37 7.5 -69t21 -55.5t31 -36.5t38.5 -13z" />
    <glyph glyph-name="guilsinglleft" unicode="&#x2039;" horiz-adv-x="254" 
d="M117 302q-15 -19 -22.5 -33.5t-7 -28t8 -28t22.5 -33.5l106 -134v-82l-1 -1l-134 160q-30 36 -44.5 64t-14.5 55t15.5 56t45.5 65l132 158l1 -1v-85z" />
    <glyph glyph-name="guilsinglright" unicode="&#x203a;" horiz-adv-x="254" 
d="M31 520l132 -158q30 -36 45.5 -65t15.5 -56t-14.5 -55t-44.5 -64l-134 -160l-1 1v82l106 134q15 19 22.5 33.5t8 28t-7 28t-22.5 33.5l-107 132v85z" />
    <glyph glyph-name="exclamdbl" unicode="&#x203c;" horiz-adv-x="450" 
d="M116 183q0 27 -12 81t-26 116.5t-26 123t-12 101.5q0 48 23.5 77.5t57.5 29.5q32 0 55.5 -29.5t23.5 -77.5q0 -40 -11 -100.5t-24.5 -123t-24.5 -117t-11 -81.5q-3 0 -8 -1t-5 1zM325 183q0 27 -11.5 81t-26 116.5t-26 123t-11.5 101.5q0 48 23.5 77.5t56.5 29.5
q32 0 55.5 -29.5t23.5 -77.5q0 -40 -11 -100.5t-24.5 -123t-24.5 -117t-11 -81.5q-3 0 -8 -1t-5 1zM121 -16q-38 0 -64.5 22.5t-26.5 54.5t26.5 53.5t64.5 21.5q36 0 62.5 -21.5t26.5 -53.5t-26.5 -54.5t-62.5 -22.5zM330 -16q-37 0 -63.5 22.5t-26.5 54.5t26.5 53.5
t63.5 21.5t63.5 -21.5t26.5 -53.5t-26.5 -54.5t-63.5 -22.5z" />
    <glyph glyph-name="fraction" unicode="&#x2044;" horiz-adv-x="129" 
d="M20 0h-66l219 800h66z" />
    <glyph glyph-name="zerosuperior" unicode="&#x2070;" horiz-adv-x="281" 
d="M140 565q-19 0 -38.5 7t-35.5 21t-26 36t-10 53t10 53.5t26 37t35.5 21.5t38.5 7t39 -7t36 -21.5t26 -37t10 -53.5t-10 -53t-26 -36t-36 -21t-39 -7zM140 568q23 0 41.5 26.5t18.5 87.5t-18.5 88.5t-41.5 27.5t-40.5 -27.5t-17.5 -88.5t17.5 -87.5t40.5 -26.5z" />
    <glyph glyph-name="foursuperior" unicode="&#x2074;" horiz-adv-x="302" 
d="M201 633q1 -33 13.5 -44t21.5 -11v-3h-134v3q17 0 32.5 10.5t15.5 44.5h-120l120 169l51 1v-141h16q43 0 51 28h4l-13 -57h-58zM150 662v131l-93 -131h93z" />
    <glyph glyph-name="fivesuperior" unicode="&#x2075;" horiz-adv-x="262" 
d="M115 701q22 0 43 -2t37.5 -8t26.5 -17.5t10 -31.5q0 -32 -27.5 -52.5t-89.5 -20.5h-3q-35 0 -58.5 17t-23.5 40q0 9 7.5 15.5t18.5 6.5t18 -6.5t7 -15.5t-7 -15.5t-18 -6.5q-6 0 -11 3q8 -18 28 -26t39 -8h3q29 0 50.5 16t21.5 50q0 28 -21.5 42.5t-51.5 14.5h-62l26 103
h93q29 0 40.5 1t16.5 7h4l-16 -77h-3q5 20 -6 28.5t-41 8.5h-90l-18 -66h57z" />
    <glyph glyph-name="sixsuperior" unicode="&#x2076;" horiz-adv-x="273" 
d="M140 707q44 0 73.5 -17.5t29.5 -57.5q0 -16 -9 -29t-23 -21t-32 -12.5t-36 -4.5q-46 0 -79.5 28t-33.5 89q0 62 36.5 90.5t87.5 28.5q42 0 61.5 -17t19.5 -40q0 -11 -9 -18.5t-21 -7.5q-13 0 -22 7.5t-9 18.5t9 18.5t22 7.5q6 0 9 -1q-8 13 -23.5 21t-41.5 8
q-31 1 -45.5 -24t-16.5 -79q24 12 53 12zM142 568q25 1 37 21t12 42q0 11 -1.5 23t-6.5 23t-15.5 18t-27.5 7q-10 0 -24.5 -3t-28.5 -12v-5q0 -61 12 -87t43 -27z" />
    <glyph glyph-name="sevensuperior" unicode="&#x2077;" horiz-adv-x="269" 
d="M238 779q6 -33 -6.5 -56t-30.5 -45.5t-33.5 -48t-15.5 -63.5q0 -14 -10.5 -24.5t-25.5 -10.5t-25.5 10.5t-10.5 24.5q0 39 22 59.5t49.5 36t52 33t29.5 51.5h-143q-22 0 -35.5 -7t-21.5 -30h-3l29 77h4q0 -5 11 -6t41 -1h123z" />
    <glyph glyph-name="eightsuperior" unicode="&#x2078;" horiz-adv-x="274" 
d="M193 701q21 -8 36 -21.5t15 -42.5q0 -36 -29.5 -56t-87.5 -20q-40 0 -68.5 20.5t-28.5 53.5q0 29 12.5 44t26.5 22q-18 16 -18 44q0 9 5 19t16 18t29.5 13.5t45.5 5.5q33 0 55 -13t22 -41q0 -17 -9.5 -28t-21.5 -18zM152 797q-23 0 -36.5 -9.5t-13.5 -26.5q0 -15 8 -24
t20.5 -15t28 -10.5t30.5 -9.5q20 11 26 21t6 24q0 16 -16.5 33t-52.5 17zM135 565q25 -1 44.5 12.5t19.5 39.5q0 21 -14.5 32t-34.5 17.5t-42 13t-37 19.5q-16 -10 -27 -24t-11 -40q0 -29 27.5 -48.5t74.5 -21.5z" />
    <glyph glyph-name="ninesuperior" unicode="&#x2079;" horiz-adv-x="273" 
d="M131 802q23 0 43 -7t35.5 -21t24.5 -36.5t9 -53.5q0 -62 -34.5 -90.5t-89.5 -28.5q-38 0 -59.5 17t-21.5 40q0 11 9 19t22 8t21.5 -8t8.5 -19t-8.5 -18t-21.5 -7q-7 0 -10 1q8 -13 24.5 -21t40.5 -9q33 0 47 23t16 73q-12 -6 -26 -9t-28 -3q-45 0 -74 20.5t-29 52.5
q0 40 28.5 58.5t72.5 18.5zM133 656q10 0 25 3t29 13v12q0 61 -12 87.5t-44 27.5q-25 0 -37 -22t-12 -50q0 -7 1 -19.5t5.5 -23.5t15 -19.5t29.5 -8.5z" />
    <glyph glyph-name="zeroinferior" unicode="&#x2080;" horiz-adv-x="281" 
d="M140 -10q-19 0 -38.5 7t-35.5 21t-26 36t-10 53t10 53.5t26 37t35.5 21.5t38.5 7t39 -7t36 -21.5t26 -37t10 -53.5t-10 -53t-26 -36t-36 -21t-39 -7zM140 -7q23 0 41.5 26.5t18.5 87.5t-18.5 88.5t-41.5 27.5t-40.5 -27.5t-17.5 -88.5t17.5 -87.5t40.5 -26.5z" />
    <glyph glyph-name="oneinferior" unicode="&#x2081;" horiz-adv-x="211" 
d="M133 60q0 -33 8 -45t40 -12v-3h-151v3q33 0 42 11.5t9 44.5v90q0 31 -13 38t-37 -4v4l102 50v-177z" />
    <glyph glyph-name="twoinferior" unicode="&#x2082;" horiz-adv-x="274" 
d="M177 28q29 1 42.5 6.5t20.5 34.5h4l-9 -69h-205q0 27 9.5 46.5t25 33t34.5 22.5t37 15q26 9 43 22.5t17 36.5q0 26 -18 39.5t-38 13.5q-51 -2 -74 -26h5q13 0 21.5 -7.5t8.5 -18.5t-8.5 -18.5t-21.5 -7.5t-22 7.5t-9 18.5q0 23 23.5 39.5t76.5 16.5q56 0 80 -22.5
t24 -54.5q0 -30 -20.5 -48t-50.5 -24q-14 -3 -33.5 -5.5t-39 -8t-36.5 -15.5t-25 -27h138z" />
    <glyph glyph-name="threeinferior" unicode="&#x2083;" horiz-adv-x="266" 
d="M168 123q30 -1 49 -17t19 -40q0 -38 -31.5 -56t-88.5 -18h-5q-11 0 -25 3t-26.5 10t-21 19t-8.5 30q0 4 0.5 7.5t1.5 8.5l3 -1q-1 -5 -1.5 -8.5t-0.5 -7.5q0 -18 9 -29t21 -17.5t25.5 -8.5t22.5 -2h9q11 0 23.5 3t23 10.5t17.5 20.5t7 33q0 27 -24 41.5t-55 14.5h-7v5h8
q30 0 46.5 13.5t16.5 35.5q0 28 -17 39t-42 11h-5q-20 -1 -37.5 -8.5t-24.5 -24.5q6 2 9 2q11 0 18 -6.5t7 -15.5t-7 -15.5t-18 -6.5q-10 0 -17.5 6.5t-7.5 15.5q0 23 21.5 40t56.5 17h5q56 0 78.5 -17.5t22.5 -37.5q0 -14 -11 -29t-39 -20z" />
    <glyph glyph-name="fourinferior" unicode="&#x2084;" horiz-adv-x="302" 
d="M201 58q1 -33 13.5 -44t21.5 -11v-3h-134v3q17 0 32.5 10.5t15.5 44.5h-120l120 169l51 1v-141h16q43 0 51 28h4l-13 -57h-58zM150 87v131l-93 -131h93z" />
    <glyph glyph-name="fiveinferior" unicode="&#x2085;" horiz-adv-x="262" 
d="M115 126q22 0 43 -2t37.5 -8t26.5 -17.5t10 -31.5q0 -32 -27.5 -52.5t-89.5 -20.5h-3q-35 0 -58.5 17t-23.5 40q0 9 7.5 15.5t18.5 6.5t18 -6.5t7 -15.5t-7 -15.5t-18 -6.5q-6 0 -11 3q8 -18 28 -26t39 -8h3q29 0 50.5 16t21.5 50q0 28 -21.5 42.5t-51.5 14.5h-62l26 103
h93q29 0 40.5 1t16.5 7h4l-16 -77h-3q5 20 -6 28.5t-41 8.5h-90l-18 -66h57z" />
    <glyph glyph-name="sixinferior" unicode="&#x2086;" horiz-adv-x="273" 
d="M140 132q44 0 73.5 -17.5t29.5 -57.5q0 -16 -9 -29t-23 -21t-32 -12.5t-36 -4.5q-46 0 -79.5 28t-33.5 89q0 62 36.5 90.5t87.5 28.5q42 0 61.5 -17t19.5 -40q0 -11 -9 -18.5t-21 -7.5q-13 0 -22 7.5t-9 18.5t9 18.5t22 7.5q6 0 9 -1q-8 13 -23.5 21t-41.5 8
q-31 1 -45.5 -24t-16.5 -79q24 12 53 12zM142 -7q25 1 37 21t12 42q0 11 -1.5 23t-6.5 23t-15.5 18t-27.5 7q-10 0 -24.5 -3t-28.5 -12v-5q0 -61 12 -87t43 -27z" />
    <glyph glyph-name="seveninferior" unicode="&#x2087;" horiz-adv-x="269" 
d="M238 204q6 -33 -6.5 -56t-30.5 -45.5t-33.5 -48.5t-15.5 -64q0 -14 -10.5 -24.5t-25.5 -10.5t-25.5 10.5t-10.5 24.5q0 40 22 60.5t49.5 36t52 33t29.5 51.5h-143q-22 0 -35.5 -7t-21.5 -30h-3l29 77h4q0 -5 11 -6t41 -1h123z" />
    <glyph glyph-name="eightinferior" unicode="&#x2088;" horiz-adv-x="274" 
d="M193 126q21 -8 36 -21.5t15 -42.5q0 -36 -29.5 -56t-87.5 -20q-40 0 -68.5 20.5t-28.5 53.5q0 29 12.5 44t26.5 22q-18 16 -18 44q0 9 5 19t16 18t29.5 13.5t45.5 5.5q33 0 55 -13t22 -41q0 -17 -9.5 -28t-21.5 -18zM152 222q-23 0 -36.5 -9.5t-13.5 -26.5q0 -15 8 -24
t20.5 -15t28 -10.5t30.5 -9.5q20 11 26 21t6 24q0 16 -16.5 33t-52.5 17zM135 -10q25 -1 44.5 12.5t19.5 39.5q0 21 -14.5 32t-34.5 17.5t-42 13t-37 19.5q-16 -10 -27 -24t-11 -40q0 -29 27.5 -48.5t74.5 -21.5z" />
    <glyph glyph-name="nineinferior" unicode="&#x2089;" horiz-adv-x="273" 
d="M131 227q23 0 43 -7t35.5 -21t24.5 -36.5t9 -53.5q0 -62 -34.5 -90.5t-89.5 -28.5q-38 0 -59.5 17t-21.5 40q0 11 9 19t22 8t21.5 -8t8.5 -19t-8.5 -18t-21.5 -7q-7 0 -10 1q8 -13 24.5 -21t40.5 -9q33 0 47 23t16 73q-12 -6 -26 -9t-28 -3q-45 0 -74 20.5t-29 52.5
q0 40 28.5 58.5t72.5 18.5zM133 81q10 0 25 3t29 13v12q0 61 -12 87.5t-44 27.5q-25 0 -37 -22t-12 -50q0 -7 1 -19.5t5.5 -23.5t15 -19.5t29.5 -8.5z" />
    <glyph glyph-name="franc" unicode="&#x20a3;" horiz-adv-x="596" 
d="M566 496h-8q-6 39 -19.5 74.5t-39 62.5t-65.5 43t-99 16h-110v-318h61q18 0 40.5 7t42.5 20.5t34 33.5t14 46h8v-222h-8q0 26 -10.5 46t-28.5 33.5t-41.5 20.5t-49.5 7h-62l-1 -173v-10h106v-14h-105q3 -52 17 -83.5t34 -49t44 -23.5t47 -6v-7h-337v7q10 0 23.5 5.5
t26 19t21.5 37.5t9 61v39h-54v14h54l1 389q0 36 -8.5 59t-20.5 37t-25.5 19.5t-23.5 5.5v7h533v-204z" />
    <glyph glyph-name="lira" unicode="&#x20a4;" horiz-adv-x="616" 
d="M522 -30h-7q-3 9 -9 14.5t-18.5 9t-33.5 5t-53 1.5h-360l1 15q57 36 83 69t31 66t-8 66t-34 69q-16 26 -30 50.5t-24.5 50t-17 53.5t-6.5 61q0 27 10.5 63.5t40.5 69.5t83.5 56t138.5 23q70 0 117.5 -10.5t77 -28.5t42.5 -41t13 -48q0 -27 -22.5 -46.5t-53.5 -19.5
q-32 0 -54 19.5t-22 46.5q0 26 22 45t54 19q-18 23 -59 37.5t-92 14.5q-64 0 -103 -19.5t-60.5 -47t-29 -56.5t-7.5 -47q0 -27 8.5 -58.5t20.5 -61.5h142q18 0 39.5 1t40 7t29.5 19.5t7 39.5h8l24 -137h-8q-4 26 -16 39t-30.5 18t-41.5 5h-49h-142q12 -29 23 -53.5t15 -38.5
l3 -12h71q18 0 39.5 1t40 7t29.5 19.5t7 39.5h8l24 -137h-8q-4 26 -16 39t-30.5 18t-41.5 5h-49h-72q11 -61 -10.5 -113.5t-54.5 -91.5l287 3q33 0 57 2.5t41.5 11t30 25.5t21.5 47h7z" />
    <glyph glyph-name="peseta" unicode="&#x20a7;" horiz-adv-x="1562" 
d="M1001 34q-17 -20 -49 -31t-82 -11q-34 0 -65 11t-55 32.5t-38 53.5t-14 74v330h-49v7h49v172l134 66v-7q-7 -4 -11 -10t-6 -17.5t-2.5 -31t-0.5 -50.5v-122h115v-7h-115v-342q0 -62 27 -100t79 -38q17 0 38.5 7.5t35.5 21.5zM225 128q0 -35 11 -58.5t27.5 -37.5
t35.5 -19.5t35 -5.5v-7h-304v7q10 0 23.5 5.5t26 19t21.5 37.5t9 61l1 442q0 37 -8.5 60.5t-20.5 37t-25.5 18.5t-23.5 5v7h248q68 0 124.5 -9.5t97.5 -32.5t63.5 -61.5t22.5 -96.5q0 -52 -24 -88t-66 -58.5t-98 -33t-120 -10.5h-55zM281 318q21 0 52.5 10t61.5 31.5
t51 56.5t21 84q0 56 -21 93t-51 59t-61.5 31t-52.5 9h-56v-374h56zM1532 153q0 -40 -21.5 -70t-59 -50t-88 -30t-108.5 -9q-39 0 -64.5 2.5t-43 6l-30 6t-24.5 2.5q-26 0 -26 -15h-7v184h7v-13q0 -46 18.5 -77t48 -50.5t66 -28t72.5 -8.5q23 0 48.5 5t48 17t37 33t14.5 52
q0 34 -26.5 53t-66 32t-86 24.5t-86 29.5t-66 47t-26.5 77q0 27 13 52t42 45t76 32t115 12q35 0 59 -2.5t41.5 -6t31 -6.5t25.5 -3q26 0 26 15h7v-176h-7v13q0 32 -13 60t-37.5 50t-60.5 34.5t-81 12.5q-24 0 -46 -6t-39.5 -17.5t-28 -28.5t-10.5 -39q0 -38 26.5 -57.5
t66 -31t85.5 -19.5t85.5 -24.5t66 -46t26.5 -82.5z" />
    <glyph glyph-name="Euro" unicode="&#x20ac;" horiz-adv-x="640" 
d="M595 251q5 -13 8 -31.5t3 -47.5q0 -36 -13 -69t-38 -58t-61 -40t-82 -15q-68 0 -124 20t-98 57.5t-69 91t-36 119.5h-55l2 8h52q-2 15 -3 31t-1 33q0 32 3 60h-48l2 8h47q9 67 36 121t68.5 92t97 58.5t122.5 19.5q60 0 99 -12t61.5 -30.5t31 -40t8.5 -39.5q0 -32 -20 -50
t-47 -18q-28 0 -47.5 17t-19.5 41q0 23 19.5 40t47.5 17q12 0 25 -5q0 13 -11.5 26t-32.5 23.5t-50 17t-64 6.5q-33 0 -67 -20t-62.5 -56.5t-49 -89t-25.5 -118.5h106q18 0 42 1t46.5 8t40 21t22.5 40h8l-32 -146h-8q5 23 -3.5 36t-25.5 20.5t-41 9.5t-50 2h-105
q-1 -14 -1.5 -29t-0.5 -31q0 -17 0.5 -33t1.5 -31q32 0 63.5 1.5t57.5 8t44 21t23 39.5h8l-32 -146h-8q5 22 -3.5 35.5t-29 20.5t-51.5 9.5t-71 2.5q5 -65 25.5 -117t49.5 -88.5t63.5 -56t68.5 -19.5q41 0 75.5 14.5t59.5 38.5t39 56t14 66q0 24 -3.5 42.5t-8.5 32.5z" />
    <glyph glyph-name="trademark" unicode="&#x2122;" 
d="M562 782q-7 0 -17.5 -10t-10.5 -32v-155q0 -23 10 -33.5t17 -10.5v-2h-97v2q8 0 18 10.5t10 33.5l1 184l-77 -214h-13l-73 184q-3 8 -10 17v-171q0 -23 11.5 -33.5t25.5 -10.5v-2h-80v2q15 0 27 10.5t12 33.5v176q-9 9 -21 15t-26 6v2h90l70 -179l64 179h69v-2zM244 782
v-71h-3q-4 27 -23.5 47.5t-60.5 20.5v-196q0 -23 9.5 -33.5t17.5 -10.5v-2h-95v2q7 0 17.5 10.5t10.5 33.5v196q-42 0 -61 -20.5t-24 -47.5h-2v71h214z" />
    <glyph glyph-name="uni2150" unicode="&#x2150;" horiz-adv-x="1040" 
d="M30 300v7q36 0 58 5.5t33.5 19.5t15.5 37.5t4 60.5v198q0 68 -27.5 83t-81.5 -8v7l224 110v-389q0 -36 3.5 -60t14.5 -38t32 -20t56 -6v-7h-332zM412 0h-66l219 800h66zM1007 500q9 -48 -1.5 -86t-31.5 -71t-48 -65t-50.5 -68t-40 -79t-16.5 -98q0 -32 -23.5 -55
t-55.5 -23q-33 0 -56.5 23t-23.5 55q0 58 23 96t58 65t76.5 48.5t79 46t65.5 57.5t35 83h-314q-49 0 -79 -16t-46 -67h-7l64 170h7q0 -12 24.5 -14t89.5 -2h271z" />
    <glyph glyph-name="uni2151" unicode="&#x2151;" horiz-adv-x="1048" 
d="M30 300v7q36 0 58 5.5t33.5 19.5t15.5 37.5t4 60.5v198q0 68 -27.5 83t-81.5 -8v7l224 110v-389q0 -36 3.5 -60t14.5 -38t32 -20t56 -6v-7h-332zM412 0h-66l219 800h66zM772 510q50 0 94.5 -15t78.5 -46.5t53.5 -80t19.5 -116.5q0 -67 -20 -116.5t-56 -82t-86 -48
t-110 -15.5q-42 0 -75 10t-56 27.5t-35 40t-12 47.5q0 24 20 41.5t47 17.5q28 0 47.5 -17.5t19.5 -41.5q0 -23 -19.5 -39.5t-47.5 -16.5q-5 0 -9 0.5t-9 1.5q18 -28 54 -45.5t87 -18.5q72 -1 102 50t34 162q-26 -15 -56.5 -21.5t-60.5 -6.5q-50 0 -91.5 11.5t-71.5 33
t-46.5 51t-16.5 65.5q0 44 16.5 75.5t46 52t70 30.5t88.5 10zM777 191q22 0 55.5 7t62.5 27v27q0 66 -6 113.5t-20.5 78t-37.5 45t-58 14.5q-27 0 -47.5 -13t-34 -35t-20.5 -50.5t-7 -59.5q0 -16 1.5 -42t12 -51t33.5 -43t66 -18z" />
    <glyph glyph-name="uni2152" unicode="&#x2152;" horiz-adv-x="1457" 
d="M256 431q0 -36 3.5 -60t14.5 -38t32 -20t56 -6v-7h-332v7q36 0 58 5.5t33.5 19.5t15.5 37.5t4 60.5v198q0 68 -27.5 83t-81.5 -8v7l224 110v-389zM412 0h-66l219 800h66zM777 131q0 -36 3.5 -60t14.5 -38t32 -20t56 -6v-7h-332v7q36 0 58 5.5t33.5 19.5t15.5 37.5t4 60.5
v198q0 68 -27.5 83t-81.5 -8v7l224 110v-389zM1183 -10q-42 0 -84.5 14.5t-77.5 46t-57 80t-22 116.5t22 117t57 81.5t77.5 48t84.5 15.5t85 -15.5t78.5 -48t58 -81.5t22.5 -117t-22.5 -116.5t-58 -80t-78.5 -46t-85 -14.5zM1183 -3q26 0 49.5 14t42.5 44t30 77.5t11 114.5
q0 66 -11 114.5t-30 79.5t-42.5 46t-49.5 15q-25 0 -48.5 -15t-41.5 -46t-28.5 -79.5t-10.5 -114.5q0 -67 10.5 -114.5t28.5 -77.5t41.5 -44t48.5 -14z" />
    <glyph glyph-name="uni2153" unicode="&#x2153;" horiz-adv-x="1033" 
d="M30 300v7q36 0 58 5.5t33.5 19.5t15.5 37.5t4 60.5v198q0 68 -27.5 83t-81.5 -8v7l224 110v-389q0 -36 3.5 -60t14.5 -38t32 -20t56 -6v-7h-332zM412 0h-66l219 800h66zM854 279q33 -1 60 -10.5t47 -26t31 -39t11 -49.5q0 -82 -69 -122t-194 -40h-11q-24 0 -55 6.5
t-58.5 22t-46.5 42t-18 66.5q0 8 1 16.5t3 17.5l7 -2q-4 -16 -4 -35q0 -39 19 -64t46 -38.5t56.5 -18.5t49.5 -5h19q24 0 51.5 7t51 23.5t39 45t15.5 71.5q0 30 -14.5 53t-38.5 39t-55.5 24.5t-65.5 8.5h-15v10h17q66 0 101.5 29.5t35.5 78.5q0 30 -10 51t-27.5 34t-41 19
t-50.5 6h-10q-44 -2 -83.5 -19.5t-53.5 -53.5q11 3 21 3q23 0 39 -13.5t16 -33.5t-16 -34.5t-39 -14.5t-39.5 14.5t-16.5 34.5q0 25 12.5 47.5t35 40t54.5 27.5t70 10h12q61 0 103 -10.5t68 -28t37.5 -39t11.5 -42.5q0 -15 -5.5 -32t-18 -32.5t-33.5 -27.5t-52 -17z" />
    <glyph glyph-name="uni2154" unicode="&#x2154;" horiz-adv-x="1171" 
d="M480 300h-450q0 59 21 101.5t54.5 72t75 49.5t82.5 34q56 20 93.5 50t37.5 78q0 29 -11 51t-28.5 37t-39.5 22.5t-45 7.5q-54 -1 -96 -16.5t-65 -41.5l10 1q28 0 47.5 -17t19.5 -40q0 -24 -19.5 -41t-47.5 -17q-27 0 -47 17t-20 41q0 25 12.5 47.5t39 39t67.5 26.5t99 10
q62 0 105 -13t71 -36.5t40.5 -54.5t12.5 -67q0 -33 -12 -59t-32.5 -45.5t-48.5 -33t-61 -19.5q-31 -6 -74 -12t-86 -18.5t-80 -34t-55 -58.5l303 1q31 0 53.5 2t39 11t27.5 26.5t19 48.5h8zM550 0h-66l219 800h66zM992 279q33 -1 60 -10.5t47 -26t31 -39t11 -49.5
q0 -82 -69 -122t-194 -40h-11q-24 0 -55 6.5t-58.5 22t-46.5 42t-18 66.5q0 8 1 16.5t3 17.5l7 -2q-4 -16 -4 -35q0 -39 19 -64t46 -38.5t56.5 -18.5t49.5 -5h19q24 0 51.5 7t51 23.5t39 45t15.5 71.5q0 30 -14.5 53t-38.5 39t-55.5 24.5t-65.5 8.5h-15v10h17
q66 0 101.5 29.5t35.5 78.5q0 30 -10 51t-27.5 34t-41 19t-50.5 6h-10q-44 -2 -83.5 -19.5t-53.5 -53.5q11 3 21 3q23 0 39 -13.5t16 -33.5t-16 -34.5t-39 -14.5t-39.5 14.5t-16.5 34.5q0 25 12.5 47.5t35 40t54.5 27.5t70 10h12q61 0 103 -10.5t68 -28t37.5 -39t11.5 -42.5
q0 -15 -5.5 -32t-18 -32.5t-33.5 -27.5t-52 -17z" />
    <glyph glyph-name="oneeighth" unicode="&#x215b;" horiz-adv-x="1053" 
d="M30 300v7q36 0 58 5.5t33.5 19.5t15.5 37.5t4 60.5v198q0 68 -27.5 83t-81.5 -8v7l224 110v-389q0 -36 3.5 -60t14.5 -38t32 -20t56 -6v-7h-332zM412 0h-66l219 800h66zM911 294q23 -9 43.5 -20t35.5 -27.5t24 -39.5t9 -54q0 -80 -65 -123.5t-193 -43.5q-43 0 -82 11.5
t-68.5 33t-46.5 51.5t-17 67q0 32 7.5 56t20 41t28 28t30.5 18q-18 17 -29 40.5t-11 57.5q0 20 11 42t36 40t65.5 30t99.5 12q36 0 67.5 -7t54 -22t35.5 -37.5t13 -52.5q0 -36 -20.5 -61t-47.5 -40zM819 505q-49 0 -79.5 -21.5t-30.5 -58.5q0 -33 18 -53t46 -32.5
t62.5 -21.5t67.5 -21q42 25 55.5 47t13.5 51q0 17 -9 36t-27.5 35.5t-47.5 27.5t-69 11zM782 -5q28 -1 53.5 6t45 21.5t31 36.5t11.5 50q0 31 -14.5 51.5t-38.5 34t-54 23t-61.5 19t-61 21t-51.5 30.5q-35 -19 -59.5 -50.5t-24.5 -89.5q0 -31 16 -58.5t45 -48t70.5 -33
t92.5 -13.5z" />
    <glyph glyph-name="threeeighths" unicode="&#x215c;" horiz-adv-x="1173" 
d="M333 579q33 -1 60 -10.5t47 -26t31 -39t11 -49.5q0 -82 -69 -122t-194 -40h-11q-24 0 -55 6.5t-58.5 22t-46.5 42t-18 66.5q0 8 1 16.5t3 17.5l7 -2q-4 -16 -4 -35q0 -39 19 -64t46 -38.5t56.5 -18.5t49.5 -5h19q24 0 51.5 7t51 23.5t39 45t15.5 71.5q0 30 -14.5 53
t-38.5 39t-55.5 24.5t-65.5 8.5h-15v10h17q66 0 101.5 29.5t35.5 78.5q0 30 -10 51t-27.5 34t-41 19t-50.5 6h-10q-44 -2 -83.5 -19.5t-53.5 -53.5q11 3 21 3q23 0 39 -13.5t16 -33.5t-16 -34.5t-39 -14.5t-39.5 14.5t-16.5 34.5q0 25 12.5 47.5t35 40t54.5 27.5t70 10h12
q61 0 103 -10.5t68 -28t37.5 -39t11.5 -42.5q0 -15 -5.5 -32t-18 -32.5t-33.5 -27.5t-52 -17zM532 0h-66l219 800h66zM1031 294q23 -9 43.5 -20t35.5 -27.5t24 -39.5t9 -54q0 -80 -65 -123.5t-193 -43.5q-43 0 -82 11.5t-68.5 33t-46.5 51.5t-17 67q0 32 7.5 56t20 41t28 28
t30.5 18q-18 17 -29 40.5t-11 57.5q0 20 11 42t36 40t65.5 30t99.5 12q36 0 67.5 -7t54 -22t35.5 -37.5t13 -52.5q0 -36 -20.5 -61t-47.5 -40zM939 505q-49 0 -79.5 -21.5t-30.5 -58.5q0 -33 18 -53t46 -32.5t62.5 -21.5t67.5 -21q42 25 55.5 47t13.5 51q0 17 -9 36
t-27.5 35.5t-47.5 27.5t-69 11zM902 -5q28 -1 53.5 6t45 21.5t31 36.5t11.5 50q0 31 -14.5 51.5t-38.5 34t-54 23t-61.5 19t-61 21t-51.5 30.5q-35 -19 -59.5 -50.5t-24.5 -89.5q0 -31 16 -58.5t45 -48t70.5 -33t92.5 -13.5z" />
    <glyph glyph-name="fiveeighths" unicode="&#x215d;" horiz-adv-x="1163" 
d="M215 584q49 0 95.5 -4.5t82.5 -18t57.5 -39.5t21.5 -69q0 -34 -14.5 -63t-46 -50.5t-80 -33.5t-116.5 -12h-6q-38 0 -71 10t-57 27.5t-37.5 40t-13.5 47.5q0 20 16.5 34t39.5 14t39 -14t16 -34t-16 -34t-39 -14q-12 0 -25 5q9 -19 25.5 -33t36.5 -23t42.5 -13.5
t43.5 -4.5h6q32 0 60.5 9t50.5 27t34.5 45t12.5 63q0 30 -12.5 54t-34 40.5t-51 25t-62.5 8.5h-136l57 226h204q32 0 54 0.5t36.5 2t23 5t13.5 9.5h7l-34 -171h-7q9 43 -14.5 62.5t-89.5 19.5h-198l-39 -144h125zM522 0h-66l219 800h66zM1021 294q23 -9 43.5 -20t35.5 -27.5
t24 -39.5t9 -54q0 -80 -65 -123.5t-193 -43.5q-43 0 -82 11.5t-68.5 33t-46.5 51.5t-17 67q0 32 7.5 56t20 41t28 28t30.5 18q-18 17 -29 40.5t-11 57.5q0 20 11 42t36 40t65.5 30t99.5 12q36 0 67.5 -7t54 -22t35.5 -37.5t13 -52.5q0 -36 -20.5 -61t-47.5 -40zM929 505
q-49 0 -79.5 -21.5t-30.5 -58.5q0 -33 18 -53t46 -32.5t62.5 -21.5t67.5 -21q42 25 55.5 47t13.5 51q0 17 -9 36t-27.5 35.5t-47.5 27.5t-69 11zM892 -5q28 -1 53.5 6t45 21.5t31 36.5t11.5 50q0 31 -14.5 51.5t-38.5 34t-54 23t-61.5 19t-61 21t-51.5 30.5
q-35 -19 -59.5 -50.5t-24.5 -89.5q0 -31 16 -58.5t45 -48t70.5 -33t92.5 -13.5z" />
    <glyph glyph-name="seveneighths" unicode="&#x215e;" horiz-adv-x="1095" 
d="M486 800q9 -48 -1.5 -86t-31.5 -71t-48 -65t-50.5 -68t-40 -79t-16.5 -98q0 -32 -23.5 -54.5t-55.5 -22.5q-33 0 -56.5 22.5t-23.5 54.5q0 58 23 96t58 65t76.5 48.5t79 46t65.5 57.5t35 83h-314q-49 0 -79 -16t-46 -67h-7l64 170h7q0 -12 24.5 -14t89.5 -2h271zM454 0
h-66l219 800h66zM953 294q23 -9 43.5 -20t35.5 -27.5t24 -39.5t9 -54q0 -80 -65 -123.5t-193 -43.5q-43 0 -82 11.5t-68.5 33t-46.5 51.5t-17 67q0 32 7.5 56t20 41t28 28t30.5 18q-18 17 -29 40.5t-11 57.5q0 20 11 42t35.5 40t65 30t99.5 12q36 0 67.5 -7t54.5 -22
t36 -37.5t13 -52.5q0 -36 -20.5 -61t-47.5 -40zM860 505q-49 0 -79 -21.5t-30 -58.5q0 -33 18 -53t46 -32.5t62.5 -21.5t67.5 -21q42 25 55.5 47t13.5 51q0 17 -9 36t-28 35.5t-48 27.5t-69 11zM824 -5q28 -1 53.5 6t45 21.5t31 36.5t11.5 50q0 31 -14.5 51.5t-38.5 34
t-54 23t-61.5 19t-61 21t-51.5 30.5q-35 -19 -59.5 -50.5t-24.5 -89.5q0 -31 16 -58.5t45 -48t70.5 -33t92.5 -13.5z" />
    <glyph glyph-name="partialdiff" unicode="&#x2202;" 
d="M401 711q59 0 98.5 -24.5t54.5 -81.5t1 -151t-63 -234q-15 -43 -48 -85.5t-75 -75.5t-89 -53.5t-92 -20.5q-47 0 -81 20.5t-53.5 53.5t-22.5 75.5t12 85.5q24 67 61 122t81.5 94t93.5 60.5t96 21.5q42 0 73 -18.5t48 -52.5q9 59 4.5 99t-20.5 64t-41 34t-58 10
q-73 0 -139 -40.5t-132 -113.5l66 104q15 21 40 40.5t55 34t63.5 23.5t66.5 9zM208 42q31 0 66 16t67 41.5t57.5 57t36.5 63.5q20 56 21.5 100.5t-10.5 75.5t-36 48t-55 17q-33 0 -70 -17t-71.5 -48t-64 -75.5t-49.5 -100.5q-11 -32 -8 -63.5t17.5 -57t40 -41.5t58.5 -16z
" />
    <glyph glyph-name="emptyset" unicode="&#x2205;" horiz-adv-x="593" 
d="M496 427q30 -35 47.5 -80t17.5 -96q0 -55 -21 -103.5t-57 -84.5t-84 -57t-103 -21q-45 0 -85 13.5t-73 38.5l-34 -37h-73l67 73q-32 36 -50 81.5t-18 96.5q0 56 21 104.5t57 84.5t84.5 57t103.5 21q45 0 85 -14t73 -39l32 35h77zM87 251q0 -39 13 -73.5t36 -61.5l280 307
q-26 18 -56 28t-64 10q-43 0 -81.5 -16.5t-66.5 -45t-44.5 -66.5t-16.5 -82zM504 251q0 38 -12.5 72t-34.5 61l-280 -305q25 -17 55.5 -27t63.5 -10q43 0 81 16.5t66 44.5t44.5 66.5t16.5 81.5z" />
    <glyph glyph-name="product" unicode="&#x220f;" horiz-adv-x="480" 
d="M404 643v-643h-57v643h-214v-643h-57v643h-46v57h420v-57h-46z" />
    <glyph glyph-name="summation" unicode="&#x2211;" horiz-adv-x="313" 
d="M95 643l132 -290l-132 -296h188v-57h-253v57l132 296l-132 290v57h253v-57h-188z" />
    <glyph glyph-name="minus" unicode="&#x2212;" horiz-adv-x="353" 
d="M323 214h-293v57h293v-57z" />
    <glyph glyph-name="radical" unicode="&#x221a;" horiz-adv-x="404" 
d="M245 0h-43l-94 163h-78v57h102l83 -148l116 628h43z" />
    <glyph glyph-name="infinity" unicode="&#x221e;" horiz-adv-x="534" 
d="M392 354q21 0 41 -6.5t36 -19.5t25.5 -34t9.5 -51t-9.5 -51t-25.5 -34t-36 -19.5t-41 -6.5q-37 0 -68 23.5t-57 53.5q-26 -30 -57 -53.5t-68 -23.5q-21 0 -41 6.5t-36 19.5t-25.5 34t-9.5 51t9.5 51t25.5 34t36 19.5t41 6.5q37 0 68 -23.5t57 -53.5q26 30 57 53.5
t68 23.5zM156 185q20 0 40.5 17t41.5 41q-21 24 -41.5 41t-40.5 17q-24 0 -46.5 -14.5t-22.5 -43.5t22.5 -43.5t46.5 -14.5zM378 185q24 0 46.5 14.5t22.5 43.5t-22.5 43.5t-46.5 14.5q-20 0 -40.5 -17t-41.5 -41q21 -24 41.5 -41t40.5 -17z" />
    <glyph glyph-name="integral" unicode="&#x222b;" horiz-adv-x="297" 
d="M207 678q-17 0 -30.5 8t-21.5 22q-13 -31 -15 -79t3 -103t15 -111.5t20 -104.5q11 -53 24.5 -111t22.5 -114.5t10.5 -108t-12 -90.5t-45.5 -62.5t-88 -23.5q-25 0 -42.5 17.5t-17.5 43.5t17.5 43.5t42.5 17.5q20 0 36.5 -12.5t21.5 -32.5q23 28 26 80t-5 113.5t-22 126
t-25 116.5q-18 85 -30.5 171.5t-8 156.5t32.5 114.5t91 44.5q25 0 42.5 -17.5t17.5 -43.5t-17.5 -43.5t-42.5 -17.5z" />
    <glyph glyph-name="approxequal" unicode="&#x2248;" horiz-adv-x="391" 
d="M30 277q0 47 24.5 64t55.5 18q24 0 46.5 -6t42.5 -13.5t37.5 -13.5t32.5 -6q11 0 23 4.5t12 15.5v17h57v-22q0 -22 -6.5 -36.5t-16.5 -23.5t-23 -13t-26 -4q-22 0 -44 7.5t-43.5 16.5t-41 16.5t-36.5 7.5q-13 0 -25 -6.5t-12 -23.5v-17h-57v18zM30 164q0 47 24.5 64
t55.5 18q24 0 46.5 -6t42.5 -13.5t37.5 -13.5t32.5 -6q11 0 23 4.5t12 15.5v17h57v-22q0 -22 -6.5 -36.5t-16.5 -23.5t-23 -13t-26 -4q-22 0 -44 7.5t-43.5 16.5t-41 16.5t-36.5 7.5q-13 0 -25 -6.5t-12 -23.5v-17h-57v18z" />
    <glyph glyph-name="notequal" unicode="&#x2260;" horiz-adv-x="353" 
d="M171 200h152v-57h-182l-33 -63h-52l33 63h-59v57h89l43 83h-132v57h162l37 70h52l-37 -70h79v-57h-109z" />
    <glyph glyph-name="lessequal" unicode="&#x2264;" horiz-adv-x="353" 
d="M112 243l211 -73v-57l-293 101v57l293 102v-57zM323 92v-57h-293v57h293z" />
    <glyph glyph-name="greaterequal" unicode="&#x2265;" horiz-adv-x="353" 
d="M323 214l-293 -101v57l211 73l-211 73v57l293 -102v-57zM323 92v-57h-293v57h293z" />
    <glyph glyph-name="lozenge" unicode="&#x25ca;" horiz-adv-x="477" 
d="M30 214v57l209 93l208 -93v-57l-208 -93zM94 243l144 -65l145 65l-144 64z" />
    <glyph glyph-name="a.sc" horiz-adv-x="675" 
d="M499 143q33 -72 72 -104t74 -32v-7h-311v7q16 0 30.5 9t23.5 25t10.5 36.5t-8.5 42.5l-10 23h-198l-5 -13q-12 -33 -11 -56t10.5 -38t24.5 -22t30 -7v-7h-201v7q34 0 73.5 31t65.5 100l141 362h24zM274 382l-89 -231h191z" />
    <glyph glyph-name="aacute.sc" horiz-adv-x="675" 
d="M410 784q-22 -33 -53 -71t-58 -62h-42q6 25 26.5 62.5t42.5 70.5l12 16h82zM499 143q33 -72 72 -104t74 -32v-7h-311v7q16 0 30.5 9t23.5 25t10.5 36.5t-8.5 42.5l-10 23h-198l-5 -13q-12 -33 -11 -56t10.5 -38t24.5 -22t30 -7v-7h-201v7q34 0 73.5 31t65.5 100l141 362
h24zM274 382l-89 -231h191z" />
    <glyph glyph-name="abreve.sc" horiz-adv-x="675" 
d="M339 700q-23 0 -43 8.5t-35 23t-23.5 34t-8.5 41.5v2h47v-2q0 -26 18 -42.5t45 -16.5q26 0 44 16.5t18 42.5v2h46v-2q0 -22 -8.5 -41.5t-23 -34t-34 -23t-42.5 -8.5zM499 143q33 -72 72 -104t74 -32v-7h-311v7q16 0 30.5 9t23.5 25t10.5 36.5t-8.5 42.5l-10 23h-198
l-5 -13q-12 -33 -11 -56t10.5 -38t24.5 -22t30 -7v-7h-201v7q34 0 73.5 31t65.5 100l141 362h24zM274 382l-89 -231h191z" />
    <glyph glyph-name="acircumflex.sc" horiz-adv-x="675" 
d="M337 784q-22 -33 -53 -71t-58 -62h-42q6 25 26.5 62.5t42.5 70.5l12 16h147l11 -16q23 -33 43 -70.5t26 -62.5h-42q-27 24 -57.5 62t-52.5 71l-2 2zM499 143q33 -72 72 -104t74 -32v-7h-311v7q16 0 30.5 9t23.5 25t10.5 36.5t-8.5 42.5l-10 23h-198l-5 -13
q-12 -33 -11 -56t10.5 -38t24.5 -22t30 -7v-7h-201v7q34 0 73.5 31t65.5 100l141 362h24zM274 382l-89 -231h191z" />
    <glyph glyph-name="adieresis.sc" horiz-adv-x="675" 
d="M241 700v64h62v-64h-62zM372 700v64h62v-64h-62zM499 143q33 -72 72 -104t74 -32v-7h-311v7q16 0 30.5 9t23.5 25t10.5 36.5t-8.5 42.5l-10 23h-198l-5 -13q-12 -33 -11 -56t10.5 -38t24.5 -22t30 -7v-7h-201v7q34 0 73.5 31t65.5 100l141 362h24zM274 382l-89 -231h191z
" />
    <glyph glyph-name="ae.sc" horiz-adv-x="743" 
d="M264 0v7q10 0 23.5 7t26 21.5t21.5 38t9 56.5v13h-162l-5 -13q-12 -33 -11 -56t10.5 -38t24.5 -22t30 -7v-7h-201v7q34 0 73.5 31t65.5 100l141 362h374v-137h-8q-11 66 -60 97.5t-119 31.5h-37l-1 -223h5q18 0 40.5 3.5t42.5 13t34 26.5t14 44h8v-182h-8q0 26 -13.5 43
t-34 27t-43.5 13.5t-41 3.5h-4l1 -253h41q89 0 141 31.5t63 115.5h8v-155h-449zM319 492l-134 -341h159l1 341h-26z" />
    <glyph glyph-name="agrave.sc" horiz-adv-x="675" 
d="M378 651q-27 24 -57.5 62t-52.5 71l-11 16h83l11 -16q23 -33 43 -70.5t26 -62.5h-42zM499 143q33 -72 72 -104t74 -32v-7h-311v7q16 0 30.5 9t23.5 25t10.5 36.5t-8.5 42.5l-10 23h-198l-5 -13q-12 -33 -11 -56t10.5 -38t24.5 -22t30 -7v-7h-201v7q34 0 73.5 31t65.5 100
l141 362h24zM274 382l-89 -231h191z" />
    <glyph glyph-name="amacron.sc" horiz-adv-x="675" 
d="M250 700v64h176v-64h-176zM499 143q33 -72 72 -104t74 -32v-7h-311v7q16 0 30.5 9t23.5 25t10.5 36.5t-8.5 42.5l-10 23h-198l-5 -13q-12 -33 -11 -56t10.5 -38t24.5 -22t30 -7v-7h-201v7q34 0 73.5 31t65.5 100l141 362h24zM274 382l-89 -231h191z" />
    <glyph glyph-name="aogonek.sc" horiz-adv-x="675" 
d="M500 0l1 -2q9 -36 -5.5 -53t-36 -26.5t-41 -18t-19.5 -29.5q0 -17 6.5 -27t15 -16t16.5 -8t10 -2h11q29 0 44 5.5t20 14.5q-6 -3 -13 -3q-12 0 -20.5 7t-8.5 17q0 11 8.5 18t20.5 7q11 0 20 -8t9 -24q0 -18 -18 -35t-62 -17h-3q-53 0 -84 18t-31 56q0 19 12 30t29.5 17.5
t37 11t35.5 11.5t24.5 19t3.5 33l-1 4h-147v7q16 0 30.5 9t23.5 25t10.5 36.5t-8.5 42.5l-10 23h-198l-5 -13q-12 -33 -11 -56t10.5 -38t24.5 -22t30 -7v-7h-201v7q34 0 73.5 31t65.5 100l141 362h24l165 -357q33 -72 72 -104t74 -32v-7h-145zM274 382l-89 -231h191z" />
    <glyph glyph-name="aring.sc" horiz-adv-x="675" 
d="M338 651q-35 0 -58.5 23.5t-23.5 56.5t23.5 56.5t58.5 23.5q34 0 57.5 -23.5t23.5 -56.5t-23.5 -56.5t-57.5 -23.5zM338 768q-17 0 -28 -10.5t-11 -26.5t11 -26.5t28 -10.5q16 0 27 10.5t11 26.5t-11 26.5t-27 10.5zM499 143q33 -72 72 -104t74 -32v-7h-311v7
q16 0 30.5 9t23.5 25t10.5 36.5t-8.5 42.5l-10 23h-198l-5 -13q-12 -33 -11 -56t10.5 -38t24.5 -22t30 -7v-7h-201v7q34 0 73.5 31t65.5 100l141 362h24zM274 382l-89 -231h191z" />
    <glyph glyph-name="atilde.sc" horiz-adv-x="675" 
d="M193 702v18q0 47 21.5 64t48.5 18q21 0 40 -6t36 -13.5t32 -13.5t28 -6q9 0 19.5 4.5t10.5 15.5v17h54v-22q0 -44 -20 -60t-43 -17q-19 0 -38 7.5t-36.5 16.5t-34 16.5t-31.5 7.5q-11 0 -21.5 -6.5t-10.5 -23.5v-17h-55zM499 143q33 -72 72 -104t74 -32v-7h-311v7
q16 0 30.5 9t23.5 25t10.5 36.5t-8.5 42.5l-10 23h-198l-5 -13q-12 -33 -11 -56t10.5 -38t24.5 -22t30 -7v-7h-201v7q34 0 73.5 31t65.5 100l141 362h24zM274 382l-89 -231h191z" />
    <glyph glyph-name="b.sc" horiz-adv-x="582" 
d="M382 277q33 0 63.5 -9t54 -25.5t38 -39t14.5 -49.5q0 -82 -76.5 -118t-222.5 -36h-223v7q10 0 23.5 7t26 21.5t21.5 38t9 56.5l1 242q0 31 -8.5 54t-20.5 38t-25.5 22t-23.5 7v7h254q57 0 96 -9.5t63 -25t34.5 -36t10.5 -41.5q0 -15 -5.5 -32t-18 -32.5t-33.5 -28
t-52 -18.5zM261 282q65 0 100.5 29.5t35.5 78.5q0 52 -39.5 77t-102.5 25h-33v-210h39zM253 8q33 0 65.5 8t58 25.5t41.5 43.5t16 62q0 30 -14.5 53t-39 39t-56 24.5t-65.5 8.5h-37l-2 -264h33z" />
    <glyph glyph-name="c.sc" horiz-adv-x="529" 
d="M499 145q2 -31 -14.5 -59t-43.5 -49.5t-61 -34t-69 -12.5q-55 0 -106 14.5t-90 46t-62 80t-23 116.5q0 67 23 116.5t60.5 81.5t85 48t97.5 16q59 -1 95.5 -9t61.5 -9q26 0 26 15h7v-152h-7v13q0 29 -14.5 53.5t-39.5 42.5t-58 28.5t-70 10.5q-78 1 -111 -60t-33 -195
q0 -133 39 -191.5t119 -58.5q32 0 64 11.5t58.5 31t43 46t16.5 56.5q0 37 -18 80h8q16 -41 16 -77z" />
    <glyph glyph-name="cacute.sc" horiz-adv-x="529" 
d="M337 784q-22 -33 -53 -71t-58 -62h-42q6 25 26.5 62.5t42.5 70.5l12 16h82zM499 145q2 -31 -14.5 -59t-43.5 -49.5t-61 -34t-69 -12.5q-55 0 -106 14.5t-90 46t-62 80t-23 116.5q0 67 23 116.5t60.5 81.5t85 48t97.5 16q59 -1 95.5 -9t61.5 -9q26 0 26 15h7v-152h-7v13
q0 29 -14.5 53.5t-39.5 42.5t-58 28.5t-70 10.5q-78 1 -111 -60t-33 -195q0 -133 39 -191.5t119 -58.5q32 0 64 11.5t58.5 31t43 46t16.5 56.5q0 37 -18 80h8q16 -41 16 -77z" />
    <glyph glyph-name="ccaron.sc" horiz-adv-x="529" 
d="M232 651q-27 24 -57.5 62t-52.5 71l-11 16h83l11 -16q17 -26 33.5 -55t27.5 -53q10 24 26.5 53t33.5 55l12 16h82l-10 -16q-22 -33 -53 -71t-58 -62h-67zM499 145q2 -31 -14.5 -59t-43.5 -49.5t-61 -34t-69 -12.5q-55 0 -106 14.5t-90 46t-62 80t-23 116.5q0 67 23 116.5
t60.5 81.5t85 48t97.5 16q59 -1 95.5 -9t61.5 -9q26 0 26 15h7v-152h-7v13q0 29 -14.5 53.5t-39.5 42.5t-58 28.5t-70 10.5q-78 1 -111 -60t-33 -195q0 -133 39 -191.5t119 -58.5q32 0 64 11.5t58.5 31t43 46t16.5 56.5q0 37 -18 80h8q16 -41 16 -77z" />
    <glyph glyph-name="ccedilla.sc" horiz-adv-x="529" 
d="M311 -10q-23 0 -45 2.5t-43 7.5l-14 -54h37q22 0 43.5 -3t38 -11t26.5 -22t10 -36q0 -38 -31 -56t-84 -18h-3q-44 0 -62 18t-18 41q0 11 9 18t20 7q12 0 20.5 -7t8.5 -18q0 -10 -8.5 -17t-20.5 -7q-7 0 -13 3q5 -9 20 -14.5t44 -5.5h11q2 0 10 2t16.5 8t15 16t6.5 27
q0 13 -6.5 23.5t-16 18t-21 11t-21.5 3.5h-56l21 78q-37 11 -69.5 31t-55.5 50t-36.5 70t-13.5 91q0 67 23 116.5t60.5 81.5t85 48t97.5 16q59 -1 95.5 -9t61.5 -9q26 0 26 15h7v-152h-7v13q0 29 -14.5 53.5t-39.5 42.5t-58 28.5t-70 10.5q-78 1 -111 -60t-33 -195
q0 -133 39 -191.5t119 -58.5q32 0 64 11.5t58.5 31t43 46t16.5 56.5q0 37 -18 80h8q16 -41 16 -77q2 -31 -14.5 -59t-43.5 -49.5t-61 -34t-69 -12.5z" />
    <glyph glyph-name="cdotaccent.sc" horiz-adv-x="529" 
d="M296 700h-62v64h62v-64zM499 145q2 -31 -14.5 -59t-43.5 -49.5t-61 -34t-69 -12.5q-55 0 -106 14.5t-90 46t-62 80t-23 116.5q0 67 23 116.5t60.5 81.5t85 48t97.5 16q59 -1 95.5 -9t61.5 -9q26 0 26 15h7v-152h-7v13q0 29 -14.5 53.5t-39.5 42.5t-58 28.5t-70 10.5
q-78 1 -111 -60t-33 -195q0 -133 39 -191.5t119 -58.5q32 0 64 11.5t58.5 31t43 46t16.5 56.5q0 37 -18 80h8q16 -41 16 -77z" />
    <glyph glyph-name="d.sc" horiz-adv-x="616" 
d="M249 500q74 0 136 -15t106.5 -46.5t69.5 -80.5t25 -117t-26.5 -114t-72 -74.5t-107 -40.5t-131.5 -12h-219v7q10 0 23.5 5t26 19t21.5 38t9 61v242q0 36 -8.5 59.5t-20.5 37t-25.5 19t-23.5 5.5v7h217zM249 8q41 0 80 11.5t69 39t48 72t18 110.5t-18 113.5t-48 78t-69 45
t-80 14.5h-27v-484h27z" />
    <glyph glyph-name="dcaron.sc" horiz-adv-x="616" 
d="M483 760q17 0 33 -6.5t28.5 -19.5t20.5 -33t8 -48q0 -18 -6 -36.5t-16.5 -34.5t-25.5 -28t-34 -17l-1 4q16 5 21.5 17.5t5.5 31.5q0 10 -2 16t-10 4q-5 -1 -11 -1.5t-11 -0.5q-37 0 -63.5 22.5t-26.5 54.5t26.5 53.5t63.5 21.5zM249 500q74 0 136 -15t106.5 -46.5
t69.5 -80.5t25 -117t-26.5 -114t-72 -74.5t-107 -40.5t-131.5 -12h-219v7q10 0 23.5 5t26 19t21.5 38t9 61v242q0 36 -8.5 59.5t-20.5 37t-25.5 19t-23.5 5.5v7h217zM249 8q41 0 80 11.5t69 39t48 72t18 110.5t-18 113.5t-48 78t-69 45t-80 14.5h-27v-484h27z" />
    <glyph glyph-name="dcroat.sc" horiz-adv-x="616" 
d="M249 500q74 0 136 -15t106.5 -46.5t69.5 -80.5t25 -117t-26.5 -114t-72 -74.5t-107 -40.5t-131.5 -12h-219v7q10 0 23.5 5t26 19t21.5 38t9 61v205h-62v32h62v5q0 36 -8.5 59.5t-20.5 37t-25.5 19t-23.5 5.5v7h217zM249 8q41 0 79.5 11.5t68.5 39t48 72t18 110.5
t-18 113.5t-48 78t-68.5 45t-79.5 14.5h-28v-125h65v-32h-65v-327h28z" />
    <glyph glyph-name="e.sc" horiz-adv-x="543" 
d="M30 0v7q10 0 23.5 5t26 18.5t21.5 37.5t9 62v242q0 36 -8.5 59t-20.5 37t-25.5 19.5t-23.5 5.5v7h452v-137h-8q-6 37 -21.5 61.5t-39 39.5t-53.5 21.5t-65 6.5h-76l-1 -223h42q21 0 44.5 3.5t43 13t32.5 26.5t13 44h8v-182h-8q0 26 -13 43t-32.5 27t-43 13.5t-45.5 3.5
h-41l1 -253h80q44 0 79.5 6t61 21.5t41.5 41t22 64.5h8v-141h-483z" />
    </font>
</defs>
</svg>
