<?xml version="1.0" ?><!DOCTYPE svg  PUBLIC '-//W3C//DTD SVG 1.1//EN'  'http://www.w3.org/Graphics/SVG/1.1/DTD/svg11.dtd'><svg height="512px" style="enable-background:new 0 0 512 512;" version="1.1" viewBox="0 0 512 512" width="512px" xml:space="preserve" xmlns="http://www.w3.org/2000/svg" xmlns:xlink="http://www.w3.org/1999/xlink"><g id="comp_x5F_395-youtube"><path d="   M476.387,144.888c-5.291-19.919-20.878-35.608-40.67-40.933C399.845,94.281,256,94.281,256,94.281s-143.845,0-179.718,9.674   c-19.792,5.325-35.378,21.014-40.669,40.933c-9.612,36.105-9.612,111.438-9.612,111.438s0,75.334,9.612,111.438   c5.291,19.92,20.877,34.955,40.669,40.281C112.155,417.719,256,417.719,256,417.719s143.845,0,179.717-9.674   c19.792-5.326,35.379-20.361,40.67-40.281c9.612-36.104,9.612-111.438,9.612-111.438S485.999,180.993,476.387,144.888z    M208.954,324.723V187.93l120.226,68.398L208.954,324.723z" style="fill:none;stroke:#000000;stroke-width:20;stroke-linecap:round;stroke-linejoin:round;stroke-miterlimit:10;"/></g><g id="Layer_1"/></svg>