<?xml version="1.0" ?><!DOCTYPE svg  PUBLIC '-//W3C//DTD SVG 1.1//EN'  'http://www.w3.org/Graphics/SVG/1.1/DTD/svg11.dtd'><svg viewBox="0 0 512 512" xmlns="http://www.w3.org/2000/svg" xmlns:xlink="http://www.w3.org/1999/xlink"><svg viewBox="0 0 512 512" id="facebook" xmlns="http://www.w3.org/2000/svg"><path d="M485.998 51.363v409.173c0 14.065-11.396 25.36-25.36 25.36H343.38V307.853h59.757l8.935-69.41h-68.795v-44.357c0-20.125 5.545-33.78 34.397-33.78h36.759V98.184c-6.367-.821-28.134-2.771-53.599-2.771-52.981 0-89.33 32.343-89.33 91.794v51.236h-59.963v69.41h59.963v178.146H51.364c-13.965 0-25.362-11.397-25.362-25.362V51.363c0-13.965 11.397-25.362 25.362-25.362h409.171c14.068 0 25.463 11.397 25.463 25.362z" stroke-width="20" stroke-linecap="round" stroke-linejoin="round" stroke-miterlimit="10"/></svg><svg viewBox="0 0 512 512" id="git" xmlns="http://www.w3.org/2000/svg"><path d="M179.859 392.884c0 1.855-2.133 3.339-4.822 3.339-3.062.277-5.193-1.205-5.193-3.339 0-1.854 2.132-3.34 4.823-3.34 2.782-.277 5.192 1.206 5.192 3.34zM151.017 388.709c-.65 1.857 1.205 3.988 3.987 4.544 2.412.928 5.195 0 5.75-1.853.558-1.856-1.205-3.988-3.987-4.824-2.412-.647-5.1.279-5.75 2.133zM192.008 387.133c-2.689.65-4.543 2.411-4.267 4.544.279 1.854 2.691 3.063 5.473 2.413 2.69-.65 4.544-2.413 4.266-4.267-.278-1.763-2.782-2.968-5.472-2.69z"/><path d="M253.032 31.747c-128.633 0-227.031 97.656-227.031 226.291 0 102.851 64.733 190.862 157.197 221.839 11.871 2.133 16.044-5.194 16.044-11.223 0-5.75-.277-37.469-.277-56.942 0 0-64.92 13.911-78.553-27.639 0 0-30.186-37.116-45.396-44.072 0 0-21.238-20.278 1.485-20 0 0 42.707 2.323 55.412 24.395 20.31 35.799 54.346 25.505 67.608 19.383 2.133-14.839 8.162-27.656 14.839-33.777-51.842-5.75-104.149-.784-104.149-90 0-25.504 7.048-39.908 21.888-56.231-2.411-6.028-10.294-30.882 2.412-62.972 19.383-6.028 63.99 25.041 63.99 25.041 18.55-5.194 38.489-7.883 58.242-7.883 19.756 0 39.694 2.689 58.241 7.883 0 0 44.612-31.162 63.993-25.041 12.705 32.181 4.823 56.944 2.412 62.972 14.84 16.416 23.927 30.819 23.927 56.231 0 89.496-54.625 99.537-106.466 105.379 8.531 7.326 15.764 23.763 15.764 45.557 0 31.253-.276 69.928-.276 77.531 0 6.028 4.265 13.355 16.043 11.223 92.742-30.79 155.62-118.802 155.62-221.652-.002-128.637-104.336-226.293-232.969-226.293z" stroke-width="20" stroke-linecap="round" stroke-linejoin="round" stroke-miterlimit="10"/><path d="M116.146 351.614c-1.206.927-.927 3.061.647 4.82 1.484 1.485 3.618 2.133 4.823.93 1.206-.93.927-3.061-.649-4.823-1.482-1.484-3.615-2.133-4.821-.927zM106.129 344.102c-.648 1.205.278 2.688 2.133 3.616 1.484.929 3.339.649 3.988-.649.648-1.205-.278-2.688-2.133-3.617-1.854-.557-3.339-.278-3.988.65zM136.178 377.116c-1.484 1.206-.927 3.989 1.205 5.75 2.133 2.134 4.822 2.413 6.028.927 1.205-1.204.649-3.987-1.206-5.748-2.04-2.133-4.822-2.412-6.027-.929zM125.605 363.485c-1.484.926-1.484 3.337 0 5.47 1.485 2.134 3.989 3.061 5.194 2.134 1.483-1.206 1.483-3.617 0-5.75-1.299-2.132-3.709-3.061-5.194-1.854z"/></svg><svg viewBox="0 0 512 512" id="instagram" xmlns="http://www.w3.org/2000/svg"><g stroke-width="20" stroke-linecap="round" stroke-linejoin="round" stroke-miterlimit="10"><path d="M375.744 455.756H136.256C86.409 455.756 46 415.348 46 365.501V146.5c0-49.847 40.409-90.256 90.256-90.256h239.488C425.591 56.244 466 96.653 466 146.5v219.001c0 49.847-40.409 90.255-90.256 90.255z"/><circle cx="256" cy="256.244" r="110"/><circle cx="396" cy="126.244" r="20"/></g></svg><svg viewBox="0 0 512 512" id="telegram" xmlns="http://www.w3.org/2000/svg"><path d="M477.805 102.98l-67.327 317.516c-5.08 22.41-18.326 27.984-37.15 17.431l-102.585-75.596-49.497 47.607c-5.477 5.478-10.06 10.061-20.617 10.061l7.37-104.479 190.129-171.805c8.268-7.37-1.792-11.454-12.848-4.083L150.233 287.633l-101.19-31.672c-22.011-6.873-22.408-22.012 4.581-32.568L449.419 70.911c18.325-6.872 34.36 4.082 28.386 32.069z" stroke-width="20" stroke-linecap="round" stroke-linejoin="round" stroke-miterlimit="10"/></svg><svg viewBox="0 0 512 512" id="youtube" xmlns="http://www.w3.org/2000/svg"><path d="M476.387 144.888c-5.291-19.919-20.878-35.608-40.67-40.933C399.845 94.281 256 94.281 256 94.281s-143.845 0-179.718 9.674c-19.792 5.325-35.378 21.014-40.669 40.933-9.612 36.105-9.612 111.438-9.612 111.438s0 75.334 9.612 111.438c5.291 19.92 20.877 34.955 40.669 40.281C112.155 417.719 256 417.719 256 417.719s143.845 0 179.717-9.674c19.792-5.326 35.379-20.361 40.67-40.281 9.612-36.104 9.612-111.438 9.612-111.438s0-75.333-9.612-111.438zM208.954 324.723V187.93l120.226 68.398-120.226 68.395z" stroke-width="20" stroke-linecap="round" stroke-linejoin="round" stroke-miterlimit="10"/></svg></svg>