<?xml version="1.0" encoding="utf-8"?><!DOCTYPE svg  PUBLIC '-//W3C//DTD SVG 1.1//EN'  'http://www.w3.org/Graphics/SVG/1.1/DTD/svg11.dtd'><svg viewBox="0 0 256.1 255.7" xmlns="http://www.w3.org/2000/svg" xmlns:xlink="http://www.w3.org/1999/xlink"><svg version="1.1" id="cloud" x="0" y="0" viewBox="0 0 256.1 181.2" xml:space="preserve" xmlns="http://www.w3.org/2000/svg"><defs><path id="aSVGID_1_" d="M0 0h256.1v181.2H0z"/></defs><clipPath id="aSVGID_2_"><use xlink:href="#aSVGID_1_" overflow="visible"/></clipPath><path d="M125.3 181.1c-24.5 0-49 .3-73.5-.1-26.9-.5-48.1-20.4-51.5-47.8-3-24.4 13.4-49.1 37.8-56.1 4.2-1.2 5.6-3 6.2-7.3C49.7 34.7 81 5.5 116.4.7c42.2-5.7 82.8 21 94 61.8.5 1.7 2.8 3.6 4.6 4.2 25.6 8.5 41.7 31.1 41.1 58-.6 30-25.8 55.7-55.9 56.3-24.9.4-49.9.1-74.9.1zm-5.5-46.3l53.7-53.4c-4.4-4.4-9.2-9.3-14.7-14.9-12.9 12.9-25.9 26-39.4 39.5-6.3-6.7-12.7-13.5-18.6-19.7-5.4 5.1-10.4 9.8-15.3 14.5 11.6 11.6 23.3 23.1 34.3 34"/></svg><svg version="1.1" id="earth" x="0" y="0" viewBox="0 0 94.2 94.1" xml:space="preserve" xmlns="http://www.w3.org/2000/svg"><defs><path id="bSVGID_1_" d="M0 0h94.2v94.1H0z"/></defs><clipPath id="bSVGID_2_"><use xlink:href="#bSVGID_1_" overflow="visible"/></clipPath><path d="M28.2 0h19c20.5 0 39 13.6 44.8 33.2 4.8 16.1 1.8 30.9-8.7 43.9C76 86 66.5 91.5 55.1 93.4c-3 .5-6.1.5-9.1.7-.5 0-1-.2-1.4-.5-9.7-7.9-19.4-15.8-29-23.7-8.4-7-13.5-15.9-15-26.7-.3-2.3-.5-4.7-.5-7C0 26.7 0 17.2 0 7.7 0 3.3 3.3 0 7.7 0h20.5m-5.5 49.9h8.5c1.4 0 2.6-.3 3.7-1.1 2.5-1.7 4.1-4.1 4.4-7.1.3-3.1.4-6.4.2-9.5-.2-2.8-1.6-5.2-4.2-6.6-.3-.1-.4-.6-.4-1 0-2.7 0-5.4-.1-8.1 0-1.8-1-3-2.6-3.6-.8-.3-1.6-.5-2.4-.5-4-.1-8.1-.1-12.1-.1-.9 0-1.7.1-2.5.2-2.4.5-5 1.8-4.8 5.6.1 2.2 0 4.3 0 6.5 0 .3-.3.8-.5 1-2.6 1.6-3.9 4-4 7-.1 2.3 0 4.7 0 7 0 2.4.7 4.6 2.1 6.5 1.7 2.5 4 3.9 7.1 3.8 2.4-.1 5 0 7.6 0m44.5-23.1c2.2 6 3.4 12.1 3.6 18.3h19.6c-.5-9.9-4-18.6-10.3-26.2-4 3.3-8.2 5.9-12.9 7.9M90.3 49H70.8c-.3 6.3-1.4 12.4-3.6 18.3 4.7 2 8.9 4.6 12.8 7.8 6.4-7.6 9.8-16.2 10.3-26.1M63.6 66c1.9-4.5 3.8-14.5 3.2-17H49v14.3c5 .2 9.9 1.1 14.6 2.7M49 45.2h18c-.2-5.9-1.3-11.5-3.3-17-4.8 1.6-9.7 2.5-14.6 2.7v14.3zM51.9 4c6 5.6 10.6 12 13.9 19.3 4.3-1.8 8.1-4.2 11.7-7.1C70.3 9.3 61.9 5.3 51.9 4m13.8 66.8c-3.3 7.3-7.9 13.7-13.9 19.3 10.1-1.3 18.5-5.3 25.6-12.2-3.6-2.9-7.4-5.3-11.7-7.1M49 6.5V27c4.5-.1 8.9-1 13.2-2.4C59 17.7 54.7 11.7 49 6.5m0 81.1c5.7-5.2 10-11.2 13.2-18.1-4.3-1.4-8.7-2.3-13.2-2.4v20.5z"/><path d="M30.2 25.3h-15c0-.2-.1-.3-.1-.5v-7.4c0-.8.4-1.3 1.1-1.4.3-.1.7-.1 1-.1h11.3c1.4 0 1.6.3 1.6 1.7.1 2.6.1 5.2.1 7.7M26.9 45.2h-8.5c.3-1.5.7-2.9 1-4.4.1-.4.2-.7.3-1.1.3-1.1.4-2-.4-3.1-1.8-2.5-.5-6.1 2.4-6.9 3.3-.9 6.1 2.1 5.2 5.4-.2.7-.6 1.5-1.1 2.1-.4.5-.4.8-.3 1.3.4 1.9.9 3.8 1.3 5.7 0 .4 0 .7.1 1"/></svg><svg viewBox="0 0 56.693 56.693" id="facebook" xmlns="http://www.w3.org/2000/svg"><path d="M40.43 21.739h-7.645v-5.014c0-1.883 1.248-2.322 2.127-2.322h5.395V6.125l-7.43-.029c-8.248 0-10.125 6.174-10.125 10.125v5.518h-4.77v8.53h4.77v24.137h10.033V30.269h6.77l.875-8.53z"/></svg><svg version="1.1" id="gear" x="0" y="0" viewBox="0 0 93 93" xml:space="preserve" xmlns="http://www.w3.org/2000/svg"><defs><path id="dSVGID_1_" d="M0 0h93v93H0z"/></defs><clipPath id="dSVGID_2_"><use xlink:href="#dSVGID_1_" overflow="visible"/></clipPath><path d="M38.7 0h15.5c.9 2.8 1.9 5.6 2.8 8.5.3 1.2.9 1.9 2.1 2.2 1.5.5 2.9 1.1 4.3 1.7.7.3 1.2.3 1.9 0l7.5-3.6c.4-.1.7-.1 1.2.2 3.8 2.8 7.1 6.1 9.9 9.9.4.5.5.9.2 1.5-1.2 2.5-2.4 5-3.5 7.5-.2.4-.2 1.1 0 1.6.6 1.7 1.4 3.4 2.1 5.1.2.6.6 1 1.2 1.2 2.8.9 5.6 1.9 8.3 2.7.7.2.9.5.9 1.2v13.7c0 .7-.2 1-.8 1.2-2.8.9-5.6 1.9-8.4 2.8-.6.2-.9.6-1.2 1.2-.6 1.7-1.3 3.4-2.1 5.1-.3.6-.3 1 0 1.6l3.6 7.5c.3.5.3.9-.1 1.4-2.8 3.8-6.1 7.1-9.9 9.9-.5.4-.9.4-1.4.1l-7.5-3.6c-.6-.3-1-.3-1.6 0-1.7.8-3.4 1.5-5.2 2.1-.6.2-.9.5-1.1 1.1-.9 2.9-1.9 5.7-2.8 8.5-.1.4-.2.8-.8.8H38.9c-.4-1.2-.8-2.5-1.3-3.7-.6-1.9-1.2-3.7-1.9-5.6-.2-.4-.6-.8-1-1-1.7-.8-3.5-1.5-5.3-2.2-.4-.2-1-.2-1.5 0-2.6 1.2-5.1 2.4-7.6 3.6-.5.3-.9.2-1.3-.1-3.8-2.8-7.1-6.2-9.9-10-.3-.4-.4-.7-.1-1.2 1.2-2.5 2.4-5.1 3.6-7.6.3-.6.2-1.1 0-1.7-.8-1.7-1.4-3.4-2.1-5.1-.2-.6-.5-.9-1.1-1.1-2.8-.9-5.6-1.9-8.4-2.8-.3-.1-.6-.2-.8-.3V38.7c3.1-1 6.1-2 9.2-3 .7-.2 1-.6 1.3-1.2l2.1-5.1c.2-.4.2-1.1 0-1.5-1.1-2.6-2.4-5.1-3.6-7.6-.5-.5-.6-.8-.2-1.3 2.8-3.8 6.2-7.1 10-10 .5-.4.8-.4 1.3-.1 2.5 1.2 5 2.4 7.5 3.5.5.2 1.2.2 1.7.1 1.7-.6 3.4-1.4 5.1-2.1.6-.2.9-.6 1.1-1.2 1-3.1 2-6.1 3-9.2m7.8 78.6c17.7 0 32.1-14.4 32.1-32 0-17.7-14.3-32.1-32-32.2-17.7 0-32.1 14.3-32.1 32.1-.1 17.7 14.3 32.1 32 32.1"/><path d="M46.3 19.4c2.8 2.4 5.4 4.8 8.2 7 4.1 3.1 8.6 5.5 13.5 7.1.7.2 1 .5 1 1.3v23.3c0 .8-.3 1.3-.8 1.8-6.4 5.5-13.5 10-21.1 13.6-.3.1-.8.1-1.1 0-7.5-3.6-14.5-8-20.9-13.4-.7-.6-1-1.2-1-2.2V34.8c0-.6.1-1 .7-1.2C33 30.8 40 26.1 45.9 19.8c.2-.2.4-.3.4-.4m5 12.7h-9.6c1.6 7.9 3.1 15.6 4.7 23.4h.2c1.6-7.8 3.1-15.5 4.7-23.4m-4.9 33.6c1.7 0 3.2-1.4 3.3-3.1 0-1.8-1.4-3.3-3.2-3.3-1.7 0-3.2 1.4-3.3 3.1 0 1.8 1.5 3.3 3.2 3.3"/></svg><svg version="1.1" id="heartbeat" x="0" y="0" viewBox="0 0 137.1 114.5" xml:space="preserve" xmlns="http://www.w3.org/2000/svg"><defs><path id="eSVGID_1_" d="M0 0h137.1v114.5H0z"/></defs><clipPath id="eSVGID_2_"><use xlink:href="#eSVGID_1_" overflow="visible"/></clipPath><path d="M.4 57.2C.4 42.4.3 28 .5 13.6.5 5.8 7 .3 15.8.3H121.1c10.2 0 15.8 5.7 15.8 15.8V57h-29.6c-2.2-6.7-4.4-13.4-6.5-20.2-.9-2.9-1.9-5.9-2.8-8.9-.8-2.7-2.3-4.6-5.3-4.8-2.9-.2-4.9 1.2-6.2 4.4-5.6 14.1-11.1 28.1-16.7 42.2-.3.7-.6 1.4-1.1 2.6-.6-.9-1.1-1.6-1.5-2.3-5-8.6-9.9-17.2-14.9-25.8-3.1-5.4-7.7-5.6-11.2-.5-2.8 4-5.5 8-8.4 12-.5.6-1.3 1.4-1.9 1.4-10.1.1-20.1.1-30.4.1"/><path d="M.4 57.2C.4 42.4.3 28 .5 13.6.5 5.8 7 .3 15.8.3H121.1c10.2 0 15.8 5.7 15.8 15.8V57h-29.6c-2.2-6.7-4.4-13.4-6.5-20.2-.9-2.9-1.9-5.9-2.8-8.9-.8-2.7-2.3-4.6-5.3-4.8-2.9-.2-4.9 1.2-6.2 4.4-5.6 14.1-11.1 28.1-16.7 42.2-.3.7-.6 1.4-1.1 2.6-.6-.9-1.1-1.6-1.5-2.3-5-8.6-9.9-17.2-14.9-25.8-3.1-5.4-7.7-5.6-11.2-.5-2.8 4-5.5 8-8.4 12-.5.6-1.3 1.4-1.9 1.4-10.1.1-20.1.1-30.4.1z"/><path d="M91.4 45.9c1.8 6 3.4 11.3 5 16.6 1.4 4.6 3.2 6 8.1 6h32.3v30.2c0 9.6-5.8 15.4-15.4 15.5-18.3.1-36.6 0-54.9 0-16.7 0-33.4-.2-50.1.1C5.6 114.3-.1 106.7.3 98c.4-8.8.1-17.6.1-26.4v-3.1h33c2.9 0 4.9-1.1 6.5-3.4 1.9-2.8 3.9-5.5 6-8.5C50 64 54 71.1 57.9 78.2c1.8 3.2 3.5 6.3 5.3 9.5 1.4 2.5 3.5 3.7 6.3 3.5 2.7-.2 4.2-1.7 5.2-4.2 5.1-12.9 10.4-25.8 15.7-38.6.1-.6.4-1.2 1-2.5"/><path d="M91.4 45.9c1.8 6 3.4 11.3 5 16.6 1.4 4.6 3.2 6 8.1 6h32.3v30.2c0 9.6-5.8 15.4-15.4 15.5-18.3.1-36.6 0-54.9 0-16.7 0-33.4-.2-50.1.1C5.6 114.3-.1 106.7.3 98c.4-8.8.1-17.6.1-26.4v-3.1h33c2.9 0 4.9-1.1 6.5-3.4 1.9-2.8 3.9-5.5 6-8.5C50 64 54 71.1 57.9 78.2c1.8 3.2 3.5 6.3 5.3 9.5 1.4 2.5 3.5 3.7 6.3 3.5 2.7-.2 4.2-1.7 5.2-4.2 5.1-12.9 10.4-25.8 15.7-38.6.1-.6.4-1.2 1-2.5z"/></svg><svg baseProfile="tiny" version="1.2" viewBox="0 0 24 24" id="linkedin" xmlns="http://www.w3.org/2000/svg"><path d="M8 19H5V9h3v10zm11 0h-3v-5.342c0-1.392-.496-2.085-1.479-2.085-.779 0-1.273.388-1.521 1.165V19h-3s.04-9 0-10h2.368l.183 2h.062c.615-1 1.598-1.678 2.946-1.678 1.025 0 1.854.285 2.487 1.001.637.717.954 1.679.954 3.03V19z"/><ellipse cx="6.5" cy="6.5" rx="1.55" ry="1.5"/></svg><svg version="1.1" id="monitor" x="0" y="0" viewBox="0 0 256.1 255.7" xml:space="preserve" xmlns="http://www.w3.org/2000/svg"><defs><path id="gSVGID_1_" d="M0 0h256.1v255.7H0z"/></defs><clipPath id="gSVGID_2_"><use xlink:href="#gSVGID_1_" overflow="visible"/></clipPath><path d="M256.1 163.7H.1v-5.5V24.7C.1 9.6 9.6 0 24.6 0h207c14.8 0 24.5 9.6 24.5 24.2v139.5zM58.3 67.5c-7 7.6-13.6 14.8-18.6 20.3 11.7 12.9 23.1 25.4 34.9 38.3 18.7-22.8 36.7-44.6 54.9-66.7-7.7-6.7-15.1-13.1-22.7-19.7-11.6 14-22.8 27.6-34.2 41.4-4.7-4.5-9.3-8.8-14.3-13.6m89.5-.9c-7.8 8.5-14.4 15.7-19.3 21 11.9 12.9 23.3 25.4 35 38.1 18.5-22.4 36.4-44.2 54.6-66.4-7.6-6.6-15.1-13-22.7-19.7-11.6 14-22.7 27.6-34.5 41.8-4.3-4.8-8.5-9.6-13.1-14.8M0 172.1h255.4c3.1 15.6-7.1 28.1-23.2 28.3-24 .2-48 .1-71.9.1H24.9C12 200.5 3 193.7.6 182c-.7-3.1-.4-6.3-.6-9.9M91.2 248.2c1.7-11.9 3.5-23.1 4.8-34.3.5-4.1 1.7-5.6 6.1-5.5 17.5.3 35 .2 52.5 0 3.9 0 5.1 1.3 5.6 5 1.4 11.4 3.1 22.7 4.7 34.5h20.9v7.9H70.3v-7.5h20.9z"/></svg><svg version="1.1" id="tools" x="0" y="0" viewBox="0 0 76.6 86" xml:space="preserve" xmlns="http://www.w3.org/2000/svg"><defs><path id="hSVGID_1_" d="M0 0h76.6v86H0z"/></defs><clipPath id="hSVGID_2_"><use xlink:href="#hSVGID_1_" overflow="visible"/></clipPath><path d="M76.6 33.7v19.2h-9.5c-.6 0-.8.2-1 .7-.7 1.9-1.5 3.7-2.4 5.6-.3.7-.3 1.1.3 1.6 2.3 2.3 4.6 4.6 6.8 6.9.1.1.3.3.4.5L57.5 81.6 55.9 80c-2.1-2-4.1-4.1-6.2-6.1-.4-.4-.7-.5-1.2-.3-1.9.8-3.8 1.5-5.7 2.1-.5.2-.6.4-.6.9V86h-9V66c1.4-.2 2.9-.2 4.3-.5 9.4-1.8 15.4-7.4 17.7-16.5 3.3-12.6-5.2-25.2-18-27.1-1.1-.2-2.2-.2-3.3-.2-.5 0-.8-.1-.8-.7V.5.2h9V10.9c0 .6.2.8.7 1 1.4.4 2.8.9 4.2 1.4.5.2.9.1 1.2-.3 2.4-2.4 4.9-4.8 7.3-7.2.2-.2.4-.4.7-.6 4.5 4.6 8.9 9.1 13.5 13.8-.2.2-.6.5-1 .9l-5.9 5.9c-.2.2-.3.7-.2.9 1.1 2.4 2.3 4.8 3.5 7.3h10.5zM21.8 0c2.5 2.2 4 4.7 4.6 7.7 1.2 6.4-2.1 12.4-8 14.9-.4.2-.6.4-.6.8v39.1c0 .5.2.7.6.8 5.3 2.3 8 6.4 8.3 12.1.2 3.8-2 8.4-4.8 10.3 0-.3-.1-.5-.1-.7v-7.7c0-.5-.2-.8-.6-1-2.5-1.4-4.9-2.9-7.4-4.3-.3-.2-.8-.1-1 0-2.5 1.4-4.9 2.9-7.3 4.3-.5.4-.6.7-.6 1.2v8.4c-1.6-1.3-2.8-2.8-3.6-4.5-3.2-6.8-.1-14.9 6.8-17.9.6-.2.8-.5.8-1.1V23.8c0-.7-.2-1-.9-1.3C-.7 18.7-2.8 7.2 4.2.6c.2-.2.4-.3.7-.6v8.7c0 .6.2.9.7 1.2 2.4 1.4 4.8 2.8 7.2 4.3.5.3.8.2 1.2 0 2.4-1.4 4.8-2.9 7.2-4.3.5-.3.7-.7.7-1.3V0z"/><path d="M33.1 53.6v-3.1c0-.9.4-1.2 1.2-1.3 2.9-.3 4.8-2.2 5.2-5 .5-3-1.9-6.2-5-6.5-1.5-.1-1.5-.2-1.5-1.6v-5.4c0-1.2.2-1.4 1.4-1.3 6.4.6 11.2 4.4 12.8 10.6 2.2 8.1-3.3 16.2-11.6 17.4-2.1.3-2.2.2-2.4-1.9 0-.7-.1-1.3-.1-1.9"/></svg><svg viewBox="0 0 56.693 56.693" id="twitter" xmlns="http://www.w3.org/2000/svg"><path d="M52.837 15.065a20.11 20.11 0 01-5.805 1.591 10.125 10.125 0 004.444-5.592 20.232 20.232 0 01-6.418 2.454 10.093 10.093 0 00-7.377-3.192c-5.581 0-10.106 4.525-10.106 10.107 0 .791.089 1.562.262 2.303-8.4-.422-15.848-4.445-20.833-10.56a10.055 10.055 0 00-1.368 5.082c0 3.506 1.784 6.6 4.496 8.412a10.078 10.078 0 01-4.578-1.265l-.001.128c0 4.896 3.484 8.98 8.108 9.91a10.162 10.162 0 01-4.565.172c1.287 4.015 5.019 6.938 9.441 7.019a20.276 20.276 0 01-12.552 4.327c-.815 0-1.62-.048-2.411-.142a28.6 28.6 0 0015.493 4.541c18.591 0 28.756-15.4 28.756-28.756 0-.438-.009-.875-.028-1.309a20.47 20.47 0 005.042-5.23z"/></svg></svg>