<?xml version="1.0" encoding="utf-8"?><!DOCTYPE svg  PUBLIC '-//W3C//DTD SVG 1.1//EN'  'http://www.w3.org/Graphics/SVG/1.1/DTD/svg11.dtd'><svg viewBox="0 0 512 512" xmlns="http://www.w3.org/2000/svg" xmlns:xlink="http://www.w3.org/1999/xlink"><svg viewBox="0 0 15 8" id="arrow-right" xmlns="http://www.w3.org/2000/svg"><path d="M14.354 4.354a.5.5 0 000-.708L11.172.464a.5.5 0 10-.708.708L13.293 4l-2.829 2.828a.5.5 0 10.708.708l3.182-3.182zM0 4.5h14v-1H0v1z"/></svg><svg viewBox="0 0 56.693 56.693" id="facebook" xmlns="http://www.w3.org/2000/svg"><path d="M40.43 21.739h-7.645v-5.014c0-1.883 1.248-2.322 2.127-2.322h5.395V6.125l-7.43-.029c-8.248 0-10.125 6.174-10.125 10.125v5.518h-4.77v8.53h4.77v24.137h10.033V30.269h6.77l.875-8.53z"/></svg><svg viewBox="-1163 1657.697 56.693 56.693" id="git" xmlns="http://www.w3.org/2000/svg"><path clip-rule="evenodd" d="M-1134.66 1662.916c-13.6 0-24.63 11.027-24.63 24.63 0 10.882 7.057 20.115 16.844 23.371 1.23.228 1.683-.534 1.683-1.184 0-.587-.023-2.528-.034-4.586-6.852 1.49-8.298-2.906-8.298-2.906-1.12-2.847-2.734-3.604-2.734-3.604-2.235-1.529.168-1.497.168-1.497 2.473.173 3.776 2.538 3.776 2.538 2.196 3.765 5.761 2.677 7.167 2.047.221-1.591.86-2.678 1.564-3.293-5.47-.623-11.222-2.735-11.222-12.172 0-2.69.962-4.886 2.538-6.611-.256-.62-1.099-3.126.239-6.519 0 0 2.068-.661 6.774 2.525 1.965-.545 4.072-.82 6.165-.829 2.093.01 4.202.284 6.17.83 4.701-3.187 6.767-2.526 6.767-2.526 1.34 3.393.497 5.898.241 6.519 1.58 1.725 2.535 3.922 2.535 6.61 0 9.46-5.762 11.544-11.246 12.153.883.765 1.67 2.264 1.67 4.561 0 3.296-.028 5.948-.028 6.76 0 .655.443 1.423 1.691 1.181 9.782-3.26 16.83-12.49 16.83-23.368 0-13.603-11.027-24.63-24.63-24.63z" fill-rule="evenodd"/><path d="M-1149.961 1698.28c-.054.122-.247.159-.422.075-.18-.08-.28-.248-.221-.37.053-.126.245-.161.424-.077.179.08.28.249.219.371zm-.303-.225M-1148.963 1699.392c-.118.109-.348.058-.504-.114-.16-.172-.19-.401-.071-.512.12-.108.343-.057.505.114.16.174.192.402.07.512zm-.235-.252M-1147.992 1700.81c-.151.106-.398.007-.55-.212-.152-.219-.152-.482.003-.587.152-.105.396-.01.55.207.15.223.15.485-.003.592zm0 0M-1146.662 1702.181c-.135.15-.423.109-.633-.094-.215-.199-.275-.48-.14-.63.137-.149.426-.107.638.095.214.198.279.482.135.63zm0 0M-1144.826 1702.977c-.06.193-.337.28-.616.198-.279-.084-.46-.31-.405-.505.058-.194.337-.285.617-.198.279.084.461.309.404.505zm0 0M-1142.81 1703.124c.006.203-.23.372-.523.375-.295.007-.533-.157-.536-.357 0-.205.23-.372.525-.377.293-.006.533.158.533.36zm0 0M-1140.935 1702.805c.035.198-.169.402-.46.456-.285.053-.55-.07-.586-.267-.036-.203.171-.406.457-.459.291-.05.552.069.589.27zm0 0"/></svg><svg viewBox="0 0 56.693 56.693" id="instagram" xmlns="http://www.w3.org/2000/svg"><path d="M43.414 4.831H13c-5.283 0-9.581 4.297-9.581 9.58v30.415c0 5.283 4.298 9.58 9.581 9.58h30.415c5.283 0 9.58-4.297 9.58-9.58V14.41c-.001-5.283-4.298-9.579-9.581-9.579zm2.748 5.713l1.096-.004v8.403l-8.375.027-.029-8.402 7.308-.024zM21.131 24.53c1.588-2.197 4.164-3.638 7.076-3.638s5.488 1.441 7.074 3.638a8.677 8.677 0 011.652 5.088c0 4.811-3.918 8.725-8.727 8.725-4.812 0-8.726-3.914-8.726-8.725a8.683 8.683 0 011.651-5.088zm27.033 20.295a4.754 4.754 0 01-4.75 4.75H13a4.755 4.755 0 01-4.751-4.75V24.53h7.4a13.483 13.483 0 00-.998 5.088c0 7.473 6.08 13.557 13.556 13.557 7.475 0 13.555-6.084 13.555-13.557 0-1.799-.361-3.516-1-5.088h7.402v20.295z"/></svg><svg viewBox="0 0 512 512" id="telegram" xmlns="http://www.w3.org/2000/svg"><path d="M477.805 102.98l-67.327 317.516c-5.08 22.41-18.326 27.984-37.15 17.431l-102.585-75.596-49.497 47.607c-5.477 5.478-10.06 10.061-20.617 10.061l7.37-104.479 190.129-171.805c8.268-7.37-1.792-11.454-12.848-4.083L150.233 287.633l-101.19-31.672c-22.011-6.873-22.408-22.012 4.581-32.568L449.419 70.911c18.325-6.872 34.36 4.082 28.386 32.069z" stroke-width="20" stroke-linecap="round" stroke-linejoin="round" stroke-miterlimit="10"/></svg><svg viewBox="0 0 56.693 56.693" id="youtube" xmlns="http://www.w3.org/2000/svg"><path d="M43.911 28.21H12.782c-4.948 0-8.959 4.015-8.959 8.962v7.201c0 4.947 4.011 8.961 8.959 8.961h31.129c4.947 0 8.959-4.014 8.959-8.961v-7.201c0-4.947-4.012-8.962-8.959-8.962zm-24.589 5.606h-2.894v14.38h-2.796v-14.38H10.74V31.37h8.582v2.446zm8.175 14.38h-2.48v-1.36c-.461.503-.936.887-1.432 1.146-.496.27-.975.396-1.441.396-.576 0-1.004-.183-1.297-.555-.288-.371-.435-.921-.435-1.664V35.782h2.48v9.523c0 .294.055.505.154.636.107.135.277.197.51.197.18 0 .412-.086.691-.26a3.35 3.35 0 00.77-.668v-9.429h2.48v12.415zm9.004-2.563c0 .877-.195 1.551-.584 2.021-.387.47-.953.701-1.686.701-.488 0-.922-.088-1.299-.27a3.189 3.189 0 01-1.061-.841v.951h-2.51V31.37h2.51v5.419c.336-.375.691-.666 1.062-.861.379-.199.76-.295 1.146-.295.785 0 1.383.262 1.797.791.416.529.623 1.304.623 2.32v6.889zm8.603-3.345h-4.746v2.339c0 .652.08 1.106.242 1.359.166.254.445.378.842.378.412 0 .697-.107.863-.321.16-.216.246-.686.246-1.416v-.565h2.553v.637c0 1.272-.309 2.231-.936 2.878-.617.641-1.547.959-2.783.959-1.113 0-1.99-.339-2.627-1.021-.635-.678-.959-1.619-.959-2.815v-5.576c0-1.073.354-1.956 1.057-2.633.701-.677 1.604-1.015 2.715-1.015 1.137 0 2.01.313 2.619.941.609.629.914 1.529.914 2.706v3.165z"/><path d="M41.466 37.646c-.396 0-.678.111-.85.343-.176.218-.258.591-.258 1.112v1.255h2.193v-1.255c0-.521-.088-.895-.262-1.112-.167-.231-.446-.343-.823-.343zM32.909 37.604c-.176 0-.354.039-.525.12-.174.079-.344.21-.512.38v7.733c.199.2.396.354.588.442.191.085.389.133.6.133.305 0 .527-.088.67-.266.141-.176.213-.457.213-.854v-6.411c0-.422-.084-.738-.26-.955-.182-.214-.44-.322-.774-.322zM16.858 23.898h3.144v-7.69L23.663 5.36h-3.196l-1.946 7.41h-.198L16.28 5.36h-3.167l3.745 11.194zM27.923 24.243c1.27 0 2.266-.333 2.992-.999.721-.669 1.082-1.582 1.082-2.752v-7.064c0-1.041-.369-1.898-1.104-2.559-.74-.659-1.688-.991-2.844-.991-1.27 0-2.281.314-3.033.941-.75.627-1.127 1.468-1.127 2.531v7.088c0 1.163.367 2.083 1.1 2.773.733.687 1.713 1.032 2.934 1.032zm-1.158-10.997a.93.93 0 01.316-.725c.217-.184.492-.273.834-.273.369 0 .668.089.896.273.227.188.34.428.34.725v7.451c0 .365-.111.655-.336.864-.223.21-.523.313-.9.313-.369 0-.654-.1-.854-.31-.197-.205-.297-.493-.297-.868v-7.45zM36.214 24.098c.525 0 1.064-.15 1.619-.438.561-.292 1.098-.719 1.609-1.276v1.515h2.793V10.224h-2.793v10.38c-.26.297-.549.541-.859.735-.316.192-.576.288-.781.288-.262 0-.455-.072-.568-.221-.115-.143-.18-.377-.18-.698V10.224h-2.789v11.429c0 .815.164 1.424.488 1.828.33.41.812.617 1.461.617z"/></svg></svg>