<?xml version="1.0" ?><!DOCTYPE svg  PUBLIC '-//W3C//DTD SVG 1.1//EN'  'http://www.w3.org/Graphics/SVG/1.1/DTD/svg11.dtd'><svg viewBox="0 0 1792 1792" xmlns="http://www.w3.org/2000/svg" xmlns:xlink="http://www.w3.org/1999/xlink"><svg viewBox="0 0 1792 1792" id="facebook" xmlns="http://www.w3.org/2000/svg"><path d="M1376 128q119 0 203.5 84.5T1664 416v960q0 119-84.5 203.5T1376 1664h-188v-595h199l30-232h-229V689q0-56 23.5-84t91.5-28l122-1V369q-63-9-178-9-136 0-217.5 80T948 666v171H748v232h200v595H416q-119 0-203.5-84.5T128 1376V416q0-119 84.5-203.5T416 128h960z"/></svg><svg viewBox="0 0 512 512" id="instagram" xmlns="http://www.w3.org/2000/svg"><path d="M256.052 138.088c-65.268 0-117.913 52.646-117.913 117.912 0 65.267 52.645 117.91 117.913 117.91 65.267 0 117.911-52.644 117.911-117.91 0-65.266-52.645-117.912-117.911-117.912zm0 194.571c-42.177 0-76.659-34.38-76.659-76.659s34.378-76.657 76.659-76.657c42.277 0 76.657 34.378 76.657 76.657 0 42.279-34.48 76.659-76.657 76.659zm150.236-199.393c0 15.291-12.315 27.502-27.502 27.502-15.292 0-27.502-12.314-27.502-27.502 0-15.188 12.313-27.503 27.502-27.503 15.187 0 27.502 12.314 27.502 27.503zm78.094 27.911c-1.743-36.839-10.158-69.474-37.148-96.36-26.886-26.887-59.52-35.302-96.36-37.148-37.971-2.155-151.777-2.155-189.747 0-36.739 1.743-69.372 10.159-96.361 37.046-26.99 26.887-35.302 59.52-37.149 96.36-2.155 37.969-2.155 151.777 0 189.747 1.745 36.842 10.159 69.473 37.149 96.361 26.989 26.887 59.521 35.301 96.361 37.148 37.969 2.154 151.776 2.154 189.747 0 36.841-1.744 69.475-10.161 96.36-37.148 26.887-26.889 35.302-59.52 37.148-96.361 2.156-37.969 2.156-151.675 0-189.645zm-49.053 230.386c-8.004 20.112-23.5 35.61-43.716 43.716-30.273 12.009-102.108 9.236-135.562 9.236-33.456 0-105.393 2.669-135.563-9.236-20.114-8.005-35.611-23.498-43.717-43.716C64.766 361.29 67.538 289.455 67.538 256s-2.669-105.391 9.234-135.562c8.006-20.114 23.5-35.61 43.717-43.716 30.273-12.007 102.107-9.236 135.563-9.236 33.453 0 105.391-2.668 135.562 9.236 20.113 8.002 35.609 23.5 43.716 43.716 12.007 30.272 9.237 102.107 9.237 135.562s2.769 105.392-9.238 135.563z"/></svg><svg viewBox="0 0 512 512" id="youtube" xmlns="http://www.w3.org/2000/svg"><path d="M476.387 144.888c-5.291-19.919-20.878-35.608-40.67-40.933C399.845 94.281 256 94.281 256 94.281s-143.845 0-179.719 9.674c-19.791 5.325-35.378 21.014-40.668 40.933-9.612 36.105-9.612 111.438-9.612 111.438s0 75.334 9.612 111.438c5.29 19.92 20.877 34.955 40.668 40.281C112.155 417.719 256 417.719 256 417.719s143.845 0 179.717-9.674c19.792-5.326 35.379-20.361 40.67-40.281 9.612-36.104 9.612-111.438 9.612-111.438s0-75.333-9.612-111.438zM208.954 324.723V187.93l120.226 68.398-120.226 68.395z"/></svg></svg>